SplineFontDB: 3.0
FontName: SHADOWTEMP
FullName: SHADOWTEMP
FamilyName: SHADOWTEMP
Weight: Regular
Copyright: Copyright (c) 2018, you
UComments: "2018-11-28: Created with FontForge (http://fontforge.org)"
Version: 001.000
ItalicAngle: 0
UnderlinePosition: -205
UnderlineWidth: 102
Ascent: 1843
Descent: 205
InvalidEm: 0
LayerCount: 2
Layer: 0 1 "+gMyXYgAA" 1
Layer: 1 1 "+Uk2XYgAA" 0
XUID: [1021 846 1137508600 5427]
OS2Version: 0
OS2_WeightWidthSlopeOnly: 0
OS2_UseTypoMetrics: 1
CreationTime: 1543378063
ModificationTime: 1543522476
OS2TypoAscent: 0
OS2TypoAOffset: 1
OS2TypoDescent: 0
OS2TypoDOffset: 1
OS2TypoLinegap: 0
OS2WinAscent: 0
OS2WinAOffset: 1
OS2WinDescent: 0
OS2WinDOffset: 1
HheadAscent: 0
HheadAOffset: 1
HheadDescent: 0
HheadDOffset: 1
OS2Vendor: 'PfEd'
MarkAttachClasses: 1
DEI: 91125
Encoding: UnicodeFull
UnicodeInterp: none
NameList: AGL For New Fonts
DisplaySize: -96
AntiAlias: 1
FitToEm: 0
WinInfo: 126 14 9
BeginPrivate: 0
EndPrivate
BeginChars: 1114112 188

StartChar: zero
Encoding: 48 48 0
Width: 1469
VWidth: -3
Flags: W
LayerCount: 2
Fore
SplineSet
0 734 m 2,0,-1
 0 1101 l 2,1,2
 0 1253 0 1253 54 1382.5 c 128,-1,3
 108 1512 108 1512 215 1620 c 1,4,5
 430 1835 430 1835 734.5 1835 c 128,-1,6
 1039 1835 1039 1835 1254 1620 c 0,7,8
 1326 1548 1326 1548 1373.5 1466.5 c 128,-1,9
 1421 1385 1421 1385 1445 1293.5 c 128,-1,10
 1469 1202 1469 1202 1469 1101 c 2,11,-1
 1469 734 l 2,12,13
 1469 430 1469 430 1254 215 c 128,-1,14
 1039 0 1039 0 734.5 0 c 128,-1,15
 430 0 430 0 215 215 c 0,16,17
 107 323 107 323 53.5 452.5 c 128,-1,18
 0 582 0 582 0 734 c 2,0,-1
370 1101 m 2,19,-1
 370 734 l 2,20,21
 370 684 370 684 382 638.5 c 128,-1,22
 394 593 394 593 417.5 552.5 c 128,-1,23
 441 512 441 512 477 477 c 0,24,25
 486 468 486 468 495 459.5 c 128,-1,26
 504 451 504 451 513.5 444 c 128,-1,27
 523 437 523 437 533 430 c 128,-1,28
 543 423 543 423 553 417 c 0,29,30
 573 405 573 405 594.5 396.5 c 128,-1,31
 616 388 616 388 639 382 c 0,32,33
 685 370 685 370 735 370 c 0,34,35
 886 370 886 370 992 477 c 0,36,37
 1045 530 1045 530 1072 594.5 c 128,-1,38
 1099 659 1099 659 1099 734 c 2,39,-1
 1099 1101 l 2,40,41
 1099 1109 1099 1109 1098.5 1117.5 c 128,-1,42
 1098 1126 1098 1126 1098 1134 c 0,43,44
 1097 1150 1097 1150 1094 1165.5 c 128,-1,45
 1091 1181 1091 1181 1087 1196 c 0,46,47
 1085 1204 1085 1204 1083 1211.5 c 128,-1,48
 1081 1219 1081 1219 1078 1226 c 1,49,50
 1073 1241 1073 1241 1066 1255 c 0,51,52
 1063 1262 1063 1262 1059.5 1269 c 128,-1,53
 1056 1276 1056 1276 1052 1282.5 c 128,-1,54
 1048 1289 1048 1289 1043.5 1295.5 c 128,-1,55
 1039 1302 1039 1302 1034 1309 c 0,56,57
 1025 1322 1025 1322 1014.5 1334.5 c 128,-1,58
 1004 1347 1004 1347 992 1358 c 1,59,60
 938 1411 938 1411 874 1438 c 0,61,62
 810 1465 810 1465 735 1465 c 0,63,64
 697 1465 697 1465 662 1458.5 c 128,-1,65
 627 1452 627 1452 594.5 1438.5 c 128,-1,66
 562 1425 562 1425 532.5 1405 c 128,-1,67
 503 1385 503 1385 477 1358 c 0,68,69
 459 1340 459 1340 444 1321.5 c 128,-1,70
 429 1303 429 1303 417.5 1282.5 c 128,-1,71
 406 1262 406 1262 397 1240.5 c 128,-1,72
 388 1219 388 1219 382 1196.5 c 128,-1,73
 376 1174 376 1174 373 1150 c 128,-1,74
 370 1126 370 1126 370 1101 c 2,19,-1
EndSplineSet
EndChar

StartChar: one
Encoding: 49 49 1
Width: 919
VWidth: -3
Flags: W
LayerCount: 2
Fore
SplineSet
919 1832 m 2,0,-1
 919 3 l 2,1,2
 919 2 919 2 918 1 c 128,-1,3
 917 0 917 0 916 0 c 2,4,-1
 553 0 l 2,5,6
 552 0 552 0 551 1 c 128,-1,7
 550 2 550 2 550 3 c 2,8,-1
 550 1832 l 2,9,10
 550 1833 550 1833 551 1834 c 128,-1,11
 552 1835 552 1835 553 1835 c 2,12,-1
 916 1835 l 2,13,14
 917 1835 917 1835 918 1834 c 128,-1,15
 919 1833 919 1833 919 1832 c 2,0,-1
0 3 m 2,16,-1
 0 184 l 2,17,18
 0 185 0 185 1 186 c 128,-1,19
 2 187 2 187 3 187 c 2,20,-1
 184 187 l 2,21,22
 185 187 185 187 186 186 c 1,23,24
 187 186 187 186 187 184 c 2,25,-1
 187 3 l 2,26,27
 187 2 187 2 186 1 c 128,-1,28
 185 0 185 0 184 0 c 2,29,-1
 3 0 l 2,30,31
 2 0 2 0 1 1 c 128,-1,32
 0 2 0 2 0 3 c 2,16,-1
EndSplineSet
EndChar

StartChar: two
Encoding: 50 50 2
Width: 1469
VWidth: -3
Flags: W
LayerCount: 2
Fore
SplineSet
7 1284 m 1,0,1
 41 1521 41 1521 222 1678 c 0,2,3
 313 1757 313 1757 418 1796 c 128,-1,4
 523 1835 523 1835 643 1835 c 2,5,-1
 918 1835 l 2,6,7
 994 1835 994 1835 1062.5 1817 c 128,-1,8
 1131 1799 1131 1799 1192.5 1763 c 128,-1,9
 1254 1727 1254 1727 1307 1674 c 0,10,11
 1388 1593 1388 1593 1428.5 1495.5 c 128,-1,12
 1469 1398 1469 1398 1469 1284 c 0,13,14
 1469 1054 1469 1054 1323 876 c 1,15,-1
 655 375 l 2,16,17
 654 374 654 374 654 373 c 0,18,-1
 654 372 l 2,19,-1
 655 371 l 2,20,21
 656 370 l 2,22,-1
 657 370 l 1,23,-1
 1466 370 l 2,24,25
 1467 370 1467 370 1468 369 c 128,-1,26
 1469 368 1469 368 1469 367 c 2,27,-1
 1469 3 l 2,28,29
 1469 2 1469 2 1468 1 c 128,-1,30
 1467 0 1467 0 1466 0 c 2,31,-1
 3 0 l 2,32,33
 2 0 2 0 1 1 c 128,-1,34
 0 2 0 2 0 3 c 2,35,-1
 0 366 l 2,36,37
 0 367 0 367 0 368 c 1,38,-1
 1 369 l 1,39,40
 1 370 1 370 2 370 c 1,41,-1
 1027 1139 l 2,42,43
 1053 1159 1053 1159 1069.5 1181 c 128,-1,44
 1086 1203 1086 1203 1094 1229 c 0,45,46
 1110 1280 1110 1280 1090 1341 c 0,47,48
 1080 1372 1080 1372 1064 1395 c 128,-1,49
 1048 1418 1048 1418 1026 1434 c 0,50,51
 983 1465 983 1465 918 1465 c 2,52,-1
 643 1465 l 2,53,54
 629 1465 629 1465 615.5 1464 c 128,-1,55
 602 1463 602 1463 588 1460 c 0,56,57
 562 1455 562 1455 538 1445 c 0,58,59
 526 1440 526 1440 514.5 1434 c 128,-1,60
 503 1428 503 1428 492 1420.5 c 128,-1,61
 481 1413 481 1413 470.5 1404 c 128,-1,62
 460 1395 460 1395 450 1385 c 0,63,64
 445 1380 445 1380 440 1374.5 c 128,-1,65
 435 1369 435 1369 430.5 1363.5 c 128,-1,66
 426 1358 426 1358 421 1352 c 0,67,68
 408 1335 408 1335 398.5 1316.5 c 128,-1,69
 389 1298 389 1298 383 1278.5 c 128,-1,70
 377 1259 377 1259 373.5 1238 c 128,-1,71
 370 1217 370 1217 370 1194 c 0,72,73
 370 1192 370 1192 369 1192 c 2,74,-1
 368 1192 l 1,75,76
 367 1191 367 1191 366 1191 c 2,77,-1
 9 1280 l 1,78,-1
 7 1284 l 1,0,1
EndSplineSet
EndChar

StartChar: three
Encoding: 51 51 3
Width: 1460
VWidth: -3
Flags: W
LayerCount: 2
Fore
SplineSet
86 1835 m 2,0,-1
 1365 1835 l 2,1,2
 1366 1835 1366 1835 1367 1834 c 128,-1,3
 1368 1833 1368 1833 1368 1832 c 2,4,-1
 1368 1468 l 1,5,-1
 1368 1467 l 1,6,-1
 1367 1466 l 1,7,-1
 1367 1465 l 1,8,-1
 920 1108 l 2,9,10
 919 1107 919 1107 919 1106 c 2,11,-1
 919 1105 l 1,12,-1
 920 1104 l 2,13,14
 920 1104 l 2,15,-1
 920 1103 l 1,16,17
 921 1102 921 1102 922 1102 c 0,18,19
 1032 1099 1032 1099 1132 1055 c 0,20,21
 1182 1033 1182 1033 1224.5 1003.5 c 128,-1,22
 1267 974 1267 974 1303 937 c 0,23,24
 1327 912 1327 912 1348 884.5 c 128,-1,25
 1369 857 1369 857 1386 826.5 c 128,-1,26
 1403 796 1403 796 1418 762 c 1,27,28
 1460 661 1460 661 1460 551 c 0,29,30
 1460 494 1460 494 1450 441 c 128,-1,31
 1440 388 1440 388 1420 340 c 0,32,33
 1380 243 1380 243 1299 162 c 128,-1,34
 1218 81 1218 81 1120.5 40.5 c 128,-1,35
 1023 0 1023 0 909 0 c 2,36,-1
 451 0 l 2,37,38
 287 0 287 0 159 104 c 1,39,40
 33 208 33 208 0 369 c 0,41,42
 0 370 0 370 0.5 371 c 128,-1,43
 1 372 1 372 3 372 c 2,44,-1
 357 461 l 2,45,46
 358 461 358 461 358.5 461 c 128,-1,47
 359 461 359 461 359.5 460.5 c 128,-1,48
 360 460 360 460 360.5 459.5 c 128,-1,49
 361 459 361 459 361 458 c 0,50,51
 362 422 362 422 387 396 c 0,52,53
 390 393 390 393 392.5 391 c 128,-1,54
 395 389 395 389 398 387 c 0,55,56
 399 386 399 386 401 385 c 128,-1,57
 403 384 403 384 404.5 383 c 128,-1,58
 406 382 406 382 407.5 381 c 128,-1,59
 409 380 409 380 410 379 c 0,60,61
 416 376 416 376 423 374 c 0,62,63
 426 373 426 373 429.5 372 c 128,-1,64
 433 371 433 371 436.5 370.5 c 128,-1,65
 440 370 440 370 443.5 370 c 128,-1,66
 447 370 447 370 451 370 c 2,67,-1
 909 370 l 2,68,69
 984 370 984 370 1037 423 c 0,70,71
 1063 449 1063 449 1076.5 481.5 c 128,-1,72
 1090 514 1090 514 1090 551 c 0,73,74
 1090 626 1090 626 1037 679.5 c 128,-1,75
 984 733 984 733 909 733 c 2,76,-1
 361 733 l 2,77,78
 360 733 360 733 358.5 734 c 128,-1,79
 357 735 357 735 357 736 c 2,80,-1
 357 1099 l 1,81,-1
 358 1100 l 1,82,-1
 358 1100 l 1,83,-1
 358 1101 l 1,84,-1
 358 1102 l 1,85,-1
 358 1102 l 1,86,-1
 359 1103 l 1,87,-1
 805 1460 l 1,88,-1
 806 1461 l 1,89,-1
 806 1462 l 2,90,91
 806 1463 l 1,92,-1
 806 1464 l 1,93,-1
 805 1465 l 1,94,95
 804 1465 804 1465 803 1465 c 2,96,-1
 86 1465 l 2,97,98
 85 1465 85 1465 84 1466 c 128,-1,99
 83 1467 83 1467 83 1468 c 2,100,-1
 83 1832 l 2,101,102
 83 1833 83 1833 84 1834 c 128,-1,103
 85 1835 85 1835 86 1835 c 2,0,-1
EndSplineSet
EndChar

StartChar: four
Encoding: 52 52 4
Width: 1469
VWidth: -3
Flags: W
LayerCount: 2
Fore
SplineSet
1197 828 m 1,0,-1
 1466 828 l 2,1,2
 1467 828 1467 828 1468 827 c 128,-1,3
 1469 826 1469 826 1469 824 c 2,4,-1
 1469 461 l 2,5,6
 1469 460 1469 460 1468 459 c 128,-1,7
 1467 458 1467 458 1466 458 c 2,8,-1
 1197 458 l 2,9,10
 1196 458 1196 458 1196 457.5 c 128,-1,11
 1196 457 1196 457 1195 457 c 1,12,-1
 1194 456 l 2,13,14
 1194 456 l 2,15,-1
 1194 455 l 1,16,-1
 1194 3 l 2,17,18
 1194 2 1194 2 1193 1 c 128,-1,19
 1192 0 1192 0 1191 0 c 2,20,-1
 827 0 l 2,21,22
 826 0 826 0 825 1 c 128,-1,23
 824 2 824 2 824 3 c 2,24,-1
 824 455 l 2,25,26
 824 456 824 456 823 457 c 128,-1,27
 822 458 822 458 821 458 c 2,28,-1
 3 458 l 2,29,30
 2 458 2 458 1 459 c 128,-1,31
 0 460 0 460 0 461 c 2,32,-1
 0 825 l 1,33,-1
 0 826 l 1,34,-1
 1 827 l 1,35,-1
 1 828 l 1,36,-1
 824 1833 l 1,37,-1
 824 1834 l 1,38,-1
 825 1834 l 1,39,-1
 826 1834 l 1,40,-1
 826 1835 l 1,41,-1
 1191 1835 l 2,42,43
 1192 1835 1192 1835 1193 1834 c 128,-1,44
 1194 1833 1194 1833 1194 1832 c 2,45,-1
 1194 831 l 2,46,47
 1194 830 l 2,48,-1
 1195 829 l 1,49,-1
 1196 828 l 1,50,-1
 1197 828 l 1,0,-1
824 831 m 2,51,-1
 824 1270 l 2,52,53
 824 1271 824 1271 824 1271.5 c 128,-1,54
 824 1272 824 1272 823 1272 c 1,55,56
 822 1273 822 1273 821 1273 c 128,-1,57
 820 1273 820 1273 819 1272 c 2,58,-1
 459 833 l 2,59,60
 458 832 458 832 459 831 c 1,61,-1
 459 830 l 2,62,63
 459 829 l 1,64,-1
 460 828 l 1,65,-1
 460 828 l 2,66,67
 461 827 461 827 462 828 c 1,68,-1
 821 828 l 2,69,70
 822 828 822 828 823 829 c 128,-1,71
 824 830 824 830 824 831 c 2,51,-1
EndSplineSet
EndChar

StartChar: five
Encoding: 53 53 5
Width: 1469
VWidth: -3
Flags: W
LayerCount: 2
Fore
SplineSet
1286 1832 m 2,0,-1
 1286 1468 l 2,1,2
 1286 1467 1286 1467 1285 1466 c 128,-1,3
 1284 1465 1284 1465 1283 1465 c 2,4,-1
 373 1465 l 2,5,6
 372 1465 372 1465 371.5 1465 c 128,-1,7
 371 1465 371 1465 371 1464 c 1,8,-1
 370 1464 l 2,9,10
 370 1462 l 2,11,-1
 370 1462 l 1,12,-1
 370 1106 l 2,13,14
 370 1105 370 1105 371 1103 c 1,15,-1
 372 1102 l 1,16,-1
 373 1102 l 1,17,-1
 918 1102 l 2,18,19
 1146 1102 1146 1102 1307.5 940.5 c 128,-1,20
 1469 779 1469 779 1469 551 c 128,-1,21
 1469 323 1469 323 1307 162 c 0,22,23
 1226 81 1226 81 1129 40 c 1,24,25
 1080 20 1080 20 1027.5 10 c 128,-1,26
 975 0 975 0 918 0 c 2,27,-1
 460 0 l 2,28,29
 295 0 295 0 168 104 c 1,30,31
 42 208 42 208 9 369 c 0,32,33
 9 370 9 370 9.5 371 c 128,-1,34
 10 372 10 372 11 372 c 2,35,-1
 366 461 l 2,36,37
 367 461 367 461 368 460 c 1,38,-1
 369 460 l 1,39,40
 370 459 370 459 370 458 c 0,41,42
 371 422 371 422 396 396 c 0,43,44
 403 389 403 389 410 385 c 0,45,46
 414 383 414 383 417.5 380.5 c 128,-1,47
 421 378 421 378 425 376 c 0,48,49
 433 373 433 373 442 371 c 0,50,51
 446 370 446 370 450.5 370 c 128,-1,52
 455 370 455 370 460 370 c 2,53,-1
 918 370 l 2,54,55
 993 370 993 370 1046 423 c 0,56,57
 1064 441 1064 441 1075.5 461 c 128,-1,58
 1087 481 1087 481 1093 504 c 0,59,60
 1096 515 1096 515 1097.5 527 c 128,-1,61
 1099 539 1099 539 1099 551 c 0,62,63
 1099 626 1099 626 1046 679 c 0,64,65
 1019 706 1019 706 987 719.5 c 128,-1,66
 955 733 955 733 918 733 c 2,67,-1
 3 733 l 2,68,69
 2 733 2 733 1 734 c 128,-1,70
 0 735 0 735 0 736 c 2,71,-1
 0 1832 l 2,72,73
 0 1833 0 1833 1 1834 c 128,-1,74
 2 1835 2 1835 3 1835 c 2,75,-1
 1283 1835 l 2,76,77
 1284 1835 1284 1835 1285 1834 c 128,-1,78
 1286 1833 1286 1833 1286 1832 c 2,0,-1
EndSplineSet
EndChar

StartChar: six
Encoding: 54 54 6
Width: 1469
VWidth: -3
Flags: W
LayerCount: 2
Fore
SplineSet
918 733 m 2,0,-1
 551 733 l 2,1,2
 526 733 526 733 504 727 c 0,3,4
 493 724 493 724 482 719.5 c 128,-1,5
 471 715 471 715 461 709 c 128,-1,6
 451 703 451 703 441.5 695.5 c 128,-1,7
 432 688 432 688 423 679 c 0,8,9
 396 652 396 652 383 620.5 c 128,-1,10
 370 589 370 589 370 551 c 0,11,12
 370 536 370 536 372 522 c 128,-1,13
 374 508 374 508 378.5 494.5 c 128,-1,14
 383 481 383 481 389.5 469 c 128,-1,15
 396 457 396 457 404.5 445.5 c 128,-1,16
 413 434 413 434 423 423 c 1,17,18
 476 370 476 370 551 370 c 2,19,-1
 918 370 l 2,20,21
 993 370 993 370 1046 423 c 0,22,23
 1064 441 1064 441 1075.5 461 c 128,-1,24
 1087 481 1087 481 1093 504 c 0,25,26
 1096 515 1096 515 1097.5 527 c 128,-1,27
 1099 539 1099 539 1099 551 c 0,28,29
 1099 626 1099 626 1046 679 c 0,30,31
 1020 705 1020 705 987 719 c 0,32,33
 971 726 971 726 954 729.5 c 128,-1,34
 937 733 937 733 918 733 c 2,0,-1
701 1102 m 1,35,-1
 918 1102 l 2,36,37
 1068 1102 1068 1102 1194.5 1028.5 c 128,-1,38
 1321 955 1321 955 1395 828 c 128,-1,39
 1469 701 1469 701 1469 551 c 0,40,41
 1469 323 1469 323 1307 162 c 0,42,43
 1226 81 1226 81 1129 40 c 1,44,45
 1080 20 1080 20 1027.5 10 c 128,-1,46
 975 0 975 0 918 0 c 2,47,-1
 551 0 l 2,48,49
 451 0 451 0 357.5 35 c 128,-1,50
 264 70 264 70 189 135 c 0,51,52
 151 168 151 168 120.5 206.5 c 128,-1,53
 90 245 90 245 66 289 c 0,54,55
 -6 423 -6 423 0.5 574.5 c 128,-1,56
 7 726 7 726 90 853 c 2,57,-1
 732 1833 l 2,58,59
 733 1834 733 1834 735 1834 c 2,60,-1
 1170 1835 l 2,61,62
 1171 1835 1171 1835 1172 1834 c 128,-1,63
 1173 1833 1173 1833 1173 1832 c 2,64,-1
 1173 1831 l 2,65,66
 1173 1830 1173 1830 1172 1830 c 1,67,-1
 699 1107 l 2,68,69
 698 1106 698 1106 698.5 1104.5 c 128,-1,70
 699 1103 699 1103 700 1103 c 1,71,-1
 700 1102 l 1,72,-1
 701 1102 l 1,35,-1
EndSplineSet
EndChar

StartChar: seven
Encoding: 55 55 7
Width: 1469
VWidth: -3
Flags: W
LayerCount: 2
Fore
SplineSet
0 1468 m 2,0,-1
 0 1832 l 2,1,2
 0 1833 0 1833 1 1834 c 128,-1,3
 2 1835 2 1835 3 1835 c 2,4,-1
 1466 1835 l 2,5,6
 1467 1835 1467 1835 1468 1834 c 128,-1,7
 1469 1833 1469 1833 1469 1832 c 2,8,-1
 1469 1467 l 1,9,-1
 1469 1466 l 2,10,11
 1468 1466 l 1,12,-1
 737 2 l 2,13,14
 737 1 737 1 736 1 c 2,15,-1
 734 0 l 1,16,-1
 733 0 l 1,17,-1
 279 0 l 2,18,19
 278 0 278 0 277.5 0.5 c 128,-1,20
 277 1 277 1 276.5 1 c 128,-1,21
 276 1 276 1 276 2 c 2,22,-1
 276 3 l 2,23,24
 276 4 276 4 276 5 c 2,25,-1
 1004 1461 l 2,26,27
 1005 1462 1005 1462 1004 1463 c 1,28,29
 1004 1464 l 2,30,-1
 1003 1465 l 1,31,32
 1002 1465 1002 1465 1001 1465 c 2,33,-1
 3 1465 l 2,34,35
 2 1465 2 1465 1 1466 c 128,-1,36
 0 1467 0 1467 0 1468 c 2,0,-1
EndSplineSet
EndChar

StartChar: eight
Encoding: 56 56 8
Width: 1469
VWidth: -3
Flags: W
LayerCount: 2
Fore
SplineSet
643 1835 m 2,0,-1
 827 1835 l 2,1,2
 929 1835 929 1835 1023 1799 c 0,3,4
 1047 1790 1047 1790 1069.5 1779 c 128,-1,5
 1092 1768 1092 1768 1113 1755 c 128,-1,6
 1134 1742 1134 1742 1154 1727.5 c 128,-1,7
 1174 1713 1174 1713 1193 1696 c 0,8,9
 1269 1629 1269 1629 1316 1538 c 0,10,11
 1387 1402 1387 1402 1377 1249 c 128,-1,12
 1367 1096 1367 1096 1280 971 c 0,13,14
 1279 970 1279 970 1280 968 c 0,15,16
 1280 967 1280 967 1281 967 c 1,17,18
 1410 854 1410 854 1452 687 c 0,19,20
 1473 604 1473 604 1469 522 c 0,21,22
 1467 481 1467 481 1458.5 440.5 c 128,-1,23
 1450 400 1450 400 1435 360 c 0,24,25
 1375 198 1375 198 1233 99 c 128,-1,26
 1091 0 1091 0 918 0 c 2,27,-1
 552 0 l 2,28,29
 379 0 379 0 237 99 c 0,30,31
 166 148 166 148 115.5 213.5 c 128,-1,32
 65 279 65 279 35 360 c 0,33,34
 -25 521 -25 521 18 687 c 1,35,36
 60 853 60 853 189 967 c 1,37,-1
 190 968 l 2,38,39
 190 969 l 0,40,41
 190 970 190 970 190 971 c 1,42,43
 103 1097 103 1097 93 1249 c 0,44,45
 88 1325 88 1325 103.5 1397.5 c 128,-1,46
 119 1470 119 1470 154 1538 c 1,47,48
 190 1606 190 1606 240.5 1660.5 c 128,-1,49
 291 1715 291 1715 357 1755 c 128,-1,50
 423 1795 423 1795 494.5 1815 c 128,-1,51
 566 1835 566 1835 643 1835 c 2,0,-1
643 1102 m 2,52,-1
 827 1102 l 2,53,54
 902 1102 902 1102 955 1155.5 c 128,-1,55
 1008 1209 1008 1209 1008 1284 c 0,56,57
 1008 1321 1008 1321 994.5 1353.5 c 128,-1,58
 981 1386 981 1386 955 1412 c 0,59,60
 946 1421 946 1421 936.5 1428.5 c 128,-1,61
 927 1436 927 1436 917 1442 c 0,62,63
 910 1446 910 1446 903 1449 c 128,-1,64
 896 1452 896 1452 889 1454.5 c 128,-1,65
 882 1457 882 1457 874 1459 c 0,66,67
 851 1465 851 1465 827 1465 c 2,68,-1
 643 1465 l 2,69,70
 568 1465 568 1465 515 1412 c 128,-1,71
 462 1359 462 1359 462 1284 c 0,72,73
 462 1247 462 1247 475.5 1214.5 c 128,-1,74
 489 1182 489 1182 515 1156 c 0,75,76
 528 1143 528 1143 543 1132 c 0,77,78
 550 1127 550 1127 558 1123 c 128,-1,79
 566 1119 566 1119 574 1116 c 0,80,81
 590 1109 590 1109 607 1105.5 c 128,-1,82
 624 1102 624 1102 643 1102 c 2,52,-1
552 370 m 2,83,-1
 918 370 l 2,84,85
 936 370 936 370 954 373.5 c 128,-1,86
 972 377 972 377 989 384 c 0,87,88
 1023 398 1023 398 1047 423 c 0,89,90
 1059 435 1059 435 1068.5 449.5 c 128,-1,91
 1078 464 1078 464 1085 480.5 c 128,-1,92
 1092 497 1092 497 1096 515 c 0,93,94
 1098 524 1098 524 1099 533 c 128,-1,95
 1100 542 1100 542 1100 551 c 0,96,97
 1100 626 1100 626 1046.5 679.5 c 128,-1,98
 993 733 993 733 918 733 c 2,99,-1
 552 733 l 2,100,101
 527 733 527 733 504 727 c 128,-1,102
 481 721 481 721 461 709 c 128,-1,103
 441 697 441 697 424 679 c 1,104,105
 397 652 397 652 384 621 c 0,106,107
 377 605 377 605 373.5 587.5 c 128,-1,108
 370 570 370 570 370 551 c 0,109,110
 370 547 370 547 370.5 543.5 c 128,-1,111
 371 540 371 540 371 536.5 c 128,-1,112
 371 533 371 533 371.5 529.5 c 128,-1,113
 372 526 372 526 373 522 c 0,114,115
 375 508 375 508 379 494.5 c 128,-1,116
 383 481 383 481 390 469 c 0,117,118
 393 463 393 463 396.5 457 c 128,-1,119
 400 451 400 451 404 445 c 0,120,121
 407 441 407 441 410 437.5 c 128,-1,122
 413 434 413 434 416.5 430 c 128,-1,123
 420 426 420 426 424 423 c 1,124,125
 435 412 435 412 446 403.5 c 128,-1,126
 457 395 457 395 470 389 c 0,127,128
 476 386 476 386 482.5 383 c 128,-1,129
 489 380 489 380 495 378 c 0,130,131
 508 374 508 374 523 372 c 0,132,133
 530 371 530 371 537 370.5 c 128,-1,134
 544 370 544 370 552 370 c 2,83,-1
EndSplineSet
EndChar

StartChar: nine
Encoding: 57 57 9
Width: 1468
VWidth: -3
Flags: W
LayerCount: 2
Fore
SplineSet
551 1102 m 2,0,-1
 917 1102 l 2,1,2
 992 1102 992 1102 1045.5 1155.5 c 128,-1,3
 1099 1209 1099 1209 1099 1284 c 0,4,5
 1099 1295 1099 1295 1098 1305 c 128,-1,6
 1097 1315 1097 1315 1094 1325 c 0,7,8
 1093 1330 1093 1330 1092 1335 c 128,-1,9
 1091 1340 1091 1340 1089 1344.5 c 128,-1,10
 1087 1349 1087 1349 1085.5 1353.5 c 128,-1,11
 1084 1358 1084 1358 1081 1363 c 1,12,13
 1077 1372 1077 1372 1071.5 1380 c 128,-1,14
 1066 1388 1066 1388 1059.5 1396.5 c 128,-1,15
 1053 1405 1053 1405 1046 1412 c 0,16,17
 1020 1438 1020 1438 987.5 1451.5 c 128,-1,18
 955 1465 955 1465 917 1465 c 2,19,-1
 551 1465 l 2,20,21
 514 1465 514 1465 481 1452 c 1,22,23
 465 1445 465 1445 450.5 1435 c 128,-1,24
 436 1425 436 1425 423 1412 c 0,25,26
 416 1405 416 1405 410 1398.5 c 128,-1,27
 404 1392 404 1392 399.5 1384.5 c 128,-1,28
 395 1377 395 1377 390.5 1369.5 c 128,-1,29
 386 1362 386 1362 383 1354 c 0,30,31
 376 1338 376 1338 373 1320.5 c 128,-1,32
 370 1303 370 1303 370 1284 c 0,33,34
 370 1209 370 1209 423 1155.5 c 128,-1,35
 476 1102 476 1102 551 1102 c 2,0,-1
733 0 m 1,36,-1
 299 0 l 2,37,38
 298 0 298 0 297.5 0.5 c 128,-1,39
 297 1 297 1 296.5 1 c 128,-1,40
 296 1 296 1 296 2 c 2,41,-1
 296 3 l 1,42,-1
 296 4 l 1,43,-1
 296 5 l 1,44,-1
 770 728 l 1,45,46
 770 729 770 729 770.5 729 c 128,-1,47
 771 729 771 729 770 730 c 1,48,49
 770 731 770 731 769 732 c 2,50,-1
 768 732 l 2,51,52
 767 733 l 2,53,-1
 551 733 l 2,54,55
 323 733 323 733 161.5 894.5 c 128,-1,56
 0 1056 0 1056 0 1284 c 0,57,58
 0 1434 0 1434 74 1560.5 c 128,-1,59
 148 1687 148 1687 274 1761 c 1,60,61
 306 1779 306 1779 339 1793 c 128,-1,62
 372 1807 372 1807 407 1817 c 1,63,64
 476 1835 476 1835 551 1835 c 2,65,-1
 917 1835 l 2,66,67
 993 1835 993 1835 1064 1816 c 1,68,69
 1099 1806 1099 1806 1133 1791.5 c 128,-1,70
 1167 1777 1167 1777 1200 1757 c 0,71,72
 1243 1731 1243 1731 1280 1699 c 128,-1,73
 1317 1667 1317 1667 1347.5 1628.5 c 128,-1,74
 1378 1590 1378 1590 1402 1546 c 0,75,76
 1474 1412 1474 1412 1468 1261 c 0,77,78
 1465 1185 1465 1185 1442 1115 c 1,79,80
 1438 1101 1438 1101 1432.5 1087.5 c 128,-1,81
 1427 1074 1427 1074 1421 1060.5 c 128,-1,82
 1415 1047 1415 1047 1408.5 1033.5 c 128,-1,83
 1402 1020 1402 1020 1394.5 1007 c 128,-1,84
 1387 994 1387 994 1378 982 c 1,85,-1
 736 1 l 1,86,87
 736 0 736 0 735 0 c 2,88,-1
 733 0 l 1,36,-1
EndSplineSet
EndChar

StartChar: F
Encoding: 70 70 10
Width: 1469
VWidth: -3
Flags: W
LayerCount: 2
Fore
SplineSet
1469 1832 m 2,0,-1
 1469 1468 l 2,1,2
 1469 1467 1469 1467 1468 1466 c 128,-1,3
 1467 1465 1467 1465 1466 1465 c 2,4,-1
 373 1465 l 2,5,6
 372 1465 372 1465 371.5 1465 c 128,-1,7
 371 1465 371 1465 371 1464 c 1,8,-1
 370 1464 l 2,9,10
 370 1462 l 2,11,-1
 370 1462 l 1,12,-1
 370 1106 l 2,13,14
 370 1105 370 1105 371 1103 c 1,15,-1
 372 1103 l 2,16,17
 372 1102.5 l 0,18,-1
 372 1102 l 2,19,-1
 373 1102 l 1,20,-1
 1099 1102 l 2,21,22
 1100 1102 1100 1102 1101.5 1101 c 128,-1,23
 1103 1100 1103 1100 1103 1099 c 2,24,-1
 1103 736 l 2,25,26
 1103 735 1103 735 1102 734 c 128,-1,27
 1101 733 1101 733 1099 733 c 2,28,-1
 373 733 l 2,29,30
 372 733 372 733 371 732 c 1,31,32
 370 732 370 732 370 730 c 2,33,-1
 370 3 l 2,34,35
 370 2 370 2 369 1 c 128,-1,36
 368 0 368 0 367 0 c 2,37,-1
 3 0 l 2,38,39
 2 0 2 0 1 1 c 128,-1,40
 0 2 0 2 0 3 c 2,41,-1
 0 1832 l 2,42,43
 0 1833 0 1833 1 1834 c 128,-1,44
 2 1835 2 1835 3 1835 c 2,45,-1
 1466 1835 l 2,46,47
 1467 1835 1467 1835 1468 1834 c 128,-1,48
 1469 1833 1469 1833 1469 1832 c 2,0,-1
EndSplineSet
EndChar

StartChar: G
Encoding: 71 71 11
Width: 1469
VWidth: -3
Flags: W
LayerCount: 2
Fore
SplineSet
1096 550 m 2,0,-1
 736 550 l 2,1,2
 735 550 735 550 734 551 c 128,-1,3
 733 552 733 552 733 553 c 2,4,-1
 733 916 l 2,5,6
 733 917 733 917 734 918 c 128,-1,7
 735 919 735 919 736 919 c 2,8,-1
 1466 919 l 2,9,10
 1467 919 1467 919 1468 918 c 128,-1,11
 1469 917 1469 917 1469 916 c 2,12,-1
 1469 460 l 2,13,14
 1469 365 1469 365 1435.5 283.5 c 128,-1,15
 1402 202 1402 202 1334 135 c 0,16,17
 1312 113 1312 113 1288 94 c 128,-1,18
 1264 75 1264 75 1238.5 60 c 128,-1,19
 1213 45 1213 45 1186 34 c 0,20,21
 1105 0 1105 0 1009 0 c 2,22,-1
 460 0 l 2,23,24
 270 0 270 0 135 134.5 c 128,-1,25
 0 269 0 269 0 460 c 2,26,-1
 0 1375 l 2,27,28
 0 1470 0 1470 33.5 1551.5 c 128,-1,29
 67 1633 67 1633 134.5 1700.5 c 128,-1,30
 202 1768 202 1768 283.5 1801.5 c 128,-1,31
 365 1835 365 1835 460 1835 c 2,32,-1
 1009 1835 l 2,33,34
 1041 1835 1041 1835 1071 1831.5 c 128,-1,35
 1101 1828 1101 1828 1130 1820.5 c 128,-1,36
 1159 1813 1159 1813 1186 1801 c 1,37,38
 1227 1784 1227 1784 1264 1759 c 128,-1,39
 1301 1734 1301 1734 1334 1700 c 1,40,41
 1401 1633 1401 1633 1435 1552 c 128,-1,42
 1469 1471 1469 1471 1469 1375 c 2,43,-1
 1469 1285 l 2,44,45
 1469 1284 1469 1284 1468 1283 c 128,-1,46
 1467 1282 1467 1282 1466 1282 c 2,47,-1
 1102 1282 l 2,48,49
 1101 1282 1101 1282 1100 1283 c 128,-1,50
 1099 1284 1099 1284 1099 1285 c 2,51,-1
 1099 1375 l 2,52,53
 1099 1393 1099 1393 1092.5 1409.5 c 128,-1,54
 1086 1426 1086 1426 1073 1439 c 0,55,56
 1069 1443 1069 1443 1064 1447 c 128,-1,57
 1059 1451 1059 1451 1054 1453.5 c 128,-1,58
 1049 1456 1049 1456 1044 1459 c 1,59,60
 1036 1462 1036 1462 1027.5 1463.5 c 128,-1,61
 1019 1465 1019 1465 1009 1465 c 2,62,-1
 460 1465 l 2,63,64
 441 1465 441 1465 425 1458.5 c 128,-1,65
 409 1452 409 1452 396 1439 c 0,66,67
 389 1432 389 1432 384.5 1425 c 128,-1,68
 380 1418 380 1418 376 1410 c 0,69,70
 374 1406 374 1406 373 1402 c 128,-1,71
 372 1398 372 1398 372 1393 c 1,72,73
 371 1390 371 1390 370.5 1387.5 c 128,-1,74
 370 1385 370 1385 370 1381.5 c 128,-1,75
 370 1378 370 1378 370 1375 c 2,76,-1
 370 460 l 2,77,78
 370 455 370 455 370.5 450.5 c 128,-1,79
 371 446 371 446 372 442 c 0,80,81
 374 433 374 433 376 425 c 1,82,83
 378 421 378 421 380 417.5 c 128,-1,84
 382 414 382 414 385 410 c 0,85,86
 390 403 390 403 396.5 396.5 c 128,-1,87
 403 390 403 390 410 385 c 0,88,89
 412 383 412 383 414.5 381.5 c 128,-1,90
 417 380 417 380 420 378.5 c 128,-1,91
 423 377 423 377 425 376 c 0,92,93
 433 373 433 373 442 371 c 0,94,95
 445 370 445 370 448 370 c 128,-1,96
 451 370 451 370 454 370 c 128,-1,97
 457 370 457 370 460 370 c 2,98,-1
 1009 370 l 2,99,100
 1021 370 1021 370 1033 373 c 0,101,102
 1039 374 1039 374 1044 376.5 c 128,-1,103
 1049 379 1049 379 1054 382 c 0,104,105
 1064 388 1064 388 1073 396 c 1,106,107
 1080 403 1080 403 1084.5 410 c 128,-1,108
 1089 417 1089 417 1092.5 425 c 128,-1,109
 1096 433 1096 433 1097.5 441.5 c 128,-1,110
 1099 450 1099 450 1099 460 c 2,111,-1
 1099 546 l 2,112,113
 1099 547 1099 547 1099 547.5 c 128,-1,114
 1099 548 1099 548 1098 548 c 1,115,116
 1097 549 1097 549 1097 549.5 c 128,-1,117
 1097 550 1097 550 1096 550 c 2,0,-1
EndSplineSet
EndChar

StartChar: H
Encoding: 72 72 12
Width: 1469
VWidth: -3
Flags: W
LayerCount: 2
Fore
SplineSet
1466 0 m 1,0,-1
 1102 0 l 2,1,2
 1100 0 1100 0 1099 2 c 1,3,-1
 1099 3 l 1,4,-1
 1099 730 l 1,5,-1
 1099 730 l 1,6,-1
 1099 731 l 1,7,-1
 1098 732 l 1,8,-1
 1097 733 l 1,9,-1
 1096 733 l 1,10,-1
 373 733 l 2,11,12
 372 733 372 733 371 732 c 1,13,14
 370 732 370 732 370 730 c 2,15,-1
 370 3 l 2,16,17
 370 2 370 2 369 1 c 128,-1,18
 368 0 368 0 367 0 c 2,19,-1
 3 0 l 2,20,21
 2 0 2 0 1 1 c 128,-1,22
 0 2 0 2 0 3 c 2,23,-1
 0 1827 l 2,24,25
 0 1828 0 1828 1 1829 c 128,-1,26
 2 1830 2 1830 3 1830 c 2,27,-1
 367 1835 l 2,28,29
 368 1835 368 1835 368.5 1834.5 c 128,-1,30
 369 1834 369 1834 369.5 1833.5 c 128,-1,31
 370 1833 370 1833 370 1832 c 2,32,-1
 370 1106 l 2,33,34
 370 1105 370 1105 371 1103 c 1,35,-1
 372 1103 l 2,36,37
 372 1102.5 l 0,38,-1
 372 1102 l 2,39,-1
 373 1102 l 1,40,-1
 1096 1102 l 2,41,42
 1098 1102 l 2,43,-1
 1098 1103 l 1,44,-1
 1098 1104 l 1,45,-1
 1099 1105 l 1,46,-1
 1099 1106 l 1,47,-1
 1099 1832 l 2,48,49
 1099 1833 1099 1833 1100 1834 c 128,-1,50
 1101 1835 1101 1835 1102 1835 c 2,51,-1
 1461 1835 l 2,52,53
 1462 1835 1462 1835 1463 1834 c 128,-1,54
 1464 1833 1464 1833 1464 1832 c 2,55,-1
 1469 3 l 1,56,57
 1468 1 1468 1 1466 0 c 1,0,-1
EndSplineSet
EndChar

StartChar: I
Encoding: 73 73 13
Width: 919
VWidth: -3
Flags: W
LayerCount: 2
Fore
SplineSet
3 187 m 2,0,-1
 184 187 l 2,1,2
 185 187 185 187 186 186 c 1,3,4
 187 186 187 186 187 184 c 2,5,-1
 187 3 l 2,6,7
 187 2 187 2 186 1 c 128,-1,8
 185 0 185 0 184 0 c 2,9,-1
 3 0 l 2,10,11
 2 0 2 0 1 1 c 128,-1,12
 0 2 0 2 0 3 c 2,13,-1
 0 184 l 2,14,15
 0 185 0 185 1 186 c 128,-1,16
 2 187 2 187 3 187 c 2,0,-1
550 3 m 2,17,-1
 550 1832 l 2,18,19
 550 1833 550 1833 551 1834 c 128,-1,20
 552 1835 552 1835 553 1835 c 2,21,-1
 916 1835 l 2,22,23
 917 1835 917 1835 918 1834 c 128,-1,24
 919 1833 919 1833 919 1832 c 2,25,-1
 919 3 l 2,26,27
 919 2 919 2 918 1 c 128,-1,28
 917 0 917 0 916 0 c 2,29,-1
 553 0 l 2,30,31
 552 0 552 0 551 1 c 128,-1,32
 550 2 550 2 550 3 c 2,17,-1
EndSplineSet
EndChar

StartChar: J
Encoding: 74 74 14
Width: 1469
VWidth: -3
Flags: W
LayerCount: 2
Fore
SplineSet
3 553 m 1,0,-1
 367 553 l 2,1,2
 368 553 368 553 369 552 c 128,-1,3
 370 551 370 551 370 550 c 0,4,5
 370 513 370 513 383.5 481 c 128,-1,6
 397 449 397 449 423 423 c 0,7,8
 441 405 441 405 461 393.5 c 128,-1,9
 481 382 481 382 503.5 376 c 128,-1,10
 526 370 526 370 551 370 c 0,11,12
 626 370 626 370 679.5 423 c 128,-1,13
 733 476 733 476 733 551 c 2,14,-1
 733 1462 l 2,15,16
 732 1464 l 2,17,-1
 732 1464 l 2,18,19
 730 1465 l 2,20,-1
 730 1465 l 1,21,-1
 3 1465 l 2,22,23
 2 1465 2 1465 1 1466 c 128,-1,24
 0 1467 0 1467 0 1468 c 2,25,-1
 0 1832 l 2,26,27
 0 1833 0 1833 1 1834 c 128,-1,28
 2 1835 2 1835 3 1835 c 2,29,-1
 1466 1835 l 2,30,31
 1467 1835 1467 1835 1468 1834 c 128,-1,32
 1469 1833 1469 1833 1469 1832 c 2,33,-1
 1469 1468 l 2,34,35
 1469 1467 1469 1467 1468 1466 c 128,-1,36
 1467 1465 1467 1465 1466 1465 c 2,37,-1
 1106 1465 l 2,38,39
 1105 1465 1105 1465 1104.5 1465 c 128,-1,40
 1104 1465 1104 1465 1104 1464 c 1,41,-1
 1104 1464 l 2,42,43
 1103 1462 l 2,44,-1
 1103 1462 l 1,45,-1
 1103 551 l 2,46,47
 1103 323 1103 323 941.5 161.5 c 128,-1,48
 780 0 780 0 551.5 0 c 128,-1,49
 323 0 323 0 162 161 c 0,50,51
 82 241 82 241 41 338.5 c 128,-1,52
 0 436 0 436 0 550 c 0,53,54
 0 552 0 552 2 552 c 1,55,-1
 3 553 l 1,0,-1
EndSplineSet
EndChar

StartChar: K
Encoding: 75 75 15
Width: 1467
VWidth: -3
Flags: W
LayerCount: 2
Fore
SplineSet
1464 0 m 1,0,-1
 1046 0 l 1,1,-1
 1045 0 l 1,2,-1
 1044 1 l 1,3,4
 1043 1 1043 1 1043 2 c 1,5,-1
 476 710 l 2,6,7
 475 711 475 711 474 711 c 128,-1,8
 473 711 473 711 472.5 711 c 128,-1,9
 472 711 472 711 471 710 c 2,10,-1
 371 597 l 2,11,12
 370 596 370 596 370 595 c 2,13,-1
 370 3 l 2,14,15
 370 2 370 2 369 1 c 128,-1,16
 368 0 368 0 367 0 c 2,17,-1
 3 0 l 2,18,19
 2 0 2 0 1 1 c 128,-1,20
 0 2 0 2 0 3 c 2,21,-1
 0 1832 l 2,22,23
 0 1833 0 1833 1 1834 c 128,-1,24
 2 1835 2 1835 3 1835 c 2,25,-1
 367 1835 l 2,26,27
 368 1835 368 1835 369 1834 c 128,-1,28
 370 1833 370 1833 370 1832 c 2,29,-1
 370 1106 l 2,30,31
 370 1105 370 1105 371 1104 c 128,-1,32
 372 1103 372 1103 373 1103 c 2,33,-1
 374 1103 l 1,34,-1
 374 1103 l 1,35,-1
 374 1103 l 2,36,37
 375 1104 l 2,38,-1
 375 1104 l 1,39,-1
 1024 1833 l 1,40,-1
 1024 1834 l 2,41,42
 1024 1834 l 2,43,-1
 1025 1834 l 1,44,-1
 1026 1835 l 1,45,-1
 1026 1835 l 1,46,-1
 1027 1835 l 1,47,-1
 1464 1835 l 2,48,49
 1465 1835 1465 1835 1466 1834 c 128,-1,50
 1467 1833 1467 1833 1467 1832 c 128,-1,51
 1467 1831 1467 1831 1466 1830 c 2,52,-1
 700 968 l 2,53,54
 699 967 699 967 699 965.5 c 128,-1,55
 699 964 699 964 700 964 c 1,56,-1
 1466 5 l 2,57,58
 1467 4 1467 4 1467 3 c 128,-1,59
 1467 2 1467 2 1466 1 c 2,60,-1
 1464 0 l 1,0,-1
EndSplineSet
EndChar

StartChar: L
Encoding: 76 76 16
Width: 1469
VWidth: -3
Flags: W
LayerCount: 2
Fore
SplineSet
0 3 m 2,0,-1
 0 1832 l 2,1,2
 0 1833 0 1833 1 1834 c 128,-1,3
 2 1835 2 1835 3 1835 c 2,4,-1
 367 1835 l 2,5,6
 368 1835 368 1835 369 1834 c 128,-1,7
 370 1833 370 1833 370 1832 c 2,8,-1
 370 373 l 2,9,10
 370 372 370 372 371 371 c 2,11,-1
 372 370 l 1,12,-1
 373 370 l 1,13,-1
 1466 370 l 2,14,15
 1467 370 1467 370 1468 369 c 128,-1,16
 1469 368 1469 368 1469 367 c 2,17,-1
 1469 3 l 2,18,19
 1469 2 1469 2 1468 1 c 128,-1,20
 1467 0 1467 0 1466 0 c 2,21,-1
 3 0 l 2,22,23
 2 0 2 0 1 1 c 128,-1,24
 0 2 0 2 0 3 c 2,0,-1
EndSplineSet
EndChar

StartChar: M
Encoding: 77 77 17
Width: 1469
VWidth: -3
Flags: W
LayerCount: 2
Fore
SplineSet
370 1223 m 2,0,-1
 370 3 l 2,1,2
 370 2 370 2 369 1 c 128,-1,3
 368 0 368 0 367 0 c 2,4,-1
 3 0 l 2,5,6
 2 0 2 0 1 1 c 128,-1,7
 0 2 0 2 0 3 c 2,8,-1
 0 1832 l 2,9,10
 0 1833 0 1833 1 1834 c 128,-1,11
 2 1835 2 1835 3 1835 c 2,12,-1
 367 1835 l 1,13,-1
 368 1835 l 1,14,-1
 369 1834 l 1,15,16
 370 1834 370 1834 371 1833 c 2,17,-1
 732 1291 l 1,18,19
 732 1290 732 1290 732.5 1290 c 128,-1,20
 733 1290 733 1290 734 1289 c 1,21,22
 735 1289 735 1289 736 1290 c 2,23,-1
 737 1291 l 1,24,-1
 1099 1834 l 1,25,26
 1099 1835 1099 1835 1100 1835 c 128,-1,27
 1101 1835 1101 1835 1102 1835 c 2,28,-1
 1466 1835 l 2,29,30
 1467 1835 1467 1835 1468 1834 c 128,-1,31
 1469 1833 1469 1833 1469 1832 c 2,32,-1
 1469 3 l 2,33,34
 1469 2 1469 2 1468 1 c 128,-1,35
 1467 0 1467 0 1466 0 c 2,36,-1
 1102 0 l 2,37,38
 1101 0 1101 0 1100 1 c 128,-1,39
 1099 2 1099 2 1099 3 c 2,40,-1
 1099 1223 l 2,41,42
 1099 1224 1099 1224 1098 1225 c 0,43,-1
 1096 1226 l 2,44,-1
 1096 1226 l 1,45,-1
 1096 1226 l 1,46,-1
 1095 1226 l 1,47,-1
 1094 1226 l 2,48,49
 1093 1226 1093 1226 1093 1225 c 1,50,-1
 889 918 l 1,51,52
 889 917 889 917 888 917 c 2,53,-1
 886 916 l 1,54,-1
 886 916 l 1,55,-1
 885 916 l 1,56,-1
 584 916 l 1,57,-1
 584 916 l 1,58,-1
 583 916 l 1,59,-1
 581 917 l 2,60,61
 580 917 580 917 580 918 c 1,62,-1
 376 1225 l 2,63,64
 375 1226 375 1226 373.5 1226 c 128,-1,65
 372 1226 372 1226 371 1225 c 1,66,67
 370 1225 370 1225 370 1223 c 2,0,-1
EndSplineSet
EndChar

StartChar: N
Encoding: 78 78 18
Width: 1469
VWidth: -3
Flags: W
LayerCount: 2
Fore
SplineSet
1099 750 m 2,0,-1
 1099 1832 l 2,1,2
 1099 1833 1099 1833 1100 1834 c 128,-1,3
 1101 1835 1101 1835 1102 1835 c 2,4,-1
 1466 1835 l 2,5,6
 1467 1835 1467 1835 1468 1834 c 128,-1,7
 1469 1833 1469 1833 1469 1832 c 2,8,-1
 1469 3 l 2,9,10
 1469 2 1469 2 1468 1 c 128,-1,11
 1467 0 1467 0 1466 0 c 2,12,-1
 1102 0 l 1,13,-1
 1101 0 l 1,14,-1
 1100 1 l 1,15,-1
 1100 2 l 2,16,17
 1098 2 l 1,18,-1
 376 1086 l 1,19,20
 376 1087 376 1087 375 1087.5 c 128,-1,21
 374 1088 374 1088 373 1088 c 128,-1,22
 372 1088 372 1088 371 1087 c 1,23,24
 370 1087 370 1087 370 1086 c 2,25,-1
 370 1085 l 1,26,-1
 370 3 l 2,27,28
 370 2 370 2 369 1 c 128,-1,29
 368 0 368 0 367 0 c 2,30,-1
 3 0 l 2,31,32
 2 0 2 0 1 1 c 128,-1,33
 0 2 0 2 0 3 c 2,34,-1
 0 1832 l 2,35,36
 0 1833 0 1833 1 1834 c 128,-1,37
 2 1835 2 1835 3 1835 c 2,38,-1
 367 1835 l 1,39,-1
 368 1835 l 1,40,-1
 369 1834 l 1,41,42
 370 1834 370 1834 371 1833 c 2,43,-1
 1093 749 l 1,44,45
 1093 748 1093 748 1095 748 c 0,46,47
 1096 748 1096 748 1096 747 c 1,48,49
 1097 747 1097 747 1098 748 c 1,50,51
 1099 748 1099 748 1099 750 c 2,0,-1
EndSplineSet
EndChar

StartChar: O
Encoding: 79 79 19
Width: 1469
VWidth: -3
Flags: W
LayerCount: 2
Fore
SplineSet
1009 1465 m 2,0,-1
 460 1465 l 2,1,2
 448 1465 448 1465 436.5 1462 c 128,-1,3
 425 1459 425 1459 415 1454 c 0,4,5
 412 1452 412 1452 408.5 1449.5 c 128,-1,6
 405 1447 405 1447 402 1444.5 c 128,-1,7
 399 1442 399 1442 396 1439 c 0,8,9
 394 1437 394 1437 393 1435.5 c 128,-1,10
 392 1434 392 1434 390.5 1432.5 c 128,-1,11
 389 1431 389 1431 387.5 1429 c 128,-1,12
 386 1427 386 1427 385 1425 c 1,13,14
 383 1423 383 1423 381.5 1420.5 c 128,-1,15
 380 1418 380 1418 379 1416 c 1,16,17
 379 1414 379 1414 377 1410 c 1,18,19
 374 1402 374 1402 372 1393 c 0,20,21
 371 1389 371 1389 370.5 1384.5 c 128,-1,22
 370 1380 370 1380 370 1375 c 2,23,-1
 370 460 l 2,24,25
 370 448 370 448 373 436.5 c 128,-1,26
 376 425 376 425 381.5 415 c 128,-1,27
 387 405 387 405 396 396 c 0,28,29
 403 389 403 389 410 385 c 0,30,31
 414 383 414 383 417.5 380.5 c 128,-1,32
 421 378 421 378 425 376 c 0,33,34
 433 373 433 373 442 371 c 0,35,36
 446 370 446 370 450.5 370 c 128,-1,37
 455 370 455 370 460 370 c 2,38,-1
 1009 370 l 2,39,40
 1021 370 1021 370 1033 373 c 0,41,42
 1039 374 1039 374 1044 376.5 c 128,-1,43
 1049 379 1049 379 1054 382 c 0,44,45
 1064 388 1064 388 1073 396 c 1,46,47
 1080 403 1080 403 1084.5 410 c 128,-1,48
 1089 417 1089 417 1092.5 425 c 128,-1,49
 1096 433 1096 433 1097.5 441.5 c 128,-1,50
 1099 450 1099 450 1099 460 c 2,51,-1
 1099 1375 l 2,52,53
 1099 1393 1099 1393 1092.5 1409.5 c 128,-1,54
 1086 1426 1086 1426 1073 1439 c 0,55,56
 1069 1443 1069 1443 1064 1447 c 128,-1,57
 1059 1451 1059 1451 1054 1453.5 c 128,-1,58
 1049 1456 1049 1456 1044 1459 c 1,59,60
 1036 1462 1036 1462 1027 1463.5 c 128,-1,61
 1018 1465 1018 1465 1009 1465 c 2,0,-1
460 1835 m 2,62,-1
 1009 1835 l 2,63,64
 1134 1835 1134 1835 1240 1773 c 0,65,66
 1258 1763 1258 1763 1274 1751.5 c 128,-1,67
 1290 1740 1290 1740 1305.5 1727.5 c 128,-1,68
 1321 1715 1321 1715 1335 1701 c 0,69,70
 1377 1659 1377 1659 1407 1606 c 0,71,72
 1422 1580 1422 1580 1434 1552 c 128,-1,73
 1446 1524 1446 1524 1454 1496 c 1,74,75
 1469 1438 1469 1438 1469 1375 c 2,76,-1
 1469 460 l 2,77,78
 1469 270 1469 270 1334.5 135 c 128,-1,79
 1200 0 1200 0 1009 0 c 2,80,-1
 460 0 l 2,81,82
 270 0 270 0 135 134.5 c 128,-1,83
 0 269 0 269 0 460 c 2,84,-1
 0 1375 l 2,85,86
 0 1423 0 1423 8.5 1467 c 128,-1,87
 17 1511 17 1511 34 1552 c 0,88,89
 68 1633 68 1633 135 1700.5 c 128,-1,90
 202 1768 202 1768 283.5 1801.5 c 128,-1,91
 365 1835 365 1835 460 1835 c 2,62,-1
EndSplineSet
EndChar

StartChar: P
Encoding: 80 80 20
Width: 1469
VWidth: -3
Flags: W
LayerCount: 2
Fore
SplineSet
1469 1375 m 2,0,-1
 1469 1192 l 2,1,2
 1469 1173 1469 1173 1467.5 1154.5 c 128,-1,3
 1466 1136 1466 1136 1463 1118 c 0,4,5
 1458 1082 1458 1082 1447 1049 c 1,6,7
 1442 1032 1442 1032 1435 1015.5 c 128,-1,8
 1428 999 1428 999 1420 983.5 c 128,-1,9
 1412 968 1412 968 1402.5 953 c 128,-1,10
 1393 938 1393 938 1383 923 c 1,11,12
 1361 894 1361 894 1334 867 c 0,13,14
 1289 822 1289 822 1238 792 c 128,-1,15
 1187 762 1187 762 1130 748 c 1,16,17
 1073 733 1073 733 1009 733 c 2,18,-1
 373 733 l 2,19,20
 372 733 372 733 371 732 c 1,21,22
 370 732 370 732 370 730 c 2,23,-1
 370 3 l 2,24,25
 370 2 370 2 369 1 c 128,-1,26
 368 0 368 0 367 0 c 2,27,-1
 3 0 l 2,28,29
 2 0 2 0 1 1 c 128,-1,30
 0 2 0 2 0 3 c 2,31,-1
 0 1832 l 2,32,33
 0 1833 0 1833 1 1834 c 128,-1,34
 2 1835 2 1835 3 1835 c 2,35,-1
 1009 1835 l 2,36,37
 1199 1835 1199 1835 1334 1700 c 128,-1,38
 1469 1565 1469 1565 1469 1375 c 2,0,-1
1009 1465 m 2,39,-1
 373 1465 l 2,40,41
 372 1465 372 1465 371.5 1465 c 128,-1,42
 371 1465 371 1465 371 1464 c 1,43,-1
 370 1464 l 2,44,45
 370 1462 l 2,46,-1
 370 1462 l 1,47,-1
 370 1106 l 2,48,49
 370 1105 370 1105 371 1103 c 1,50,-1
 372 1103 l 2,51,52
 372 1102.5 l 0,53,-1
 372 1102 l 2,54,-1
 373 1102 l 1,55,-1
 1009 1102 l 2,56,57
 1027 1102 1027 1102 1043.5 1109 c 128,-1,58
 1060 1116 1060 1116 1073 1129 c 0,59,60
 1077 1133 1077 1133 1080.5 1137.5 c 128,-1,61
 1084 1142 1084 1142 1087 1147 c 128,-1,62
 1090 1152 1090 1152 1092 1158 c 0,63,64
 1095 1166 1095 1166 1097 1174.5 c 128,-1,65
 1099 1183 1099 1183 1099 1192 c 2,66,-1
 1099 1375 l 2,67,68
 1099 1387 1099 1387 1096 1398.5 c 128,-1,69
 1093 1410 1093 1410 1087.5 1420 c 128,-1,70
 1082 1430 1082 1430 1073 1439 c 0,71,72
 1060 1452 1060 1452 1044 1458.5 c 128,-1,73
 1028 1465 1028 1465 1009 1465 c 2,39,-1
EndSplineSet
EndChar

StartChar: Q
Encoding: 81 81 21
Width: 1596
VWidth: -3
Flags: W
LayerCount: 2
Fore
SplineSet
972 753 m 2,0,-1
 973 753 l 2,1,2
 974 753 974 753 976 753 c 1,3,-1
 1095 694 l 2,4,5
 1096 693 1096 693 1097 693 c 128,-1,6
 1098 693 1098 693 1098 694 c 2,7,-1
 1099 695 l 1,8,-1
 1099 696 l 1,9,-1
 1099 696 l 1,10,-1
 1099 1375 l 2,11,12
 1099 1393 1099 1393 1092.5 1409.5 c 128,-1,13
 1086 1426 1086 1426 1073 1439 c 0,14,15
 1069 1443 1069 1443 1064 1447 c 128,-1,16
 1059 1451 1059 1451 1054 1453.5 c 128,-1,17
 1049 1456 1049 1456 1044 1459 c 1,18,19
 1036 1462 1036 1462 1027.5 1463.5 c 128,-1,20
 1019 1465 1019 1465 1009 1465 c 2,21,-1
 460 1465 l 2,22,23
 441 1465 441 1465 425 1458.5 c 128,-1,24
 409 1452 409 1452 396 1439 c 0,25,26
 389 1432 389 1432 384.5 1425 c 128,-1,27
 380 1418 380 1418 376 1410 c 0,28,29
 374 1406 374 1406 373 1402 c 128,-1,30
 372 1398 372 1398 372 1393 c 1,31,32
 371 1390 371 1390 370.5 1387.5 c 128,-1,33
 370 1385 370 1385 370 1381.5 c 128,-1,34
 370 1378 370 1378 370 1375 c 2,35,-1
 370 460 l 2,36,37
 370 448 370 448 373 436.5 c 128,-1,38
 376 425 376 425 381.5 415 c 128,-1,39
 387 405 387 405 396 396 c 0,40,41
 403 389 403 389 410 385 c 0,42,43
 414 383 414 383 417.5 380.5 c 128,-1,44
 421 378 421 378 425 376 c 0,45,46
 433 373 433 373 442 371 c 0,47,48
 446 370 446 370 450.5 370 c 128,-1,49
 455 370 455 370 460 370 c 2,50,-1
 1009 370 l 2,51,52
 1015 370 1015 370 1021.5 370.5 c 128,-1,53
 1028 371 1028 371 1034 373 c 128,-1,54
 1040 375 1040 375 1045.5 377.5 c 128,-1,55
 1051 380 1051 380 1056 383 c 0,56,57
 1057 384 1057 384 1058 385 c 1,58,59
 1058 386 1058 386 1058 386.5 c 128,-1,60
 1058 387 1058 387 1057.5 387.5 c 128,-1,61
 1057 388 1057 388 1056 389 c 2,62,-1
 845 494 l 2,63,64
 844 494 844 494 843.5 495 c 128,-1,65
 843 496 843 496 843 496.5 c 128,-1,66
 843 497 843 497 844 498 c 2,67,-1
 970 751 l 2,68,69
 971 753 971 753 972 753 c 2,0,-1
1471 506 m 1,70,-1
 1594 444 l 2,71,72
 1595 443 1595 443 1595.5 441.5 c 128,-1,73
 1596 440 1596 440 1596 439 c 2,74,-1
 1469 185 l 2,75,76
 1469 184 1469 184 1468 184 c 128,-1,77
 1467 184 1467 184 1466.5 184 c 128,-1,78
 1466 184 1466 184 1465 184 c 2,79,-1
 1402 215 l 2,80,81
 1401 216 1401 216 1400 216 c 1,82,-1
 1400 216 l 2,83,84
 1399 215.5 l 0,85,86
 1398 215 1398 215 1398 214 c 1,87,88
 1375 178 1375 178 1349.5 148.5 c 128,-1,89
 1324 119 1324 119 1295 95 c 128,-1,90
 1266 71 1266 71 1233.5 53.5 c 128,-1,91
 1201 36 1201 36 1165 24 c 0,92,93
 1094 0 1094 0 1009 0 c 2,94,-1
 460 0 l 2,95,96
 270 0 270 0 135 134.5 c 128,-1,97
 0 269 0 269 0 460 c 2,98,-1
 0 1375 l 2,99,100
 0 1470 0 1470 33.5 1551.5 c 128,-1,101
 67 1633 67 1633 134.5 1700.5 c 128,-1,102
 202 1768 202 1768 283.5 1801.5 c 128,-1,103
 365 1835 365 1835 460 1835 c 2,104,-1
 1009 1835 l 2,105,106
 1041 1835 1041 1835 1071 1831.5 c 128,-1,107
 1101 1828 1101 1828 1130 1820.5 c 128,-1,108
 1159 1813 1159 1813 1186 1801 c 1,109,110
 1227 1784 1227 1784 1264 1759 c 128,-1,111
 1301 1734 1301 1734 1334 1700 c 1,112,113
 1401 1633 1401 1633 1435 1552 c 128,-1,114
 1469 1471 1469 1471 1469 1375 c 2,115,-1
 1469 508 l 1,116,-1
 1469 507 l 1,117,-1
 1470 506 l 1,118,-1
 1470 506 l 1,119,-1
 1471 506 l 1,70,-1
EndSplineSet
EndChar

StartChar: R
Encoding: 82 82 22
Width: 1469
VWidth: -3
Flags: W
LayerCount: 2
Fore
SplineSet
1099 1192 m 2,0,-1
 1099 1375 l 2,1,2
 1099 1381 1099 1381 1098.5 1387 c 128,-1,3
 1098 1393 1098 1393 1096 1399 c 0,4,5
 1093 1410 1093 1410 1087 1420.5 c 128,-1,6
 1081 1431 1081 1431 1073 1439 c 128,-1,7
 1065 1447 1065 1447 1054 1453 c 0,8,9
 1044 1459 1044 1459 1032.5 1462 c 128,-1,10
 1021 1465 1021 1465 1009 1465 c 2,11,-1
 373 1465 l 2,12,13
 372 1465 372 1465 371.5 1465 c 128,-1,14
 371 1465 371 1465 371 1464 c 1,15,-1
 370 1464 l 2,16,17
 370 1462 l 2,18,-1
 370 1462 l 1,19,-1
 370 1106 l 2,20,21
 370 1105 370 1105 371 1103 c 1,22,-1
 372 1103 l 2,23,24
 372 1102.5 l 0,25,-1
 372 1102 l 2,26,-1
 373 1102 l 1,27,-1
 1009 1102 l 2,28,29
 1028 1102 1028 1102 1044 1109 c 128,-1,30
 1060 1116 1060 1116 1073 1129 c 128,-1,31
 1086 1142 1086 1142 1092.5 1157.5 c 128,-1,32
 1099 1173 1099 1173 1099 1192 c 2,0,-1
1465 0 m 1,33,-1
 1058 1 l 2,34,35
 1056 1 1056 1 1055 2 c 2,36,-1
 691 731 l 2,37,38
 690 732 690 732 689.5 732.5 c 128,-1,39
 689 733 689 733 688 733 c 2,40,-1
 373 733 l 2,41,42
 372 733 372 733 371 732 c 1,43,44
 370 732 370 732 370 730 c 2,45,-1
 370 3 l 2,46,47
 370 2 370 2 369 1 c 128,-1,48
 368 0 368 0 367 0 c 2,49,-1
 3 0 l 2,50,51
 2 0 2 0 1 1 c 128,-1,52
 0 2 0 2 0 3 c 2,53,-1
 0 1832 l 2,54,55
 0 1833 0 1833 1 1834 c 128,-1,56
 2 1835 2 1835 3 1835 c 2,57,-1
 1009 1835 l 2,58,59
 1041 1835 1041 1835 1071 1831.5 c 128,-1,60
 1101 1828 1101 1828 1130 1820.5 c 128,-1,61
 1159 1813 1159 1813 1186 1801 c 1,62,63
 1227 1784 1227 1784 1264 1759 c 128,-1,64
 1301 1734 1301 1734 1334 1700 c 1,65,66
 1401 1633 1401 1633 1435 1552 c 128,-1,67
 1469 1471 1469 1471 1469 1375 c 2,68,-1
 1469 1192 l 2,69,70
 1469 1174 1469 1174 1467.5 1156.5 c 128,-1,71
 1466 1139 1466 1139 1463.5 1122 c 128,-1,72
 1461 1105 1461 1105 1457 1088 c 0,73,74
 1454 1075 1454 1075 1450.5 1062.5 c 128,-1,75
 1447 1050 1447 1050 1442.5 1038 c 128,-1,76
 1438 1026 1438 1026 1433 1013.5 c 128,-1,77
 1428 1001 1428 1001 1422 990 c 1,78,79
 1399 942 1399 942 1366.5 902 c 128,-1,80
 1334 862 1334 862 1292 829.5 c 128,-1,81
 1250 797 1250 797 1203 775 c 0,82,83
 1187 768 1187 768 1170.5 762 c 128,-1,84
 1154 756 1154 756 1137.5 751 c 128,-1,85
 1121 746 1121 746 1103 742 c 0,86,87
 1102 742 1102 742 1101.5 742 c 128,-1,88
 1101 742 1101 742 1101 741 c 1,89,90
 1100 740 1100 740 1101 738 c 2,91,-1
 1468 5 l 2,92,93
 1469 4 1469 4 1468.5 2.5 c 128,-1,94
 1468 1 1468 1 1466 0 c 1,95,-1
 1465 0 l 1,33,-1
EndSplineSet
EndChar

StartChar: S
Encoding: 83 83 23
Width: 1469
VWidth: -3
Flags: W
LayerCount: 2
Fore
SplineSet
1009 0 m 2,0,-1
 460 0 l 2,1,2
 270 0 270 0 135 134.5 c 128,-1,3
 0 269 0 269 0 460 c 2,4,-1
 0 550 l 2,5,6
 0 551 0 551 1 552 c 128,-1,7
 2 553 2 553 3 553 c 2,8,-1
 367 553 l 2,9,10
 368 553 368 553 369 552 c 128,-1,11
 370 551 370 551 370 550 c 2,12,-1
 370 460 l 2,13,14
 370 455 370 455 370 450 c 0,15,16
 370 449 370 449 370.5 448 c 128,-1,17
 371 447 371 447 371 445.5 c 128,-1,18
 371 444 371 444 371.5 443 c 128,-1,19
 372 442 372 442 372 441 c 0,20,21
 373 436 373 436 374 432 c 0,22,23
 374 431 374 431 374.5 430 c 128,-1,24
 375 429 375 429 375.5 428 c 128,-1,25
 376 427 376 427 376 426.5 c 128,-1,26
 376 426 376 426 376.5 425 c 128,-1,27
 377 424 377 424 378 423 c 0,28,29
 380 419 380 419 382 415 c 0,30,31
 394 394 394 394 415 382 c 0,32,33
 417 381 417 381 418.5 380 c 128,-1,34
 420 379 420 379 421.5 378 c 128,-1,35
 423 377 423 377 425 376.5 c 128,-1,36
 427 376 427 376 429 375 c 0,37,38
 433 374 433 374 436.5 373 c 128,-1,39
 440 372 440 372 444 371 c 0,40,41
 452 370 452 370 460 370 c 2,42,-1
 1009 370 l 2,43,44
 1021 370 1021 370 1033 373 c 0,45,46
 1039 374 1039 374 1044 376.5 c 128,-1,47
 1049 379 1049 379 1054 381 c 1,48,49
 1064 387 1064 387 1073 396 c 0,50,51
 1080 403 1080 403 1084.5 410 c 128,-1,52
 1089 417 1089 417 1092 425 c 0,53,54
 1099 441 1099 441 1099 460 c 2,55,-1
 1099 643 l 2,56,57
 1099 680 1099 680 1072.5 706.5 c 128,-1,58
 1046 733 1046 733 1009 733 c 2,59,-1
 460 733 l 2,60,61
 270 733 270 733 135 867.5 c 128,-1,62
 0 1002 0 1002 0 1192 c 2,63,-1
 0 1375 l 2,64,65
 0 1470 0 1470 33.5 1551.5 c 128,-1,66
 67 1633 67 1633 134.5 1700.5 c 128,-1,67
 202 1768 202 1768 283.5 1801.5 c 128,-1,68
 365 1835 365 1835 460 1835 c 2,69,-1
 1009 1835 l 2,70,71
 1057 1835 1057 1835 1101 1827 c 128,-1,72
 1145 1819 1145 1819 1185.5 1802 c 128,-1,73
 1226 1785 1226 1785 1263.5 1759.5 c 128,-1,74
 1301 1734 1301 1734 1334 1700 c 1,75,76
 1401 1633 1401 1633 1435 1552 c 128,-1,77
 1469 1471 1469 1471 1469 1375 c 2,78,-1
 1469 1285 l 2,79,80
 1469 1284 1469 1284 1468 1283 c 128,-1,81
 1467 1282 1467 1282 1466 1282 c 2,82,-1
 1102 1282 l 2,83,84
 1101 1282 1101 1282 1100 1283 c 128,-1,85
 1099 1284 1099 1284 1099 1285 c 2,86,-1
 1099 1375 l 2,87,88
 1099 1381 1099 1381 1098.5 1387 c 128,-1,89
 1098 1393 1098 1393 1096 1399 c 0,90,91
 1093 1410 1093 1410 1087 1420.5 c 128,-1,92
 1081 1431 1081 1431 1073 1439 c 128,-1,93
 1065 1447 1065 1447 1054 1453 c 0,94,95
 1044 1459 1044 1459 1032.5 1462 c 128,-1,96
 1021 1465 1021 1465 1009 1465 c 2,97,-1
 460 1465 l 2,98,99
 459 1465 459 1465 458 1465 c 128,-1,100
 457 1465 457 1465 456 1465 c 128,-1,101
 455 1465 455 1465 454 1465 c 128,-1,102
 453 1465 453 1465 452 1465 c 128,-1,103
 451 1465 451 1465 450 1465 c 128,-1,104
 449 1465 449 1465 448 1464 c 1,105,106
 445 1464 445 1464 442 1463.5 c 128,-1,107
 439 1463 439 1463 436 1462 c 0,108,109
 430 1460 430 1460 425 1458 c 128,-1,110
 420 1456 420 1456 415 1453 c 0,111,112
 394 1441 394 1441 382 1420.5 c 128,-1,113
 370 1400 370 1400 370 1375 c 2,114,-1
 370 1192 l 2,115,116
 370 1186 370 1186 370.5 1180 c 128,-1,117
 371 1174 371 1174 372.5 1168.5 c 128,-1,118
 374 1163 374 1163 376.5 1157.5 c 128,-1,119
 379 1152 379 1152 382 1147 c 0,120,121
 383 1145 383 1145 384.5 1142.5 c 128,-1,122
 386 1140 386 1140 388 1138 c 0,123,124
 392 1133 392 1133 396 1129 c 0,125,126
 398 1127 398 1127 400 1125.5 c 128,-1,127
 402 1124 402 1124 403.5 1122.5 c 128,-1,128
 405 1121 405 1121 407 1119.5 c 128,-1,129
 409 1118 409 1118 411 1116.5 c 128,-1,130
 413 1115 413 1115 415 1114 c 0,131,132
 420 1111 420 1111 425.5 1109 c 128,-1,133
 431 1107 431 1107 436 1105 c 1,134,135
 447 1102 447 1102 460 1102 c 2,136,-1
 1009 1102 l 2,137,138
 1057 1102 1057 1102 1101 1094 c 128,-1,139
 1145 1086 1145 1086 1186 1069 c 0,140,141
 1200 1063 1200 1063 1213 1056.5 c 128,-1,142
 1226 1050 1226 1050 1238.5 1042.5 c 128,-1,143
 1251 1035 1251 1035 1263 1027 c 0,144,145
 1300 1002 1300 1002 1334 968 c 0,146,147
 1401 901 1401 901 1435 819.5 c 128,-1,148
 1469 738 1469 738 1469 643 c 2,149,-1
 1469 460 l 2,150,151
 1469 270 1469 270 1334 135 c 128,-1,152
 1199 0 1199 0 1009 0 c 2,0,-1
EndSplineSet
EndChar

StartChar: T
Encoding: 84 84 24
Width: 1469
VWidth: -3
Flags: W
LayerCount: 2
Fore
SplineSet
1469 1827 m 2,0,-1
 1469 1473 l 2,1,2
 1469 1472 1469 1472 1468.5 1471.5 c 0,3,4
 1468 1470 1468 1470 1467 1470 c 2,5,-1
 1466 1470 l 1,6,-1
 922 1465 l 2,7,8
 921 1465 921 1465 920 1464 c 128,-1,9
 919 1463 919 1463 919 1462 c 2,10,-1
 919 3 l 2,11,12
 919 2 919 2 918 1 c 128,-1,13
 917 0 917 0 916 0 c 2,14,-1
 558 0 l 2,15,16
 557 0 557 0 556.5 0 c 128,-1,17
 556 0 556 0 555.5 0.5 c 128,-1,18
 555 1 555 1 555 1.5 c 0,19,-1
 554 2 l 2,20,-1
 554 3 l 1,21,-1
 550 1462 l 2,22,-1
 550 1464 l 2,23,-1
 549 1464 l 1,24,25
 549 1465 549 1465 547 1465 c 2,26,-1
 8 1465 l 2,27,28
 7 1465 7 1465 6.5 1465.5 c 128,-1,29
 6 1466 6 1466 5.5 1466.5 c 0,30,-1
 5 1468 l 2,31,-1
 5 1468 l 1,32,-1
 0 1827 l 2,33,34
 0 1828 0 1828 1 1829 c 128,-1,35
 2 1830 2 1830 3 1830 c 2,36,-1
 1466 1830 l 2,37,38
 1467 1830 1467 1830 1468 1829 c 128,-1,39
 1469 1828 1469 1828 1469 1827 c 2,0,-1
EndSplineSet
EndChar

StartChar: U
Encoding: 85 85 25
Width: 1469
VWidth: -3
Flags: W
LayerCount: 2
Fore
SplineSet
3 1835 m 2,0,-1
 367 1835 l 2,1,2
 368 1835 368 1835 369 1834 c 128,-1,3
 370 1833 370 1833 370 1832 c 2,4,-1
 370 734 l 2,5,6
 370 696 370 696 376.5 661 c 128,-1,7
 383 626 383 626 396.5 594 c 128,-1,8
 410 562 410 562 430 532 c 0,9,10
 437 522 437 522 444 513 c 128,-1,11
 451 504 451 504 459.5 494.5 c 128,-1,12
 468 485 468 485 477 476 c 0,13,14
 513 440 513 440 553 416.5 c 0,15,16
 592 394 592 394 638 382 c 128,-1,17
 684 370 684 370 735 370 c 0,18,19
 886 370 886 370 992 476 c 0,20,21
 1045 529 1045 529 1072 594 c 128,-1,22
 1099 659 1099 659 1099 734 c 2,23,-1
 1099 1832 l 2,24,25
 1099 1833 1099 1833 1100 1834 c 128,-1,26
 1101 1835 1101 1835 1102 1835 c 2,27,-1
 1466 1835 l 2,28,29
 1467 1835 1467 1835 1468 1834 c 128,-1,30
 1469 1833 1469 1833 1469 1832 c 2,31,-1
 1469 734 l 2,32,33
 1469 535 1469 535 1371 366 c 0,34,35
 1322 281 1322 281 1255 214 c 128,-1,36
 1188 147 1188 147 1103 98 c 1,37,38
 935 0 935 0 735 0 c 0,39,40
 431 0 431 0 215 215 c 0,41,42
 108 322 108 322 54 452 c 128,-1,43
 0 582 0 582 0 734 c 2,44,-1
 0 1832 l 2,45,46
 0 1833 0 1833 1 1834 c 128,-1,47
 2 1835 2 1835 3 1835 c 2,0,-1
EndSplineSet
EndChar

StartChar: V
Encoding: 86 86 26
Width: 1467
VWidth: -3
Flags: W
LayerCount: 2
Fore
SplineSet
1 1834 m 1,0,1
 2 1835 2 1835 3 1835 c 2,2,-1
 366 1835 l 1,3,-1
 367 1835 l 2,4,5
 368 1835 368 1835 368 1834.5 c 128,-1,6
 368 1834 368 1834 369 1834 c 1,7,-1
 369 1834 l 2,8,9
 369 1832 l 2,10,-1
 731 628 l 1,11,-1
 731 627 l 1,12,-1
 732 626 l 2,13,14
 733 625 733 625 735 626 c 1,15,-1
 735 626 l 2,16,17
 736 627 l 1,18,-1
 736 628 l 1,19,-1
 736 628 l 1,20,-1
 1098 1832 l 1,21,-1
 1098 1834 l 1,22,23
 1099 1835 1099 1835 1101 1835 c 2,24,-1
 1464 1835 l 2,25,26
 1465 1835 1465 1835 1465.5 1834.5 c 128,-1,27
 1466 1834 1466 1834 1466.5 1833.5 c 128,-1,28
 1467 1833 1467 1833 1467 1832.5 c 128,-1,29
 1467 1832 1467 1832 1467 1831 c 2,30,-1
 919 3 l 1,31,32
 919 1 919 1 916 1 c 2,33,-1
 553 0 l 2,34,35
 551 0 551 0 550 2 c 2,36,-1
 0 1831 l 1,37,-1
 1 1834 l 1,0,1
EndSplineSet
EndChar

StartChar: W
Encoding: 87 87 27
Width: 1469
VWidth: -3
Flags: W
LayerCount: 2
Fore
SplineSet
552 1 m 1,0,-1
 551 0 l 1,1,-1
 550 0 l 1,2,-1
 187 0 l 1,3,-1
 186 0 l 1,4,-1
 185 1 l 1,5,-1
 184 1 l 1,6,7
 183 2 183 2 183 4 c 2,8,-1
 0 1831 l 2,9,10
 0 1833 0 1833 2 1835 c 1,11,-1
 3 1835 l 1,12,-1
 367 1835 l 2,13,14
 368 1835 368 1835 368.5 1834.5 c 128,-1,15
 369 1834 369 1834 369.5 1833.5 c 128,-1,16
 370 1833 370 1833 370 1832 c 2,17,-1
 480 731 l 1,18,-1
 480 730 l 2,19,20
 480 728 480 728 481 728 c 2,21,-1
 482 728 l 2,22,23
 483 728 483 728 484 728 c 128,-1,24
 485 728 485 728 485 728.5 c 128,-1,25
 485 729 485 729 486 730 c 2,26,-1
 732 1190 l 2,27,28
 733 1191 733 1191 734 1191.5 c 128,-1,29
 735 1192 735 1192 736 1192 c 1,30,-1
 736 1192 l 2,31,32
 737 1190 l 2,33,-1
 983 730 l 1,34,-1
 984 730 l 1,35,-1
 984 729 l 1,36,37
 985 729 985 729 986 728 c 1,38,39
 987 728 987 728 987 729 c 1,40,41
 988 730 988 730 989 731 c 1,42,-1
 1099 1832 l 2,43,44
 1099 1834 1099 1834 1101 1835 c 1,45,-1
 1466 1835 l 2,46,47
 1467 1835 1467 1835 1468 1834 c 128,-1,48
 1469 1833 1469 1833 1469 1831 c 2,49,-1
 1286 3 l 1,50,-1
 1286 2 l 2,51,52
 1286 1 1286 1 1285 1 c 128,-1,53
 1284 1 1284 1 1284 0.5 c 128,-1,54
 1284 0 1284 0 1283 0 c 2,55,-1
 919 0 l 1,56,-1
 918 0 l 1,57,-1
 918 0 l 1,58,-1
 916 1 l 2,59,60
 915 1 915 1 915 2 c 2,61,-1
 737 359 l 2,62,63
 736 360 736 360 735 360 c 128,-1,64
 734 360 734 360 733 360 c 128,-1,65
 732 360 732 360 732 359 c 2,66,-1
 554 2 l 1,67,-1
 552 1 l 1,0,-1
EndSplineSet
EndChar

StartChar: X
Encoding: 88 88 28
Width: 1467
VWidth: -3
Flags: W
LayerCount: 2
Fore
SplineSet
1 5 m 1,0,-1
 524 916 l 2,1,2
 525 918 525 918 524 919 c 2,3,-1
 1 1830 l 2,4,5
 0 1831 0 1831 0.5 1832.5 c 128,-1,6
 1 1834 1 1834 2 1834 c 1,7,-1
 3 1835 l 1,8,-1
 411 1835 l 2,9,10
 413 1835 413 1835 414 1833 c 2,11,-1
 731 1284 l 1,12,-1
 732 1284 l 1,13,-1
 732 1283 l 1,14,15
 733 1283 733 1283 734 1282 c 1,16,-1
 734 1282 l 1,17,-1
 735 1283 l 1,18,19
 736 1283 736 1283 736 1284 c 2,20,-1
 1052 1833 l 2,21,22
 1052 1834 1052 1834 1053 1834 c 2,23,-1
 1054 1834 l 2,24,25
 1055 1834 1055 1834 1056 1835 c 1,26,-1
 1464 1835 l 2,27,28
 1465 1835 1465 1835 1466 1834 c 128,-1,29
 1467 1833 1467 1833 1467 1832 c 2,30,-1
 1467 1831 l 2,31,32
 1467 1830 1467 1830 1466 1830 c 1,33,-1
 942 919 l 2,34,35
 941 917 941 917 942 916 c 2,36,-1
 1466 5 l 1,37,-1
 1466 4 l 2,38,39
 1466 3 1466 3 1466 2.5 c 128,-1,40
 1466 2 1466 2 1466 1.5 c 128,-1,41
 1466 1 1466 1 1465.5 0.5 c 128,-1,42
 1465 0 1465 0 1464 0 c 2,43,-1
 1056 0 l 2,44,45
 1055 0 1055 0 1054 0 c 1,46,-1
 1053 1 l 1,47,-1
 1052 2 l 1,48,-1
 1052 2 l 1,49,-1
 736 551 l 1,50,-1
 736 552 l 2,51,52
 735 552 l 2,53,-1
 734 552 l 1,54,-1
 733 552 l 1,55,-1
 732 552 l 1,56,-1
 732 552 l 2,57,58
 731 552 731 552 731 551 c 2,59,-1
 498 145 l 1,60,-1
 498 145 l 1,61,-1
 497 145 l 1,62,-1
 497 144 l 1,63,-1
 497 143 l 1,64,-1
 497 142 l 2,65,66
 498 142 l 1,67,-1
 498 142 l 2,68,69
 499 141 l 2,70,-1
 500 141 l 1,71,-1
 595 141 l 2,72,73
 596 141 596 141 597 140 c 1,74,75
 598 140 598 140 598 138 c 2,76,-1
 598 3 l 2,77,78
 598 2 598 2 597 1 c 128,-1,79
 596 0 596 0 595 0 c 2,80,-1
 3 0 l 2,81,82
 1 0 1 0 0 2 c 1,83,-1
 1 5 l 1,0,-1
EndSplineSet
EndChar

StartChar: Y
Encoding: 89 89 29
Width: 1467
VWidth: -3
Flags: W
LayerCount: 2
Fore
SplineSet
3 1835 m 1,0,-1
 367 1834 l 2,1,2
 368 1834 l 2,3,-1
 369 1833 l 1,4,-1
 731 1110 l 2,5,6
 731 1109 731 1109 731.5 1109 c 128,-1,7
 732 1109 732 1109 733 1109 c 128,-1,8
 734 1109 734 1109 734 1108.5 c 0,9,-1
 734 1108 l 2,10,-1
 735 1109 l 1,11,-1
 736 1109 l 1,12,-1
 736 1110 l 1,13,-1
 1098 1833 l 2,14,15
 1098 1834 1098 1834 1099 1834 c 1,16,-1
 1100 1835 l 1,17,18
 1101 1835 1101 1835 1102 1835 c 2,19,-1
 1464 1835 l 2,20,21
 1465 1835 1465 1835 1466 1834 c 128,-1,22
 1467 1833 1467 1833 1467 1832 c 128,-1,23
 1467 1831 1467 1831 1467 1830 c 2,24,-1
 919 735 l 1,25,-1
 918 734 l 1,26,-1
 918 734 l 1,27,-1
 918 733 l 1,28,-1
 918 3 l 2,29,30
 918 2 918 2 917 1 c 128,-1,31
 916 0 916 0 915 0 c 2,32,-1
 552 0 l 2,33,34
 551 0 551 0 550 1 c 128,-1,35
 549 2 549 2 549 3 c 2,36,-1
 549 733 l 1,37,-1
 549 734 l 2,38,39
 548.5 734 l 0,40,41
 548 734 548 734 548 735 c 2,42,-1
 0 1830 l 2,43,44
 0 1831 0 1831 0 1831.5 c 128,-1,45
 0 1832 0 1832 0 1832.5 c 128,-1,46
 0 1833 0 1833 0.5 1833.5 c 128,-1,47
 1 1834 1 1834 2 1835 c 1,48,-1
 3 1835 l 1,0,-1
EndSplineSet
EndChar

StartChar: Z
Encoding: 90 90 30
Width: 1469
VWidth: -3
Flags: W
LayerCount: 2
Fore
SplineSet
998 1465 m 1,0,-1
 3 1465 l 2,1,2
 2 1465 2 1465 1 1466 c 128,-1,3
 0 1467 0 1467 0 1468 c 2,4,-1
 0 1832 l 2,5,6
 0 1833 0 1833 1 1834 c 128,-1,7
 2 1835 2 1835 3 1835 c 2,8,-1
 1466 1835 l 2,9,10
 1467 1835 1467 1835 1468 1834 c 128,-1,11
 1469 1833 1469 1833 1469 1832 c 2,12,-1
 1469 1468 l 1,13,-1
 1469 1467 l 1,14,-1
 1468 1466 l 1,15,-1
 1468 1465 l 1,16,-1
 468 375 l 2,17,18
 467 374 467 374 467.5 372.5 c 128,-1,19
 468 371 468 371 469 370 c 1,20,-1
 470 370 l 2,21,22
 471 370 l 2,23,-1
 1466 370 l 2,24,25
 1467 370 1467 370 1468 369 c 128,-1,26
 1469 368 1469 368 1469 367 c 2,27,-1
 1469 3 l 2,28,29
 1469 2 1469 2 1468 1 c 128,-1,30
 1467 0 1467 0 1466 0 c 2,31,-1
 3 0 l 2,32,33
 2 0 2 0 1 1 c 128,-1,34
 0 2 0 2 0 3 c 2,35,-1
 0 367 l 2,36,37
 0 368 0 368 1 369 c 2,38,-1
 1001 1460 l 1,39,-1
 1001 1461 l 1,40,-1
 1001 1462 l 1,41,-1
 1001 1463 l 1,42,-1
 1000 1464 l 2,43,44
 1000 1464.5 l 0,45,-1
 1000 1465 l 2,46,-1
 999 1465 l 1,47,-1
 998 1465 l 1,0,-1
EndSplineSet
EndChar

StartChar: colon
Encoding: 58 58 31
Width: 925
VWidth: -3
Flags: W
LayerCount: 2
Fore
SplineSet
845 1377 m 2,0,1
 850 1377 850 1377 855 1376.5 c 128,-1,2
 860 1376 860 1376 865 1375 c 0,3,4
 875 1372 875 1372 883 1367 c 0,5,6
 892 1362 892 1362 899 1355 c 128,-1,7
 906 1348 906 1348 912 1339 c 0,8,9
 922 1321 922 1321 922 1300 c 2,10,-1
 922 1147 l 2,11,12
 922 1115 922 1115 899.5 1092.5 c 128,-1,13
 877 1070 877 1070 845 1070 c 2,14,-1
 692 1070 l 2,15,16
 676 1070 676 1070 662 1075 c 0,17,18
 655 1078 655 1078 649 1082.5 c 128,-1,19
 643 1087 643 1087 637 1092 c 0,20,21
 626 1103 626 1103 620 1117 c 128,-1,22
 614 1131 614 1131 614 1147 c 2,23,-1
 614 1300 l 2,24,25
 614 1321 614 1321 625 1339 c 0,26,27
 630 1348 630 1348 637 1355 c 0,28,29
 644 1362 644 1362 653 1367 c 0,30,31
 659 1370 659 1370 665 1372.5 c 128,-1,32
 671 1375 671 1375 678 1376 c 128,-1,33
 685 1377 685 1377 692 1377 c 2,34,-1
 845 1377 l 2,0,1
845 613 m 2,35,36
 861 613 861 613 874 608 c 0,37,38
 881 605 881 605 887.5 600.5 c 128,-1,39
 894 596 894 596 899 590 c 0,40,41
 910 579 910 579 916 565.5 c 128,-1,42
 922 552 922 552 922 536 c 2,43,-1
 922 383 l 2,44,45
 922 351 922 351 899.5 328.5 c 128,-1,46
 877 306 877 306 845 306 c 2,47,-1
 692 306 l 2,48,49
 687 306 687 306 681.5 306.5 c 128,-1,50
 676 307 676 307 671.5 308 c 128,-1,51
 667 309 667 309 662 311 c 128,-1,52
 657 313 657 313 653 315.5 c 128,-1,53
 649 318 649 318 645 321 c 128,-1,54
 641 324 641 324 637 328 c 0,55,56
 626 339 626 339 620 353 c 128,-1,57
 614 367 614 367 614 383 c 2,58,-1
 614 536 l 2,59,60
 614 541 614 541 615 546 c 128,-1,61
 616 551 616 551 617 556 c 0,62,63
 619 566 619 566 625 574 c 0,64,65
 630 583 630 583 637 590 c 0,66,67
 643 596 643 596 649 600.5 c 128,-1,68
 655 605 655 605 662 607.5 c 128,-1,69
 669 610 669 610 676.5 611.5 c 128,-1,70
 684 613 684 613 692 613 c 2,71,-1
 845 613 l 2,35,36
3 3 m 2,72,-1
 3 152 l 2,73,74
 3 153 3 153 4 154 c 128,-1,75
 5 155 5 155 6 155 c 2,76,-1
 155 155 l 2,77,78
 156 155 156 155 157 154 c 128,-1,79
 158 153 158 153 158 152 c 2,80,-1
 158 3 l 2,81,82
 158 2 158 2 157 1 c 128,-1,83
 156 0 156 0 155 0 c 2,84,-1
 6 0 l 2,85,86
 5 0 5 0 4 1 c 128,-1,87
 3 2 3 2 3 3 c 2,72,-1
EndSplineSet
EndChar

StartChar: semicolon
Encoding: 59 59 32
Width: 925
VWidth: -3
Flags: W
LayerCount: 2
Fore
SplineSet
845 1377 m 2,0,1
 861 1377 861 1377 874.5 1371.5 c 128,-1,2
 888 1366 888 1366 899 1355 c 0,3,4
 905 1349 905 1349 909 1342.5 c 128,-1,5
 913 1336 913 1336 916 1330 c 0,6,7
 922 1316 922 1316 922 1300 c 2,8,-1
 922 1147 l 2,9,10
 922 1115 922 1115 899.5 1092.5 c 128,-1,11
 877 1070 877 1070 845 1070 c 2,12,-1
 692 1070 l 2,13,14
 676 1070 676 1070 662 1075 c 0,15,16
 655 1078 655 1078 649 1082.5 c 128,-1,17
 643 1087 643 1087 637 1092 c 0,18,19
 626 1103 626 1103 620 1117 c 128,-1,20
 614 1131 614 1131 614 1147 c 2,21,-1
 614 1300 l 2,22,23
 614 1321 614 1321 625 1339 c 0,24,25
 630 1348 630 1348 637 1355 c 128,-1,26
 644 1362 644 1362 653 1367 c 0,27,28
 659 1370 659 1370 665 1372.5 c 128,-1,29
 671 1375 671 1375 678 1376 c 128,-1,30
 685 1377 685 1377 692 1377 c 2,31,-1
 845 1377 l 2,0,1
485 96 m 0,32,-1
 485 96 l 1,33,-1
 600 555 l 2,34,35
 602 565 602 565 606 573 c 128,-1,36
 610 581 610 581 615 587.5 c 128,-1,37
 620 594 620 594 626 599 c 0,38,39
 644 613 644 613 675 613 c 2,40,-1
 823 613 l 2,41,42
 861 613 861 613 884 583.5 c 128,-1,43
 907 554 907 554 898 517 c 2,44,-1
 799 122 l 2,45,46
 798 119 798 119 797.5 116.5 c 128,-1,47
 797 114 797 114 796 111 c 0,48,49
 794 106 794 106 791 101 c 0,50,51
 790 99 790 99 789 98 c 128,-1,52
 788 97 788 97 787 95.5 c 128,-1,53
 786 94 786 94 785 92 c 0,54,55
 783 90 783 90 781.5 88 c 128,-1,56
 780 86 780 86 778 84 c 0,57,58
 777 83 777 83 776 82.5 c 128,-1,59
 775 82 775 82 773.5 81 c 128,-1,60
 772 80 772 80 771 79 c 128,-1,61
 770 78 770 78 769 77 c 0,62,63
 764 74 764 74 759 72 c 2,64,-1
 632 8 l 2,65,66
 624 4 624 4 615 2 c 0,67,68
 613 1 613 1 611 1 c 128,-1,69
 609 1 609 1 606.5 0.5 c 128,-1,70
 604 0 604 0 602 0 c 128,-1,71
 600 0 600 0 597 0 c 2,72,-1
 560 0 l 2,73,74
 522 0 522 0 499 30 c 128,-1,75
 476 60 476 60 485 95 c 0,76,-1
 485 95.5 l 0,77,-1
 485 96 l 0,32,-1
3 3 m 2,78,-1
 3 152 l 2,79,80
 3 153 3 153 4 154 c 128,-1,81
 5 155 5 155 6 155 c 2,82,-1
 155 155 l 2,83,84
 156 155 156 155 157 154 c 128,-1,85
 158 153 158 153 158 152 c 2,86,-1
 158 3 l 2,87,88
 158 2 158 2 157 1 c 128,-1,89
 156 0 156 0 155 0 c 2,90,-1
 6 0 l 2,91,92
 5 0 5 0 4 1 c 128,-1,93
 3 2 3 2 3 3 c 2,78,-1
EndSplineSet
EndChar

StartChar: less
Encoding: 60 60 33
Width: 1294
VWidth: -3
Flags: W
LayerCount: 2
Fore
SplineSet
1076 1834 m 2,0,-1
 1288 1622 l 2,1,2
 1289 1621 1289 1621 1289 1619.5 c 128,-1,3
 1289 1618 1289 1618 1288 1617 c 2,4,-1
 593 920 l 2,5,6
 592.5 920 l 0,7,8
 592 920 592 920 592 919 c 0,9,-1
 592 918 l 0,10,11
 592 918 l 0,12,-1
 592 917 l 0,13,14
 592 916.5 l 0,15,16
 592 916 592 916 593 916 c 2,17,-1
 1289 219 l 2,18,19
 1290 218 1290 218 1290 217 c 128,-1,20
 1290 216 1290 216 1289 215 c 2,21,-1
 1077 3 l 2,22,23
 1076 2 1076 2 1075.5 2 c 128,-1,24
 1075 2 1075 2 1074 2 c 128,-1,25
 1073 2 1073 2 1073 3 c 2,26,-1
 159 915 l 2,27,28
 158 916 158 916 158 917 c 128,-1,29
 158 918 158 918 159 919 c 2,30,-1
 1072 1834 l 2,31,32
 1073 1835 1073 1835 1073.5 1835 c 128,-1,33
 1074 1835 1074 1835 1074.5 1835 c 0,34,-1
 1076 1834 l 2,0,-1
3 3 m 2,35,-1
 3 152 l 2,36,37
 3 153 3 153 4 154 c 128,-1,38
 5 155 5 155 6 155 c 2,39,-1
 155 155 l 2,40,41
 156 155 156 155 157 154 c 128,-1,42
 158 153 158 153 158 152 c 2,43,-1
 158 3 l 2,44,45
 158 2 158 2 157 1 c 128,-1,46
 156 0 156 0 155 0 c 2,47,-1
 6 0 l 2,48,49
 5 0 5 0 4 1 c 128,-1,50
 3 2 3 2 3 3 c 2,35,-1
EndSplineSet
EndChar

StartChar: equal
Encoding: 61 61 34
Width: 1383
VWidth: -3
Flags: W
LayerCount: 2
Fore
SplineSet
6 1377 m 2,0,-1
 1377 1377 l 2,1,2
 1378 1377 1378 1377 1379 1376 c 128,-1,3
 1380 1375 1380 1375 1380 1374 c 2,4,-1
 1380 1073 l 2,5,6
 1380 1072 1380 1072 1379 1071 c 128,-1,7
 1378 1070 1378 1070 1377 1070 c 2,8,-1
 6 1070 l 2,9,10
 5 1070 5 1070 4 1071 c 128,-1,11
 3 1072 3 1072 3 1073 c 2,12,-1
 3 1374 l 2,13,14
 3 1375 3 1375 4 1376 c 128,-1,15
 5 1377 5 1377 6 1377 c 2,0,-1
3 462 m 2,16,-1
 3 763 l 2,17,18
 3 764 3 764 4 765 c 128,-1,19
 5 766 5 766 6 766 c 2,20,-1
 1377 766 l 2,21,22
 1378 766 1378 766 1379 765 c 128,-1,23
 1380 764 1380 764 1380 763 c 2,24,-1
 1380 462 l 2,25,26
 1380 461 1380 461 1379 459.5 c 128,-1,27
 1378 458 1378 458 1377 458 c 2,28,-1
 6 458 l 2,29,30
 5 458 5 458 4 459.5 c 128,-1,31
 3 461 3 461 3 462 c 2,16,-1
3 3 m 2,32,-1
 3 152 l 2,33,34
 3 153 3 153 4 154 c 128,-1,35
 5 155 5 155 6 155 c 2,36,-1
 155 155 l 2,37,38
 156 155 156 155 157 154 c 128,-1,39
 158 153 158 153 158 152 c 2,40,-1
 158 3 l 2,41,42
 158 2 158 2 157 1 c 128,-1,43
 156 0 156 0 155 0 c 2,44,-1
 6 0 l 2,45,46
 5 0 5 0 4 1 c 128,-1,47
 3 2 3 2 3 3 c 2,32,-1
EndSplineSet
EndChar

StartChar: greater
Encoding: 62 62 35
Width: 1230
VWidth: -3
Flags: W
LayerCount: 2
Fore
SplineSet
311 1833 m 2,0,-1
 1226 920 l 2,1,2
 1226.5 919 l 0,3,4
 1227 918 1227 918 1227 917.5 c 128,-1,5
 1227 917 1227 917 1226.5 916.5 c 0,6,-1
 1226 916 l 2,7,-1
 312 2 l 2,8,9
 311 1 311 1 309.5 1 c 128,-1,10
 308 1 308 1 308 2 c 2,11,-1
 95 215 l 2,12,13
 94 216 94 216 94 217 c 128,-1,14
 94 218 94 218 95 219 c 2,15,-1
 791 916 l 2,16,17
 792 917 792 917 792 918 c 128,-1,18
 792 919 792 919 791.5 919 c 128,-1,19
 791 919 791 919 791 919.5 c 0,20,-1
 791 920 l 2,21,-1
 95 1616 l 2,22,23
 94 1617 94 1617 94.5 1618 c 128,-1,24
 95 1619 95 1619 95 1620 c 2,25,-1
 307 1833 l 2,26,27
 308 1834 308 1834 309 1834 c 128,-1,28
 310 1834 310 1834 311 1833 c 2,0,-1
6 81 m 2,29,-1
 83 81 l 2,30,31
 84 81 84 81 85 80 c 0,32,33
 86 80 86 80 86 78 c 2,34,-1
 86 3 l 2,35,36
 86 2 86 2 85 1 c 128,-1,37
 84 0 84 0 83 0 c 2,38,-1
 6 0 l 2,39,40
 5 0 5 0 4 1 c 128,-1,41
 3 2 3 2 3 3 c 2,42,-1
 3 78 l 2,43,44
 3 79 3 79 4 80 c 128,-1,45
 5 81 5 81 6 81 c 2,29,-1
EndSplineSet
EndChar

StartChar: question
Encoding: 63 63 36
Width: 1384
VWidth: -3
Flags: W
LayerCount: 2
Fore
SplineSet
3 1302 m 0,0,1
 3 1376 3 1376 20.5 1442 c 128,-1,2
 38 1508 38 1508 73 1567.5 c 128,-1,3
 108 1627 108 1627 160 1679 c 0,4,5
 238 1757 238 1757 333 1796.5 c 128,-1,6
 428 1836 428 1836 539 1836 c 2,7,-1
 845 1836 l 2,8,9
 1021 1836 1021 1836 1163 1731 c 0,10,11
 1179 1719 1179 1719 1193.5 1707 c 128,-1,12
 1208 1695 1208 1695 1221.5 1681.5 c 128,-1,13
 1235 1668 1235 1668 1247.5 1654 c 128,-1,14
 1260 1640 1260 1640 1271.5 1625.5 c 128,-1,15
 1283 1611 1283 1611 1293 1595 c 128,-1,16
 1303 1579 1303 1579 1312 1563 c 128,-1,17
 1321 1547 1321 1547 1329 1529.5 c 128,-1,18
 1337 1512 1337 1512 1344 1494.5 c 128,-1,19
 1351 1477 1351 1477 1356.5 1458 c 128,-1,20
 1362 1439 1362 1439 1366.5 1420.5 c 128,-1,21
 1371 1402 1371 1402 1374 1383 c 128,-1,22
 1377 1364 1377 1364 1379 1346 c 0,23,24
 1384 1290 1384 1290 1377 1234 c 0,25,26
 1375 1215 1375 1215 1371 1196.5 c 128,-1,27
 1367 1178 1367 1178 1362 1159.5 c 128,-1,28
 1357 1141 1357 1141 1350 1123 c 0,29,30
 1338 1090 1338 1090 1323 1059 c 128,-1,31
 1308 1028 1308 1028 1289.5 1000.5 c 128,-1,32
 1271 973 1271 973 1249 947.5 c 128,-1,33
 1227 922 1227 922 1201 899.5 c 128,-1,34
 1175 877 1175 877 1146 857 c 2,35,-1
 879 675 l 2,36,37
 863 664 863 664 854 648 c 0,38,39
 850 640 850 640 848 631 c 128,-1,40
 846 622 846 622 846 612 c 2,41,-1
 846 466 l 2,42,43
 846 465 846 465 845 463.5 c 128,-1,44
 844 462 844 462 842 462 c 2,45,-1
 541 459 l 2,46,47
 540 459 l 0,48,-1
 539.5 459.5 l 0,49,50
 539 460 539 460 538.5 460 c 128,-1,51
 538 460 538 460 538 460.5 c 128,-1,52
 538 461 538 461 538 462 c 2,53,-1
 538 612 l 2,54,55
 538 814 538 814 705 929 c 2,56,-1
 973 1111 l 2,57,58
 1035 1153 1035 1153 1060 1224 c 128,-1,59
 1085 1295 1085 1295 1063 1367 c 0,60,61
 1052 1403 1052 1403 1031 1432 c 128,-1,62
 1010 1461 1010 1461 980 1483.5 c 128,-1,63
 950 1506 950 1506 916 1517 c 128,-1,64
 882 1528 882 1528 845 1528 c 2,65,-1
 539 1528 l 2,66,67
 492 1528 492 1528 451.5 1511.5 c 128,-1,68
 411 1495 411 1495 377 1461 c 0,69,70
 361 1445 361 1445 348.5 1426.5 c 128,-1,71
 336 1408 336 1408 327.5 1388.5 c 128,-1,72
 319 1369 319 1369 315 1347 c 0,73,74
 313 1336 313 1336 312 1325 c 128,-1,75
 311 1314 311 1314 311 1302 c 0,76,77
 311 1301 311 1301 310.5 1300.5 c 128,-1,78
 310 1300 310 1300 309 1299.5 c 0,79,-1
 308 1299 l 2,80,-1
 6 1299 l 2,81,82
 5 1299 5 1299 4 1300 c 0,83,-1
 4 1300 l 0,84,-1
 4 1300.5 l 0,85,86
 4 1301 4 1301 3.5 1301 c 0,87,-1
 3 1301 l 0,88,-1
 3 1302 l 0,0,1
768 308 m 2,89,90
 779 308 779 308 788 305 c 0,91,92
 790 305 790 305 791.5 304.5 c 128,-1,93
 793 304 793 304 794.5 303.5 c 128,-1,94
 796 303 796 303 797.5 302 c 128,-1,95
 799 301 799 301 800.5 300.5 c 128,-1,96
 802 300 802 300 803.5 299 c 128,-1,97
 805 298 805 298 807 297 c 0,98,99
 816 292 816 292 823 285 c 0,100,101
 826 282 826 282 828.5 279 c 128,-1,102
 831 276 831 276 833 273 c 0,103,104
 834 271 834 271 835.5 269 c 128,-1,105
 837 267 837 267 838 264.5 c 128,-1,106
 839 262 839 262 840 260 c 0,107,108
 843 253 843 253 844 246 c 0,109,110
 846 239 846 239 846 230 c 2,111,-1
 846 77 l 2,112,113
 846 56 846 56 835.5 38.5 c 128,-1,114
 825 21 825 21 807 10.5 c 128,-1,115
 789 0 789 0 768 0 c 2,116,-1
 615 0 l 2,117,118
 604 0 604 0 595 2 c 0,119,120
 585 4 585 4 577 10 c 0,121,122
 568 15 568 15 560.5 22.5 c 128,-1,123
 553 30 553 30 548 39 c 0,124,125
 545 43 545 43 543.5 47.5 c 128,-1,126
 542 52 542 52 540 57 c 0,127,128
 538 67 538 67 538 77 c 2,129,-1
 538 230 l 2,130,131
 538 262 538 262 560.5 285 c 128,-1,132
 583 308 583 308 615 308 c 2,133,-1
 768 308 l 2,89,90
EndSplineSet
EndChar

StartChar: at
Encoding: 64 64 37
Width: 1383
VWidth: -3
Flags: W
LayerCount: 2
Fore
SplineSet
707 651 m 2,0,1
 715 651 715 651 722.5 653 c 128,-1,2
 730 655 730 655 737 659 c 128,-1,3
 744 663 744 663 750 669 c 0,4,5
 753 672 753 672 755 675 c 128,-1,6
 757 678 757 678 759 681.5 c 128,-1,7
 761 685 761 685 763 688 c 0,8,9
 767 700 767 700 767 712 c 2,10,-1
 767 1048 l 2,11,12
 767 1060 767 1060 763 1071 c 0,13,14
 761 1076 761 1076 757.5 1081 c 128,-1,15
 754 1086 754 1086 750 1090 c 0,16,17
 741 1099 741 1099 730 1103.5 c 128,-1,18
 719 1108 719 1108 707 1108 c 2,19,-1
 638 1108 l 2,20,21
 613 1108 613 1108 595.5 1090.5 c 128,-1,22
 578 1073 578 1073 578 1048 c 2,23,-1
 578 712 l 2,24,25
 578 704 578 704 580 696 c 128,-1,26
 582 688 582 688 586 681.5 c 128,-1,27
 590 675 590 675 596 669 c 0,28,29
 599 666 599 666 602 663.5 c 128,-1,30
 605 661 605 661 608.5 659 c 128,-1,31
 612 657 612 657 615 656 c 0,32,33
 626 652 626 652 638 651 c 2,34,-1
 707 651 l 2,0,1
1111 727 m 2,35,-1
 1111 1453 l 2,36,37
 1111 1469 1111 1469 1108.5 1483.5 c 128,-1,38
 1106 1498 1106 1498 1100 1511.5 c 128,-1,39
 1094 1525 1094 1525 1086 1537 c 128,-1,40
 1078 1549 1078 1549 1067 1560 c 0,41,42
 1060 1567 1060 1567 1051.5 1573.5 c 128,-1,43
 1043 1580 1043 1580 1034.5 1585 c 128,-1,44
 1026 1590 1026 1590 1017.5 1593.5 c 128,-1,45
 1009 1597 1009 1597 999.5 1599.5 c 128,-1,46
 990 1602 990 1602 980 1603.5 c 128,-1,47
 970 1605 970 1605 959 1605 c 2,48,-1
 386 1605 l 2,49,50
 376 1605 376 1605 366 1603.5 c 128,-1,51
 356 1602 356 1602 346.5 1599.5 c 128,-1,52
 337 1597 337 1597 328 1593 c 0,53,54
 315 1587 315 1587 302.5 1579 c 128,-1,55
 290 1571 290 1571 279 1560 c 0,56,57
 235 1516 235 1516 234 1453 c 2,58,-1
 234 383 l 2,59,60
 234 320 234 320 278.5 275.5 c 128,-1,61
 323 231 323 231 386 231 c 2,62,-1
 1224 231 l 2,63,64
 1225 231 1225 231 1226.5 230 c 128,-1,65
 1228 229 1228 229 1228 228 c 2,66,-1
 1228 3 l 2,67,68
 1228 2 1228 2 1227 1 c 128,-1,69
 1226 0 1226 0 1224 0 c 2,70,-1
 386 0 l 2,71,72
 227 0 227 0 115 112 c 128,-1,73
 3 224 3 224 3 383 c 2,74,-1
 3 1453 l 2,75,76
 3 1612 3 1612 115.5 1724 c 128,-1,77
 228 1836 228 1836 386 1836 c 2,78,-1
 998 1836 l 2,79,80
 1038 1836 1038 1836 1074 1829 c 0,81,82
 1111 1822 1111 1822 1144 1808 c 0,83,84
 1161 1801 1161 1801 1177.5 1792 c 128,-1,85
 1194 1783 1194 1783 1209 1773 c 0,86,87
 1240 1752 1240 1752 1268 1724 c 0,88,89
 1324 1668 1324 1668 1352 1600 c 128,-1,90
 1380 1532 1380 1532 1380 1453 c 2,91,-1
 1380 803 l 2,92,93
 1380 759 1380 759 1373 720 c 128,-1,94
 1366 681 1366 681 1351 646 c 128,-1,95
 1336 611 1336 611 1313.5 580 c 128,-1,96
 1291 549 1291 549 1261 523 c 0,97,98
 1254 516 1254 516 1245.5 510 c 128,-1,99
 1237 504 1237 504 1228.5 497.5 c 128,-1,100
 1220 491 1220 491 1211.5 485.5 c 128,-1,101
 1203 480 1203 480 1193 474 c 0,102,103
 1146 446 1146 446 1099.5 432 c 128,-1,104
 1053 418 1053 418 1006 417 c 0,105,106
 912 415 912 415 817 466 c 0,107,-1
 816.5 466 l 0,108,109
 816 466 816 466 815.5 466 c 128,-1,110
 815 466 815 466 814.5 466 c 128,-1,111
 814 466 814 466 814 465 c 0,112,113
 806 460 806 460 797 455.5 c 128,-1,114
 788 451 788 451 779.5 447 c 128,-1,115
 771 443 771 443 763 439 c 0,116,117
 737 428 737 428 712 423 c 0,118,119
 703 421 703 421 694.5 420 c 128,-1,120
 686 419 686 419 677.5 418 c 128,-1,121
 669 417 669 417 660 417 c 0,122,123
 634 416 634 416 609 421 c 0,124,125
 600 422 600 422 591.5 424 c 128,-1,126
 583 426 583 426 574 429 c 128,-1,127
 565 432 565 432 557 435 c 0,128,129
 531 445 531 445 505 459 c 0,130,131
 492 466 492 466 479.5 474 c 128,-1,132
 467 482 467 482 456.5 490.5 c 128,-1,133
 446 499 446 499 436 508.5 c 128,-1,134
 426 518 426 518 417 528 c 0,135,136
 382 567 382 567 364 617 c 0,137,138
 347 667 347 667 347 727 c 2,139,-1
 347 1032 l 2,140,141
 347 1086 347 1086 362 1133 c 0,142,143
 369 1156 369 1156 380.5 1177.5 c 128,-1,144
 392 1199 392 1199 407 1218 c 128,-1,145
 422 1237 422 1237 441 1254 c 128,-1,146
 460 1271 460 1271 482 1287 c 0,147,148
 614 1376 614 1376 763 1319 c 0,149,150
 764 1319 764 1319 765.5 1319.5 c 128,-1,151
 767 1320 767 1320 767 1321 c 0,152,-1
 767 1322 l 2,153,-1
 767 1346 l 2,154,155
 767 1351 767 1351 768 1355.5 c 128,-1,156
 769 1360 769 1360 770.5 1363.5 c 128,-1,157
 772 1367 772 1367 774.5 1369.5 c 128,-1,158
 777 1372 777 1372 781 1374 c 128,-1,159
 785 1376 785 1376 789 1376.5 c 128,-1,160
 793 1377 793 1377 799 1377 c 2,161,-1
 929 1377 l 2,162,163
 932 1377 932 1377 934 1377 c 128,-1,164
 936 1377 936 1377 938.5 1376.5 c 128,-1,165
 941 1376 941 1376 943 1375.5 c 128,-1,166
 945 1375 945 1375 946.5 1374 c 128,-1,167
 948 1373 948 1373 949.5 1372 c 128,-1,168
 951 1371 951 1371 953 1370 c 0,169,170
 956 1367 956 1367 957.5 1363.5 c 128,-1,171
 959 1360 959 1360 959.5 1355.5 c 128,-1,172
 960 1351 960 1351 960 1346 c 2,173,-1
 960 727 l 2,174,175
 960 724 960 724 960.5 720.5 c 128,-1,176
 961 717 961 717 961.5 713.5 c 128,-1,177
 962 710 962 710 962.5 707 c 128,-1,178
 963 704 963 704 964.5 701 c 128,-1,179
 966 698 966 698 967 695 c 128,-1,180
 968 692 968 692 970 689 c 0,181,182
 975 681 975 681 982 673 c 0,183,184
 993 662 993 662 1007 657 c 0,185,186
 1014 654 1014 654 1021 652.5 c 128,-1,187
 1028 651 1028 651 1036 651 c 0,188,189
 1067 651 1067 651 1089 673.5 c 128,-1,190
 1111 696 1111 696 1111 727 c 2,35,-1
EndSplineSet
EndChar

StartChar: A
Encoding: 65 65 38
Width: 1467
VWidth: -3
Flags: W
LayerCount: 2
Fore
SplineSet
932 557 m 1,0,-1
 736 1207 l 2,1,2
 736 1208 736 1208 736 1208.5 c 128,-1,3
 736 1209 736 1209 735 1209 c 128,-1,4
 734 1209 734 1209 732 1209 c 1,5,-1
 732 1208 l 2,6,7
 732 1208 l 2,8,-1
 732 1208 l 1,9,-1
 732 1208 l 1,10,-1
 732 1207 l 1,11,-1
 536 557 l 2,12,13
 536 556 536 556 536 555.5 c 128,-1,14
 536 555 536 555 537 554 c 0,15,-1
 538 553 l 2,16,-1
 928 553 l 2,17,18
 929 553 929 553 929.5 553 c 128,-1,19
 930 553 930 553 931 553.5 c 128,-1,20
 932 554 932 554 932 555 c 2,21,-1
 932 556 l 1,22,-1
 932 557 l 1,0,-1
1098 1 m 1,23,-1
 1098 2 l 1,24,-1
 1098 2 l 1,25,-1
 1030 227 l 1,26,-1
 1030 228 l 1,27,-1
 1030 228 l 2,28,29
 1029 229 l 2,30,-1
 1028 229 l 1,31,-1
 440 229 l 2,32,33
 438 229 438 229 438 228 c 2,34,-1
 438 227 l 1,35,-1
 370 3 l 1,36,-1
 370 2 l 1,37,-1
 370 2 l 1,38,-1
 368 2 l 1,39,-1
 368 1 l 1,40,-1
 367 0 l 2,41,42
 366 0 l 2,43,-1
 366 0 l 1,44,-1
 4 0 l 2,45,46
 2 0 2 0 1 1.5 c 128,-1,47
 0 3 0 3 0 4 c 1,48,-1
 548 1832 l 2,49,50
 548 1833 548 1833 550 1833 c 2,51,-1
 552 1834 l 1,52,-1
 552 1835 l 1,53,-1
 914 1835 l 2,54,55
 916 1835 916 1835 918 1833 c 2,56,-1
 1468 4 l 2,57,58
 1468 3 1468 3 1468 2 c 128,-1,59
 1468 1 1468 1 1467 0.5 c 128,-1,60
 1466 0 1466 0 1464 0 c 2,61,-1
 1102 0 l 2,62,63
 1100 0 1100 0 1098 1 c 1,23,-1
EndSplineSet
EndChar

StartChar: B
Encoding: 66 66 39
Width: 1469
VWidth: -3
Flags: W
LayerCount: 2
Fore
SplineSet
918 370 m 2,0,1
 956 370 956 370 987.5 383 c 128,-1,2
 1019 396 1019 396 1046 423 c 0,3,4
 1053 430 1053 430 1058.5 437 c 128,-1,5
 1064 444 1064 444 1069 451 c 128,-1,6
 1074 458 1074 458 1078 466 c 128,-1,7
 1082 474 1082 474 1086 482 c 1,8,9
 1099 514 1099 514 1099 551 c 0,10,11
 1099 626 1099 626 1046 679.5 c 128,-1,12
 993 733 993 733 918 733 c 2,13,-1
 373 733 l 2,14,15
 372 733 372 733 371 732 c 1,16,17
 370 732 370 732 370 730 c 2,18,-1
 370 373 l 2,19,20
 370 372 370 372 371 371 c 2,21,-1
 372 370 l 1,22,-1
 373 370 l 1,23,-1
 918 370 l 2,0,1
918 1102 m 2,24,25
 993 1102 993 1102 1046 1155.5 c 128,-1,26
 1099 1209 1099 1209 1099 1284 c 0,27,28
 1099 1321 1099 1321 1085.5 1353.5 c 128,-1,29
 1072 1386 1072 1386 1046 1412 c 0,30,31
 1033 1425 1033 1425 1018 1435 c 128,-1,32
 1003 1445 1003 1445 987 1452 c 128,-1,33
 971 1459 971 1459 953.5 1462 c 128,-1,34
 936 1465 936 1465 918 1465 c 2,35,-1
 373 1465 l 2,36,37
 372 1465 372 1465 371.5 1465 c 128,-1,38
 371 1465 371 1465 371 1464 c 1,39,-1
 370 1464 l 2,40,41
 370 1462 l 2,42,-1
 370 1462 l 1,43,-1
 370 1106 l 2,44,45
 370 1105 370 1105 371 1103 c 1,46,-1
 372 1103 l 2,47,48
 372 1102.5 l 0,49,-1
 372 1102 l 2,50,-1
 373 1102 l 1,51,-1
 918 1102 l 2,24,25
3 1835 m 2,52,-1
 918 1835 l 2,53,54
 999 1835 999 1835 1074 1813 c 128,-1,55
 1149 1791 1149 1791 1217 1746 c 0,56,57
 1240 1731 1240 1731 1261 1715 c 128,-1,58
 1282 1699 1282 1699 1301 1681 c 128,-1,59
 1320 1663 1320 1663 1337 1643 c 128,-1,60
 1354 1623 1354 1623 1369 1601 c 0,61,62
 1379 1587 1379 1587 1388 1572 c 128,-1,63
 1397 1557 1397 1557 1405 1541 c 128,-1,64
 1413 1525 1413 1525 1421 1509 c 1,65,66
 1487 1361 1487 1361 1462.5 1201 c 128,-1,67
 1438 1041 1438 1041 1331 920 c 1,68,-1
 1331 920 l 2,69,70
 1331 918.5 l 0,71,72
 1331 917 1331 917 1331 916.5 c 128,-1,73
 1331 916 1331 916 1331 915 c 1,74,75
 1367 875 1367 875 1393.5 830 c 128,-1,76
 1420 785 1420 785 1437 736 c 128,-1,77
 1454 687 1454 687 1463 634 c 1,78,79
 1487 474 1487 474 1421 326 c 1,80,81
 1354 177 1354 177 1217.5 88.5 c 128,-1,82
 1081 0 1081 0 918 0 c 2,83,-1
 3 0 l 2,84,85
 2 0 2 0 1 1 c 128,-1,86
 0 2 0 2 0 3 c 2,87,-1
 0 1832 l 2,88,89
 0 1833 0 1833 1 1834 c 128,-1,90
 2 1835 2 1835 3 1835 c 2,52,-1
EndSplineSet
EndChar

StartChar: C
Encoding: 67 67 40
Width: 1469
VWidth: -3
Flags: W
LayerCount: 2
Fore
SplineSet
1102 553 m 2,0,-1
 1466 553 l 2,1,2
 1467 553 1467 553 1468 552 c 128,-1,3
 1469 551 1469 551 1469 550 c 2,4,-1
 1469 460 l 2,5,6
 1469 365 1469 365 1435.5 283.5 c 128,-1,7
 1402 202 1402 202 1334 135 c 0,8,9
 1312 113 1312 113 1288 94 c 128,-1,10
 1264 75 1264 75 1238.5 60 c 128,-1,11
 1213 45 1213 45 1186 34 c 0,12,13
 1105 0 1105 0 1009 0 c 2,14,-1
 460 0 l 2,15,16
 270 0 270 0 135 134.5 c 128,-1,17
 0 269 0 269 0 460 c 2,18,-1
 0 1375 l 2,19,20
 0 1470 0 1470 33.5 1551.5 c 128,-1,21
 67 1633 67 1633 134.5 1700.5 c 128,-1,22
 202 1768 202 1768 283.5 1801.5 c 128,-1,23
 365 1835 365 1835 460 1835 c 2,24,-1
 1009 1835 l 2,25,26
 1041 1835 1041 1835 1071 1831.5 c 128,-1,27
 1101 1828 1101 1828 1130 1820.5 c 128,-1,28
 1159 1813 1159 1813 1186 1801 c 1,29,30
 1227 1784 1227 1784 1264 1759 c 128,-1,31
 1301 1734 1301 1734 1334 1700 c 1,32,33
 1401 1633 1401 1633 1435 1552 c 128,-1,34
 1469 1471 1469 1471 1469 1375 c 2,35,-1
 1469 1285 l 2,36,37
 1469 1284 1469 1284 1468 1283 c 128,-1,38
 1467 1282 1467 1282 1466 1282 c 2,39,-1
 1102 1282 l 2,40,41
 1101 1282 1101 1282 1100 1283 c 128,-1,42
 1099 1284 1099 1284 1099 1285 c 2,43,-1
 1099 1375 l 2,44,45
 1099 1393 1099 1393 1092.5 1409.5 c 128,-1,46
 1086 1426 1086 1426 1073 1439 c 0,47,48
 1069 1443 1069 1443 1064 1447 c 128,-1,49
 1059 1451 1059 1451 1054 1453.5 c 128,-1,50
 1049 1456 1049 1456 1044 1459 c 1,51,52
 1036 1462 1036 1462 1027.5 1463.5 c 128,-1,53
 1019 1465 1019 1465 1009 1465 c 2,54,-1
 460 1465 l 2,55,56
 441 1465 441 1465 425 1458.5 c 128,-1,57
 409 1452 409 1452 396 1439 c 0,58,59
 389 1432 389 1432 384.5 1425 c 128,-1,60
 380 1418 380 1418 376 1410 c 0,61,62
 374 1406 374 1406 373 1402 c 128,-1,63
 372 1398 372 1398 372 1393 c 1,64,65
 371 1390 371 1390 370.5 1387.5 c 128,-1,66
 370 1385 370 1385 370 1381.5 c 128,-1,67
 370 1378 370 1378 370 1375 c 2,68,-1
 370 460 l 2,69,70
 370 455 370 455 370.5 450.5 c 128,-1,71
 371 446 371 446 372 442 c 0,72,73
 374 433 374 433 376 425 c 1,74,75
 378 421 378 421 380 417.5 c 128,-1,76
 382 414 382 414 385 410 c 0,77,78
 390 403 390 403 396.5 396.5 c 128,-1,79
 403 390 403 390 410 385 c 0,80,81
 412 383 412 383 414.5 381.5 c 128,-1,82
 417 380 417 380 420 378.5 c 128,-1,83
 423 377 423 377 425 376 c 0,84,85
 433 373 433 373 442 371 c 0,86,87
 445 370 445 370 448 370 c 128,-1,88
 451 370 451 370 454 370 c 128,-1,89
 457 370 457 370 460 370 c 2,90,-1
 1009 370 l 2,91,92
 1021 370 1021 370 1033 373 c 0,93,94
 1039 374 1039 374 1044 376.5 c 128,-1,95
 1049 379 1049 379 1054 382 c 0,96,97
 1064 388 1064 388 1073 396 c 1,98,99
 1080 403 1080 403 1084.5 410 c 128,-1,100
 1089 417 1089 417 1092.5 425 c 128,-1,101
 1096 433 1096 433 1097.5 441.5 c 128,-1,102
 1099 450 1099 450 1099 460 c 2,103,-1
 1099 550 l 2,104,105
 1099 551 1099 551 1100 552 c 128,-1,106
 1101 553 1101 553 1102 553 c 2,0,-1
EndSplineSet
EndChar

StartChar: D
Encoding: 68 68 41
Width: 1469
VWidth: -3
Flags: W
LayerCount: 2
Fore
SplineSet
3 1835 m 2,0,-1
 1009 1835 l 2,1,2
 1199 1835 1199 1835 1334 1700.5 c 128,-1,3
 1469 1566 1469 1566 1469 1376 c 2,4,-1
 1469 460 l 2,5,6
 1469 270 1469 270 1334.5 135 c 128,-1,7
 1200 0 1200 0 1009 0 c 2,8,-1
 3 0 l 2,9,10
 2 0 2 0 1 1 c 128,-1,11
 0 2 0 2 0 3 c 2,12,-1
 0 1832 l 2,13,14
 0 1833 0 1833 1 1834 c 128,-1,15
 2 1835 2 1835 3 1835 c 2,0,-1
373 370 m 1,16,-1
 1009 370 l 2,17,18
 1021 370 1021 370 1033 373 c 0,19,20
 1039 374 1039 374 1044 376.5 c 128,-1,21
 1049 379 1049 379 1054 381 c 1,22,23
 1064 387 1064 387 1073 396 c 0,24,25
 1080 403 1080 403 1084.5 410 c 128,-1,26
 1089 417 1089 417 1092 425 c 0,27,28
 1099 441 1099 441 1099 460 c 2,29,-1
 1099 1375 l 2,30,31
 1099 1393 1099 1393 1092.5 1409.5 c 128,-1,32
 1086 1426 1086 1426 1073 1439 c 0,33,34
 1069 1443 1069 1443 1064 1447 c 128,-1,35
 1059 1451 1059 1451 1054 1453.5 c 128,-1,36
 1049 1456 1049 1456 1044 1459 c 1,37,38
 1036 1462 1036 1462 1027.5 1463.5 c 128,-1,39
 1019 1465 1019 1465 1009 1465 c 2,40,-1
 373 1465 l 2,41,42
 372 1465 372 1465 371.5 1465 c 128,-1,43
 371 1465 371 1465 371 1464 c 1,44,-1
 370 1464 l 2,45,46
 370 1462 l 2,47,-1
 370 1462 l 1,48,-1
 370 373 l 2,49,50
 370 372 370 372 371 371 c 2,51,-1
 372 370 l 1,52,-1
 373 370 l 1,16,-1
EndSplineSet
EndChar

StartChar: E
Encoding: 69 69 42
Width: 1469
VWidth: -3
Flags: W
LayerCount: 2
Fore
SplineSet
1469 1827 m 2,0,-1
 1469 1473 l 2,1,2
 1469 1472 1469 1472 1468 1471 c 128,-1,3
 1467 1470 1467 1470 1466 1470 c 2,4,-1
 373 1465 l 2,5,6
 372 1465 372 1465 371 1464 c 128,-1,7
 370 1463 370 1463 370 1462 c 2,8,-1
 370 1106 l 2,9,10
 370 1105 370 1105 371 1103 c 1,11,-1
 372 1103 l 2,12,13
 372 1102.5 l 0,14,-1
 372 1102 l 2,15,-1
 373 1102 l 1,16,-1
 1099 1102 l 2,17,18
 1100 1102 1100 1102 1101.5 1101 c 128,-1,19
 1103 1100 1103 1100 1103 1099 c 2,20,-1
 1103 741 l 2,21,22
 1103 740 1103 740 1102 738.5 c 128,-1,23
 1101 737 1101 737 1099 737 c 2,24,-1
 373 733 l 1,25,-1
 372 733 l 2,26,27
 372 732.5 l 0,28,-1
 372 732 l 2,29,-1
 371 732 l 1,30,31
 370 730 l 2,32,-1
 370 730 l 1,33,-1
 370 373 l 2,34,35
 370 372 370 372 371 371 c 2,36,-1
 372 370 l 1,37,-1
 373 370 l 1,38,-1
 1466 370 l 2,39,40
 1467 370 1467 370 1468 369 c 128,-1,41
 1469 368 1469 368 1469 367 c 2,42,-1
 1469 3 l 2,43,44
 1469 2 1469 2 1468 1 c 128,-1,45
 1467 0 1467 0 1466 0 c 2,46,-1
 3 0 l 2,47,48
 2 0 2 0 1 1 c 128,-1,49
 0 2 0 2 0 3 c 2,50,-1
 0 1827 l 2,51,52
 0 1828 0 1828 1 1829 c 128,-1,53
 2 1830 2 1830 3 1830 c 2,54,-1
 1466 1830 l 2,55,56
 1467 1830 1467 1830 1468 1829 c 128,-1,57
 1469 1828 1469 1828 1469 1827 c 2,0,-1
EndSplineSet
EndChar

StartChar: grave
Encoding: 96 96 43
Width: 925
VWidth: -3
Flags: W
LayerCount: 2
Fore
SplineSet
690 1377 m 2,0,-1
 463 1831 l 2,1,2
 462 1832 462 1832 463 1833.5 c 128,-1,3
 464 1835 464 1835 465 1836 c 0,4,5
 466 1836 l 2,6,-1
 767 1836 l 2,7,8
 769 1836 769 1836 770 1834 c 2,9,-1
 921 1379 l 2,10,11
 921 1378 921 1378 920.5 1377 c 128,-1,12
 920 1376 920 1376 919 1375 c 2,13,-1
 918 1375 l 1,14,-1
 693 1375 l 2,15,16
 691 1375 691 1375 690 1377 c 2,0,-1
3 3 m 2,17,-1
 3 152 l 2,18,19
 3 153 3 153 4 154 c 128,-1,20
 5 155 5 155 6 155 c 2,21,-1
 155 155 l 2,22,23
 156 155 156 155 157 154 c 128,-1,24
 158 153 158 153 158 152 c 2,25,-1
 158 3 l 2,26,27
 158 2 158 2 157 1 c 128,-1,28
 156 0 156 0 155 0 c 2,29,-1
 6 0 l 2,30,31
 5 0 5 0 4 1 c 128,-1,32
 3 2 3 2 3 3 c 2,17,-1
EndSplineSet
EndChar

StartChar: a
Encoding: 97 97 44
Width: 1383
VWidth: -3
Flags: W
LayerCount: 2
Fore
SplineSet
845 384 m 2,0,1
 907 384 907 384 959.5 414.5 c 128,-1,2
 1012 445 1012 445 1042 498 c 0,3,4
 1046 505 1046 505 1049.5 511.5 c 128,-1,5
 1053 518 1053 518 1056 525 c 0,6,7
 1062 539 1062 539 1065 553 c 0,8,9
 1066 557 1066 557 1067 560 c 128,-1,10
 1068 563 1068 563 1068.5 567 c 128,-1,11
 1069 571 1069 571 1069.5 574.5 c 128,-1,12
 1070 578 1070 578 1071 582 c 0,13,14
 1073 597 1073 597 1073 612 c 0,15,16
 1073 618 1073 618 1072.5 624 c 128,-1,17
 1072 630 1072 630 1071.5 635.5 c 128,-1,18
 1071 641 1071 641 1070.5 646.5 c 128,-1,19
 1070 652 1070 652 1069 658 c 0,20,21
 1067 669 1067 669 1063.5 679.5 c 128,-1,22
 1060 690 1060 690 1056 700 c 128,-1,23
 1052 710 1052 710 1047 719.5 c 128,-1,24
 1042 729 1042 729 1035 738 c 0,25,26
 1022 756 1022 756 1005.5 773 c 128,-1,27
 989 790 989 790 970.5 802.5 c 128,-1,28
 952 815 952 815 932 824 c 0,29,30
 892 840 892 840 845 840 c 2,31,-1
 539 840 l 2,32,33
 492 840 492 840 451 824 c 0,34,35
 431 816 431 816 412.5 803 c 128,-1,36
 394 790 394 790 377.5 773.5 c 128,-1,37
 361 757 361 757 348.5 738.5 c 128,-1,38
 336 720 336 720 327.5 700 c 128,-1,39
 319 680 319 680 315 658 c 0,40,41
 313 647 313 647 312 635.5 c 128,-1,42
 311 624 311 624 311 612 c 0,43,44
 311 588 311 588 315 566.5 c 128,-1,45
 319 545 319 545 327.5 524.5 c 128,-1,46
 336 504 336 504 348.5 486 c 128,-1,47
 361 468 361 468 378 451 c 0,48,49
 411 417 411 417 451.5 400.5 c 128,-1,50
 492 384 492 384 539 384 c 2,51,-1
 845 384 l 2,0,1
1377 0 m 2,52,-1
 1076 0 l 2,53,54
 1075 0 1075 0 1074 1 c 128,-1,55
 1073 2 1073 2 1073 3 c 2,56,-1
 1073 123 l 2,57,58
 1073 124 1073 124 1072 125 c 128,-1,59
 1071 126 1071 126 1070 126 c 0,60,61
 1069.5 126 l 0,62,63
 1069 126 1069 126 1068 125 c 0,64,65
 961 76 961 76 845 76 c 2,66,-1
 539 76 l 2,67,68
 317 76 317 76 160 233 c 128,-1,69
 3 390 3 390 3 612 c 0,70,71
 3 723 3 723 42.5 818 c 128,-1,72
 82 913 82 913 160 991 c 0,73,74
 317 1148 317 1148 539 1148 c 2,75,-1
 948 1148 l 2,76,-1
 948.5 1148 l 0,77,-1
 949 1148 l 0,78,-1
 949.5 1148 l 0,79,80
 950 1148 950 1148 950 1148.5 c 0,81,-1
 950 1149 l 0,82,83
 951 1150 951 1150 951 1151 c 128,-1,84
 951 1152 951 1152 950 1153 c 0,85,86
 814 1299 814 1299 615 1299 c 2,87,-1
 159 1299 l 2,88,89
 158 1299 158 1299 157 1300 c 128,-1,90
 156 1301 156 1301 156 1302 c 2,91,-1
 156 1603 l 2,92,93
 156 1604 156 1604 157 1605 c 128,-1,94
 158 1606 158 1606 159 1606 c 2,95,-1
 615 1606 l 2,96,97
 657 1606 657 1606 697 1602 c 0,98,99
 717 1600 717 1600 737 1597 c 128,-1,100
 757 1594 757 1594 777 1590 c 0,101,102
 816 1582 816 1582 853.5 1569.5 c 128,-1,103
 891 1557 891 1557 927.5 1541 c 128,-1,104
 964 1525 964 1525 999.5 1504.5 c 128,-1,105
 1035 1484 1035 1484 1067 1460.5 c 128,-1,106
 1099 1437 1099 1437 1128.5 1410.5 c 128,-1,107
 1158 1384 1158 1384 1184.5 1354.5 c 128,-1,108
 1211 1325 1211 1325 1234.5 1293 c 128,-1,109
 1258 1261 1258 1261 1278 1225 c 0,110,111
 1329 1137 1329 1137 1354.5 1041 c 0,112,113
 1380 946 1380 946 1380 842 c 2,114,-1
 1380 3 l 2,115,116
 1380 2 1380 2 1379 1 c 128,-1,117
 1378 0 1378 0 1377 0 c 2,52,-1
EndSplineSet
EndChar

StartChar: b
Encoding: 98 98 45
Width: 1383
VWidth: -3
Flags: W
LayerCount: 2
Fore
SplineSet
539 384 m 2,0,-1
 845 384 l 2,1,2
 869 384 869 384 890.5 388 c 128,-1,3
 912 392 912 392 932 401 c 0,4,5
 972 418 972 418 1006 451 c 0,6,7
 1039 485 1039 485 1056 525 c 128,-1,8
 1073 565 1073 565 1073 612 c 0,9,10
 1073 618 1073 618 1072.5 624 c 128,-1,11
 1072 630 1072 630 1071.5 635.5 c 128,-1,12
 1071 641 1071 641 1070.5 646.5 c 128,-1,13
 1070 652 1070 652 1069 658 c 0,14,15
 1067 669 1067 669 1063.5 679.5 c 128,-1,16
 1060 690 1060 690 1056 700 c 128,-1,17
 1052 710 1052 710 1047 719.5 c 128,-1,18
 1042 729 1042 729 1035 738 c 0,19,20
 1022 756 1022 756 1005.5 773 c 128,-1,21
 989 790 989 790 970.5 802.5 c 128,-1,22
 952 815 952 815 932 824 c 0,23,24
 892 840 892 840 845 840 c 2,25,-1
 539 840 l 2,26,27
 492 840 492 840 451 824 c 0,28,29
 438 818 438 818 425 810.5 c 128,-1,30
 412 803 412 803 400.5 794 c 128,-1,31
 389 785 389 785 378 774 c 0,32,33
 361 757 361 757 348.5 738.5 c 128,-1,34
 336 720 336 720 327 700 c 0,35,36
 321 687 321 687 317.5 672.5 c 128,-1,37
 314 658 314 658 312.5 643 c 128,-1,38
 311 628 311 628 311 612 c 0,39,40
 311 581 311 581 318 552 c 0,41,42
 325 524 325 524 340 498.5 c 128,-1,43
 355 473 355 473 378 451 c 0,44,45
 444 384 444 384 539 384 c 2,0,-1
308 0 m 2,46,-1
 6 0 l 2,47,48
 5 0 5 0 4 1 c 128,-1,49
 3 2 3 2 3 3 c 2,50,-1
 3 1833 l 2,51,52
 3 1834 3 1834 4 1835 c 128,-1,53
 5 1836 5 1836 6 1836 c 2,54,-1
 308 1836 l 2,55,56
 309 1836 309 1836 310 1835 c 128,-1,57
 311 1834 311 1834 311 1833 c 2,58,-1
 311 1102 l 2,59,60
 311 1101 311 1101 311 1100.5 c 128,-1,61
 311 1100 311 1100 312 1100 c 0,62,63
 313 1099 313 1099 314 1099 c 0,64,65
 314.5 1099 l 0,66,-1
 315 1099 l 0,67,-1
 315 1099 l 0,68,69
 422 1148 422 1148 539 1148 c 2,70,-1
 845 1148 l 2,71,72
 956 1148 956 1148 1050.5 1109 c 128,-1,73
 1145 1070 1145 1070 1223 991 c 0,74,75
 1380 834 1380 834 1380 612 c 128,-1,76
 1380 390 1380 390 1223.5 233 c 128,-1,77
 1067 76 1067 76 845 76 c 2,78,-1
 539 76 l 2,79,80
 422 76 422 76 315 125 c 0,81,82
 314 125 314 125 313 126 c 0,83,84
 312 126 312 126 311.5 125.5 c 128,-1,85
 311 125 311 125 311 124 c 0,86,87
 311 123.5 l 0,88,-1
 311 123 l 0,89,90
 311 123 l 2,91,-1
 311 3 l 2,92,93
 311 2 311 2 310 1 c 128,-1,94
 309 0 309 0 308 0 c 2,46,-1
EndSplineSet
EndChar

StartChar: c
Encoding: 99 99 46
Width: 1375
VWidth: -3
Flags: W
LayerCount: 2
Fore
SplineSet
3 612 m 2,0,-1
 3 918 l 2,1,2
 3 950 3 950 6 980.5 c 128,-1,3
 9 1011 9 1011 14.5 1040 c 128,-1,4
 20 1069 20 1069 28.5 1097.5 c 128,-1,5
 37 1126 37 1126 48 1153 c 128,-1,6
 59 1180 59 1180 73 1206 c 128,-1,7
 87 1232 87 1232 104 1256.5 c 128,-1,8
 121 1281 121 1281 140.5 1304.5 c 128,-1,9
 160 1328 160 1328 182 1351 c 0,10,11
 272 1441 272 1441 380.5 1485.5 c 128,-1,12
 489 1530 489 1530 615 1530 c 2,13,-1
 883 1530 l 2,14,15
 1188 1530 1188 1530 1371 1287 c 0,16,17
 1372 1286 1372 1286 1372 1285 c 128,-1,18
 1372 1284 1372 1284 1371.5 1283.5 c 0,19,-1
 1371 1283 l 2,20,-1
 1130 1102 l 2,21,22
 1129 1101 1129 1101 1128 1101 c 128,-1,23
 1127 1101 1127 1101 1126.5 1101.5 c 128,-1,24
 1126 1102 1126 1102 1125 1102 c 0,25,26
 1034 1222 1034 1222 883 1223 c 2,27,-1
 615 1223 l 2,28,29
 599 1223 599 1223 584 1221.5 c 128,-1,30
 569 1220 569 1220 554.5 1217 c 128,-1,31
 540 1214 540 1214 526 1210 c 128,-1,32
 512 1206 512 1206 498.5 1200.5 c 128,-1,33
 485 1195 485 1195 472 1188 c 128,-1,34
 459 1181 459 1181 447 1172.5 c 128,-1,35
 435 1164 435 1164 423 1154 c 128,-1,36
 411 1144 411 1144 400 1133 c 0,37,38
 355 1088 355 1088 333 1034.5 c 128,-1,39
 311 981 311 981 311 918 c 2,40,-1
 311 612 l 2,41,42
 311 549 311 549 333 495 c 128,-1,43
 355 441 355 441 400 396.5 c 128,-1,44
 445 352 445 352 498.5 330 c 128,-1,45
 552 308 552 308 615 308 c 2,46,-1
 883 308 l 2,47,48
 1034 308 1034 308 1125 427 c 0,49,50
 1126 428 1126 428 1127 429 c 2,51,-1
 1128 429 l 2,52,53
 1128.5 429 l 0,54,55
 1129 429 1129 429 1129.5 428.5 c 0,56,-1
 1130 428 l 2,57,-1
 1371 248 l 2,58,59
 1372 247 1372 247 1372 245.5 c 128,-1,60
 1372 244 1372 244 1371 243 c 0,61,62
 1325 182 1325 182 1271.5 136.5 c 128,-1,63
 1218 91 1218 91 1157 60.5 c 128,-1,64
 1096 30 1096 30 1027.5 15 c 128,-1,65
 959 0 959 0 883 0 c 2,66,-1
 615 0 l 2,67,68
 361 0 361 0 182 179 c 128,-1,69
 3 358 3 358 3 612 c 2,0,-1
EndSplineSet
EndChar

StartChar: d
Encoding: 100 100 47
Width: 1383
VWidth: -3
Flags: W
LayerCount: 2
Fore
SplineSet
845 384 m 2,0,1
 891 384 891 384 933 402 c 128,-1,2
 975 420 975 420 1006 450.5 c 128,-1,3
 1037 481 1037 481 1055 524 c 0,4,5
 1073 566 1073 566 1073 612 c 0,6,7
 1073 618 1073 618 1072.5 624 c 128,-1,8
 1072 630 1072 630 1071.5 635.5 c 128,-1,9
 1071 641 1071 641 1070.5 646.5 c 128,-1,10
 1070 652 1070 652 1069 658 c 0,11,12
 1067 669 1067 669 1063.5 679.5 c 128,-1,13
 1060 690 1060 690 1056 700 c 128,-1,14
 1052 710 1052 710 1047 719.5 c 128,-1,15
 1042 729 1042 729 1035 738 c 0,16,17
 1022 756 1022 756 1005.5 773 c 128,-1,18
 989 790 989 790 970.5 802.5 c 128,-1,19
 952 815 952 815 932 824 c 0,20,21
 892 840 892 840 845 840 c 2,22,-1
 539 840 l 2,23,24
 492 840 492 840 451 824 c 0,25,26
 431 816 431 816 412.5 803 c 128,-1,27
 394 790 394 790 377.5 773.5 c 128,-1,28
 361 757 361 757 348.5 738.5 c 128,-1,29
 336 720 336 720 327.5 700 c 128,-1,30
 319 680 319 680 315 658 c 0,31,32
 313 647 313 647 312 635.5 c 128,-1,33
 311 624 311 624 311 612 c 0,34,35
 311 588 311 588 315 566.5 c 128,-1,36
 319 545 319 545 327.5 524.5 c 128,-1,37
 336 504 336 504 348.5 486 c 128,-1,38
 361 468 361 468 378 451 c 0,39,40
 411 417 411 417 451.5 400.5 c 128,-1,41
 492 384 492 384 539 384 c 2,42,-1
 845 384 l 2,0,1
1073 3 m 2,43,-1
 1073 123 l 2,44,45
 1073 124 1073 124 1072 125 c 128,-1,46
 1071 126 1071 126 1070 126 c 0,47,-1
 1069.5 126 l 0,48,49
 1069 126 1069 126 1068 125 c 0,50,51
 961 76 961 76 845 76 c 2,52,-1
 539 76 l 2,53,54
 317 76 317 76 160 233 c 128,-1,55
 3 390 3 390 3 612 c 0,56,57
 3 723 3 723 42.5 818 c 128,-1,58
 82 913 82 913 160 991 c 0,59,60
 317 1148 317 1148 539 1148 c 2,61,-1
 845 1148 l 2,62,63
 904 1148 904 1148 959.5 1135.5 c 128,-1,64
 1015 1123 1015 1123 1068 1099 c 0,65,66
 1069 1099 1069 1099 1069.5 1099 c 0,67,68
 1070 1099 l 0,69,70
 1071 1099 1071 1099 1072 1099 c 0,71,72
 1072.5 1099.5 l 0,73,74
 1073 1100 1073 1100 1073 1101 c 2,75,-1
 1073 1101 l 2,76,-1
 1073 1102 l 2,77,-1
 1073 1833 l 2,78,79
 1073 1834 1073 1834 1074 1835 c 128,-1,80
 1075 1836 1075 1836 1076 1836 c 2,81,-1
 1377 1836 l 2,82,83
 1378 1836 1378 1836 1379 1835 c 128,-1,84
 1380 1834 1380 1834 1380 1833 c 2,85,-1
 1380 3 l 2,86,87
 1380 2 1380 2 1379 1 c 128,-1,88
 1378 0 1378 0 1377 0 c 2,89,-1
 1076 0 l 2,90,91
 1075 0 1075 0 1074 1 c 128,-1,92
 1073 2 1073 2 1073 3 c 2,43,-1
EndSplineSet
EndChar

StartChar: e
Encoding: 101 101 48
Width: 1383
VWidth: -3
Flags: W
LayerCount: 2
Fore
SplineSet
314 919 m 2,0,-1
 1070 919 l 2,1,2
 1071 919 l 0,3,-1
 1072 920 l 0,4,5
 1072.5 920.5 l 0,6,7
 1073 921 1073 921 1073 921.5 c 0,8,-1
 1073 922 l 2,9,-1
 1073 994 l 2,10,11
 1073 1041 1073 1041 1056 1081.5 c 128,-1,12
 1039 1122 1039 1122 1006 1156 c 0,13,14
 998 1164 998 1164 989 1171.5 c 128,-1,15
 980 1179 980 1179 971 1185 c 0,16,17
 953 1198 953 1198 932 1206 c 0,18,19
 927 1208 927 1208 922 1210 c 128,-1,20
 917 1212 917 1212 911.5 1213.5 c 128,-1,21
 906 1215 906 1215 901 1216 c 128,-1,22
 896 1217 896 1217 890 1218 c 0,23,24
 868 1222 868 1222 845 1223 c 2,25,-1
 539 1223 l 2,26,27
 492 1223 492 1223 451.5 1206 c 128,-1,28
 411 1189 411 1189 377.5 1155.5 c 128,-1,29
 344 1122 344 1122 327 1082 c 0,30,31
 319 1062 319 1062 315 1040 c 128,-1,32
 311 1018 311 1018 311 994 c 2,33,-1
 311 922 l 2,34,35
 311 921 311 921 311 920.5 c 128,-1,36
 311 920 311 920 312 920 c 0,37,-1
 313 919 l 0,38,-1
 314 919 l 2,0,-1
3 994 m 2,39,40
 3 1068 3 1068 21 1135 c 0,41,42
 27 1157 27 1157 34.5 1178.5 c 128,-1,43
 42 1200 42 1200 51.5 1221 c 128,-1,44
 61 1242 61 1242 73 1261 c 0,45,46
 108 1320 108 1320 160 1373 c 0,47,48
 199 1412 199 1412 242.5 1441.5 c 128,-1,49
 286 1471 286 1471 333.5 1491 c 128,-1,50
 381 1511 381 1511 432 1520 c 0,51,52
 458 1525 458 1525 484.5 1527.5 c 128,-1,53
 511 1530 511 1530 539 1530 c 2,54,-1
 845 1530 l 2,55,56
 991 1530 991 1530 1114 1458 c 0,57,58
 1176 1422 1176 1422 1224 1374 c 0,59,60
 1240 1358 1240 1358 1255 1340 c 128,-1,61
 1270 1322 1270 1322 1283.5 1303 c 128,-1,62
 1297 1284 1297 1284 1309 1263 c 0,63,64
 1345 1201 1345 1201 1362.5 1134 c 128,-1,65
 1380 1067 1380 1067 1380 994 c 2,66,-1
 1380 614 l 2,67,68
 1380 613 1380 613 1379 612 c 128,-1,69
 1378 611 1378 611 1377 611 c 2,70,-1
 314 611 l 2,71,72
 313 611 313 611 312 610 c 128,-1,73
 311 609 311 609 311 608 c 2,74,-1
 311 459 l 2,75,76
 311 457 311 457 311 454.5 c 128,-1,77
 311 452 311 452 311 449.5 c 128,-1,78
 311 447 311 447 311.5 444.5 c 128,-1,79
 312 442 312 442 312 440 c 0,80,81
 313 435 313 435 313 430 c 0,82,83
 313 428 313 428 313.5 426.5 c 128,-1,84
 314 425 314 425 314.5 423.5 c 128,-1,85
 315 422 315 422 316 421 c 0,86,87
 317 416 317 416 318 411 c 0,88,89
 322 399 322 399 328 389 c 0,90,91
 331 384 331 384 333.5 379 c 128,-1,92
 336 374 336 374 340 370 c 0,93,94
 342 367 342 367 344.5 363.5 c 128,-1,95
 347 360 347 360 349.5 357.5 c 128,-1,96
 352 355 352 355 355 352 c 128,-1,97
 358 349 358 349 361 346.5 c 128,-1,98
 364 344 364 344 367 341.5 c 128,-1,99
 370 339 370 339 373 337 c 0,100,101
 379 332 379 332 385.5 328 c 128,-1,102
 392 324 392 324 399.5 321 c 128,-1,103
 407 318 407 318 414.5 315.5 c 128,-1,104
 422 313 422 313 430 311 c 128,-1,105
 438 309 438 309 446 308.5 c 128,-1,106
 454 308 454 308 462 308 c 2,107,-1
 921 308 l 2,108,109
 953 308 953 308 979.5 319 c 128,-1,110
 1006 330 1006 330 1028 352 c 128,-1,111
 1050 374 1050 374 1061 400 c 0,112,113
 1065 409 1065 409 1067.5 418.5 c 128,-1,114
 1070 428 1070 428 1071.5 437.5 c 128,-1,115
 1073 447 1073 447 1073 457 c 0,116,117
 1073 458 1073 458 1074 459 c 128,-1,118
 1075 460 1075 460 1076 460 c 2,119,-1
 1377 460 l 2,120,121
 1378 460 1378 460 1379 459 c 128,-1,122
 1380 458 1380 458 1380 457 c 0,123,124
 1379 268 1379 268 1246 135 c 0,125,126
 1212 101 1212 101 1175 75.5 c 128,-1,127
 1138 50 1138 50 1097 34 c 0,128,129
 1016 0 1016 0 921 0 c 2,130,-1
 462 0 l 2,131,132
 272 0 272 0 137.5 134.5 c 128,-1,133
 3 269 3 269 3 459 c 2,134,-1
 3 994 l 2,39,40
EndSplineSet
EndChar

StartChar: f
Encoding: 102 102 49
Width: 1383
VWidth: -3
Flags: W
LayerCount: 2
Fore
SplineSet
382 917 m 2,0,-1
 6 917 l 2,1,2
 5 917 5 917 4 918 c 128,-1,3
 3 919 3 919 3 920 c 2,4,-1
 3 1221 l 2,5,6
 3 1222 3 1222 4 1223 c 128,-1,7
 5 1224 5 1224 6 1224 c 2,8,-1
 382 1224 l 2,9,10
 383 1224 383 1224 383.5 1224.5 c 0,11,-1
 384 1225 l 0,12,13
 384.5 1226 l 0,14,-1
 385 1227 l 0,15,-1
 385 1228 l 2,16,-1
 385 1376 l 2,17,18
 385 1440 385 1440 400 1497 c 0,19,20
 407 1526 407 1526 418.5 1553 c 128,-1,21
 430 1580 430 1580 445 1605 c 0,22,23
 475 1656 475 1656 520 1701 c 0,24,25
 542 1723 542 1723 566 1742 c 128,-1,26
 590 1761 590 1761 615.5 1776 c 128,-1,27
 641 1791 641 1791 668 1802 c 128,-1,28
 695 1813 695 1813 724 1821 c 0,29,30
 781 1836 781 1836 845 1836 c 2,31,-1
 1377 1836 l 2,32,33
 1378 1836 1378 1836 1379 1835 c 128,-1,34
 1380 1834 1380 1834 1380 1833 c 2,35,-1
 1380 1531 l 2,36,37
 1380 1530 1380 1530 1379 1529 c 128,-1,38
 1378 1528 1378 1528 1377 1528 c 2,39,-1
 845 1528 l 2,40,41
 782 1528 782 1528 737.5 1483.5 c 128,-1,42
 693 1439 693 1439 693 1376 c 2,43,-1
 693 1228 l 2,44,45
 693 1227 693 1227 693 1226.5 c 128,-1,46
 693 1226 693 1226 694 1226 c 0,47,48
 694.5 1225.5 l 0,49,-1
 695 1225 l 0,50,-1
 695.5 1224.5 l 0,51,-1
 696 1224 l 2,52,-1
 1377 1224 l 2,53,54
 1378 1224 1378 1224 1379 1223 c 128,-1,55
 1380 1222 1380 1222 1380 1221 c 2,56,-1
 1380 920 l 2,57,58
 1380 919 1380 919 1379 918 c 128,-1,59
 1378 917 1378 917 1377 917 c 2,60,-1
 696 917 l 2,61,62
 695 917 695 917 694 916 c 128,-1,63
 693 915 693 915 693 914 c 2,64,-1
 693 3 l 2,65,66
 693 2 693 2 692 1 c 128,-1,67
 691 0 691 0 690 0 c 2,68,-1
 388 0 l 2,69,70
 387 0 387 0 386 1 c 128,-1,71
 385 2 385 2 385 3 c 2,72,-1
 385 914 l 2,73,74
 385 915 385 915 384 916 c 0,75,-1
 383 917 l 0,76,-1
 382 917 l 2,0,-1
EndSplineSet
EndChar

StartChar: g
Encoding: 103 103 50
Width: 1383
VWidth: -3
Flags: W
LayerCount: 2
Fore
SplineSet
921 842 m 2,0,1
 928 842 928 842 934.5 842.5 c 128,-1,2
 941 843 941 843 948 844.5 c 128,-1,3
 955 846 955 846 961 847 c 0,4,5
 980 852 980 852 997 862 c 128,-1,6
 1014 872 1014 872 1028 887 c 0,7,8
 1032 891 1032 891 1036.5 896 c 128,-1,9
 1041 901 1041 901 1044.5 905.5 c 128,-1,10
 1048 910 1048 910 1051 915 c 128,-1,11
 1054 920 1054 920 1056.5 925.5 c 128,-1,12
 1059 931 1059 931 1062 936 c 0,13,14
 1073 963 1073 963 1073 994.5 c 128,-1,15
 1073 1026 1073 1026 1062 1053 c 128,-1,16
 1051 1080 1051 1080 1028.5 1102 c 128,-1,17
 1006 1124 1006 1124 979 1135 c 128,-1,18
 952 1146 952 1146 921 1146 c 2,19,-1
 462 1146 l 2,20,21
 452 1146 452 1146 442 1145 c 128,-1,22
 432 1144 432 1144 422.5 1141.5 c 128,-1,23
 413 1139 413 1139 404 1135 c 0,24,25
 391 1129 391 1129 378.5 1121 c 128,-1,26
 366 1113 366 1113 355 1102 c 0,27,28
 333 1080 333 1080 322 1053 c 128,-1,29
 311 1026 311 1026 311 994 c 0,30,31
 311 931 311 931 355.5 886.5 c 128,-1,32
 400 842 400 842 462 842 c 2,33,-1
 921 842 l 2,0,1
6 460 m 0,34,-1
 8 460 l 1,35,-1
 8 460 l 1,36,-1
 6 460 l 1,37,-1
 308 460 l 2,38,39
 309 460 309 460 310 459 c 128,-1,40
 311 458 311 458 311 457 c 0,41,42
 311 445 311 445 313 433 c 0,43,44
 314 429 314 429 314.5 425.5 c 128,-1,45
 315 422 315 422 316 418 c 128,-1,46
 317 414 317 414 318 411 c 0,47,48
 319 409 319 409 319.5 406.5 c 128,-1,49
 320 404 320 404 321 402 c 128,-1,50
 322 400 322 400 323 398 c 128,-1,51
 324 396 324 396 325 394 c 128,-1,52
 326 392 326 392 327 390 c 0,53,54
 332 380 332 380 339 370.5 c 128,-1,55
 346 361 346 361 355 352 c 0,56,57
 377 330 377 330 404 319 c 0,58,59
 417 313 417 313 432 310.5 c 0,60,61
 446 308 446 308 462 308 c 2,62,-1
 921 308 l 2,63,64
 984 308 984 308 1028 352 c 0,65,66
 1050 374 1050 374 1061.5 401 c 128,-1,67
 1073 428 1073 428 1073 459 c 2,68,-1
 1073 556 l 2,69,70
 1073 557 1073 557 1072 558.5 c 128,-1,71
 1071 560 1071 560 1070 559 c 2,72,-1
 1069 559 l 1,73,74
 1045 551 1045 551 1020.5 545.5 c 128,-1,75
 996 540 996 540 971 537.5 c 128,-1,76
 946 535 946 535 921 535 c 2,77,-1
 463 535 l 2,78,79
 273 535 273 535 138 669.5 c 128,-1,80
 3 804 3 804 3 994 c 0,81,82
 3 1057 3 1057 18 1114.5 c 128,-1,83
 33 1172 33 1172 63 1223 c 128,-1,84
 93 1274 93 1274 138 1319 c 0,85,86
 205 1386 205 1386 286 1420 c 0,87,88
 366 1454 366 1454 462 1454 c 2,89,-1
 921 1454 l 2,90,91
 997 1454 997 1454 1069 1429 c 0,92,-1
 1070 1429 l 0,93,-1
 1070 1429 l 0,94,95
 1071 1429 1071 1429 1072 1430 c 0,96,-1
 1073 1431 l 0,97,-1
 1073 1432 l 2,98,-1
 1073 1523 l 2,99,100
 1073 1524 1073 1524 1074 1525 c 128,-1,101
 1075 1526 1075 1526 1076 1526 c 2,102,-1
 1377 1530 l 2,103,104
 1378 1530 1378 1530 1379 1529 c 128,-1,105
 1380 1528 1380 1528 1380 1527 c 2,106,-1
 1380 459 l 2,107,108
 1380 364 1380 364 1347 283 c 0,109,110
 1340 267 1340 267 1332 251 c 128,-1,111
 1324 235 1324 235 1314.5 220 c 128,-1,112
 1305 205 1305 205 1294.5 190.5 c 128,-1,113
 1284 176 1284 176 1271.5 162 c 128,-1,114
 1259 148 1259 148 1246 135 c 0,115,116
 1212 101 1212 101 1175 75.5 c 128,-1,117
 1138 50 1138 50 1097 34 c 0,118,119
 1016 0 1016 0 921 0 c 2,120,-1
 462 0 l 2,121,122
 272 0 272 0 138 135 c 0,123,124
 4 269 4 269 3 457 c 0,125,126
 3 458 3 458 3.5 458.5 c 128,-1,127
 4 459 4 459 4 460 c 0,128,129
 4.5 460 l 0,130,-1
 5 460 l 0,131,-1
 6 460 l 0,34,-1
EndSplineSet
EndChar

StartChar: h
Encoding: 104 104 51
Width: 1383
VWidth: -3
Flags: W
LayerCount: 2
Fore
SplineSet
315 1047 m 0,0,1
 380 1071 380 1071 462 1072 c 2,2,-1
 921 1072 l 1,3,4
 1109 1073 1109 1073 1246 937 c 0,5,6
 1313 869 1313 869 1346.5 788 c 128,-1,7
 1380 707 1380 707 1380 612 c 2,8,-1
 1380 3 l 2,9,10
 1380 2 1380 2 1379 1 c 128,-1,11
 1378 0 1378 0 1377 0 c 2,12,-1
 1076 0 l 2,13,14
 1075 0 1075 0 1074 1 c 128,-1,15
 1073 2 1073 2 1073 3 c 2,16,-1
 1073 612 l 2,17,18
 1073 618 1073 618 1072.5 624.5 c 128,-1,19
 1072 631 1072 631 1071 637 c 0,20,21
 1069 649 1069 649 1065.5 660.5 c 128,-1,22
 1062 672 1062 672 1056.5 682 c 128,-1,23
 1051 692 1051 692 1044 701.5 c 128,-1,24
 1037 711 1037 711 1028 720 c 0,25,26
 984 765 984 765 921 764 c 2,27,-1
 462 764 l 2,28,29
 449 764 449 764 437.5 762 c 128,-1,30
 426 760 426 760 414.5 756.5 c 128,-1,31
 403 753 403 753 393 747.5 c 128,-1,32
 383 742 383 742 373.5 735 c 128,-1,33
 364 728 364 728 355 720 c 0,34,35
 349 714 349 714 344.5 708.5 c 128,-1,36
 340 703 340 703 336 696.5 c 128,-1,37
 332 690 332 690 328.5 683.5 c 128,-1,38
 325 677 325 677 322 671 c 0,39,40
 316 658 316 658 313.5 643 c 128,-1,41
 311 628 311 628 311 612 c 2,42,-1
 311 3 l 2,43,44
 311 2 311 2 310 1 c 0,45,46
 310 0 310 0 308 0 c 2,47,-1
 6 0 l 2,48,49
 5 0 5 0 4 1 c 128,-1,50
 3 2 3 2 3 3 c 2,51,-1
 3 1833 l 2,52,53
 3 1834 3 1834 4 1835 c 128,-1,54
 5 1836 5 1836 6 1836 c 2,55,-1
 304 1836 l 2,56,57
 305 1836 305 1836 306 1835 c 128,-1,58
 307 1834 307 1834 307 1833 c 2,59,-1
 311 1050 l 2,60,-1
 311 1049.5 l 0,61,-1
 311 1049 l 0,62,63
 311 1048 l 0,64,65
 312 1047 l 0,66,67
 312.5 1047 l 0,68,69
 313 1047 313 1047 314 1047 c 0,70,-1
 314 1047 l 0,71,-1
 315 1047 l 0,0,1
EndSplineSet
EndChar

StartChar: i
Encoding: 105 105 52
Width: 1383
VWidth: -3
Flags: W
LayerCount: 2
Fore
SplineSet
538 1606 m 2,0,-1
 538 1758 l 2,1,2
 538 1790 538 1790 560.5 1813 c 128,-1,3
 583 1836 583 1836 615 1836 c 2,4,-1
 768 1836 l 2,5,6
 770 1836 770 1836 772.5 1836 c 128,-1,7
 775 1836 775 1836 777 1835.5 c 128,-1,8
 779 1835 779 1835 781.5 1834.5 c 128,-1,9
 784 1834 784 1834 786 1833.5 c 128,-1,10
 788 1833 788 1833 790 1832.5 c 128,-1,11
 792 1832 792 1832 794 1831.5 c 128,-1,12
 796 1831 796 1831 798 1830 c 128,-1,13
 800 1829 800 1829 802 1828 c 128,-1,14
 804 1827 804 1827 806.5 1825.5 c 128,-1,15
 809 1824 809 1824 811 1823 c 128,-1,16
 813 1822 813 1822 815 1820 c 128,-1,17
 817 1818 817 1818 819 1816.5 c 128,-1,18
 821 1815 821 1815 823 1813 c 0,19,20
 831 1805 831 1805 835 1797 c 0,21,22
 838 1793 838 1793 840 1788.5 c 128,-1,23
 842 1784 842 1784 843 1779 c 0,24,25
 846 1769 846 1769 846 1758 c 2,26,-1
 846 1606 l 2,27,28
 846 1574 846 1574 823 1551 c 128,-1,29
 800 1528 800 1528 768 1528 c 2,30,-1
 615 1528 l 2,31,32
 613 1528 613 1528 611 1528 c 128,-1,33
 609 1528 609 1528 607 1528.5 c 128,-1,34
 605 1529 605 1529 603 1529 c 128,-1,35
 601 1529 601 1529 599 1529.5 c 128,-1,36
 597 1530 597 1530 595 1531 c 0,37,38
 585 1533 585 1533 577 1538 c 0,39,40
 568 1543 568 1543 561 1551 c 0,41,42
 558 1554 558 1554 555.5 1557 c 128,-1,43
 553 1560 553 1560 551 1563 c 128,-1,44
 549 1566 549 1566 547 1569 c 128,-1,45
 545 1572 545 1572 543.5 1575.5 c 128,-1,46
 542 1579 542 1579 541 1582.5 c 128,-1,47
 540 1586 540 1586 539.5 1590 c 128,-1,48
 539 1594 539 1594 538.5 1598 c 128,-1,49
 538 1602 538 1602 538 1606 c 2,0,-1
535 1070 m 2,50,-1
 6 1070 l 2,51,52
 5 1070 5 1070 4 1071 c 128,-1,53
 3 1072 3 1072 3 1073 c 2,54,-1
 3 1374 l 2,55,56
 3 1375 3 1375 4 1376 c 128,-1,57
 5 1377 5 1377 6 1377 c 2,58,-1
 838 1377 l 2,59,60
 839 1377 839 1377 840 1376.5 c 128,-1,61
 841 1376 841 1376 841.5 1375.5 c 128,-1,62
 842 1375 842 1375 842 1374 c 2,63,-1
 846 459 l 2,64,65
 846 451 846 451 846.5 443.5 c 128,-1,66
 847 436 847 436 848.5 429 c 128,-1,67
 850 422 850 422 852 415 c 128,-1,68
 854 408 854 408 857 401 c 0,69,70
 863 388 863 388 871 375.5 c 128,-1,71
 879 363 879 363 890 352 c 0,72,73
 912 330 912 330 939 319 c 0,74,75
 952 313 952 313 967 310.5 c 128,-1,76
 982 308 982 308 997 308 c 2,77,-1
 1377 308 l 2,78,79
 1378 308 1378 308 1379 307 c 128,-1,80
 1380 306 1380 306 1380 304 c 2,81,-1
 1380 3 l 2,82,83
 1380 2 1380 2 1379 1 c 128,-1,84
 1378 0 1378 0 1377 0 c 2,85,-1
 997 0 l 2,86,87
 934 0 934 0 877 15 c 128,-1,88
 820 30 820 30 768 60 c 0,89,90
 751 70 751 70 735 81.5 c 128,-1,91
 719 93 719 93 703.5 106.5 c 128,-1,92
 688 120 688 120 673 135 c 0,93,94
 606 202 606 202 572 283 c 0,95,96
 555 324 555 324 546.5 368 c 128,-1,97
 538 412 538 412 538 459 c 2,98,-1
 538 1067 l 2,99,-1
 538 1067.5 l 0,100,101
 538 1068 538 1068 537.5 1068 c 128,-1,102
 537 1068 537 1068 537 1069 c 0,103,-1
 536.5 1069 l 0,104,105
 536 1069 536 1069 536 1069.5 c 128,-1,106
 536 1070 536 1070 535.5 1070 c 0,107,-1
 535 1070 l 2,50,-1
EndSplineSet
EndChar

StartChar: j
Encoding: 106 106 53
Width: 1383
VWidth: -3
Flags: W
LayerCount: 2
Fore
SplineSet
691 1606 m 2,0,-1
 691 1758 l 2,1,2
 691 1790 691 1790 713.5 1813 c 128,-1,3
 736 1836 736 1836 768 1836 c 2,4,-1
 921 1836 l 2,5,6
 932 1836 932 1836 941 1833 c 0,7,8
 943 1832 943 1832 945.5 1831.5 c 128,-1,9
 948 1831 948 1831 950.5 1830 c 128,-1,10
 953 1829 953 1829 955 1828 c 128,-1,11
 957 1827 957 1827 960 1826 c 0,12,13
 961 1825 961 1825 961.5 1824.5 c 128,-1,14
 962 1824 962 1824 963 1823.5 c 128,-1,15
 964 1823 964 1823 965 1822 c 128,-1,16
 966 1821 966 1821 967 1820.5 c 128,-1,17
 968 1820 968 1820 969 1819.5 c 128,-1,18
 970 1819 970 1819 970.5 1818 c 128,-1,19
 971 1817 971 1817 972 1816.5 c 128,-1,20
 973 1816 973 1816 974 1815 c 128,-1,21
 975 1814 975 1814 976 1813 c 0,22,23
 984 1805 984 1805 988 1797 c 0,24,25
 993 1788 993 1788 996 1779 c 0,26,27
 997 1774 997 1774 997.5 1769 c 128,-1,28
 998 1764 998 1764 998 1758 c 2,29,-1
 998 1606 l 2,30,31
 998 1574 998 1574 975.5 1551 c 128,-1,32
 953 1528 953 1528 921 1528 c 2,33,-1
 768 1528 l 2,34,35
 752 1528 752 1528 738.5 1533.5 c 128,-1,36
 725 1539 725 1539 713.5 1550.5 c 128,-1,37
 702 1562 702 1562 696.5 1576 c 128,-1,38
 691 1590 691 1590 691 1606 c 2,0,-1
998 765 m 2,39,40
 998 448 998 448 774 224 c 128,-1,41
 550 0 550 0 233 0 c 2,42,-1
 6 0 l 2,43,44
 5 0 5 0 4 1 c 128,-1,45
 3 2 3 2 3 3 c 2,46,-1
 3 304 l 2,47,48
 3 305 3 305 4 306.5 c 128,-1,49
 5 308 5 308 6 308 c 2,50,-1
 233 308 l 2,51,52
 423 308 423 308 557 441 c 0,53,54
 624 508 624 508 657.5 589 c 128,-1,55
 691 670 691 670 691 765 c 2,56,-1
 691 1374 l 2,57,58
 691 1375 691 1375 692 1376 c 128,-1,59
 693 1377 693 1377 694 1377 c 2,60,-1
 1377 1377 l 2,61,62
 1378 1377 1378 1377 1379 1376 c 128,-1,63
 1380 1375 1380 1375 1380 1374 c 2,64,-1
 1380 1073 l 2,65,66
 1380 1072 1380 1072 1379 1071 c 128,-1,67
 1378 1070 1378 1070 1377 1070 c 2,68,-1
 1002 1070 l 2,69,70
 1001 1070 1001 1070 1000.5 1069.5 c 128,-1,71
 1000 1069 1000 1069 999 1069 c 0,72,73
 999 1068.5 l 0,74,75
 999 1068 999 1068 998.5 1067.5 c 0,76,-1
 998 1067 l 2,77,-1
 998 765 l 2,39,40
EndSplineSet
EndChar

StartChar: k
Encoding: 107 107 54
Width: 1383
VWidth: -3
Flags: W
LayerCount: 2
Fore
SplineSet
1377 2 m 1,0,1
 1377 1 1377 1 1376 1 c 2,2,-1
 1375 0 l 1,3,-1
 949 0 l 2,4,5
 948 0 948 0 946 1 c 2,6,-1
 401 545 l 2,7,8
 400 546 400 546 399 546 c 128,-1,9
 398 546 398 546 397 545 c 2,10,-1
 312 460 l 2,11,12
 311 459 311 459 311 458 c 2,13,-1
 311 3 l 2,14,15
 311 2 311 2 310 1 c 0,16,17
 310 0 310 0 308 0 c 2,18,-1
 6 0 l 2,19,20
 5 0 5 0 4 1 c 128,-1,21
 3 2 3 2 3 3 c 2,22,-1
 3 1833 l 2,23,24
 3 1834 3 1834 4 1835 c 128,-1,25
 5 1836 5 1836 6 1836 c 2,26,-1
 308 1836 l 2,27,28
 309 1836 309 1836 310 1835 c 128,-1,29
 311 1834 311 1834 311 1833 c 2,30,-1
 311 901 l 2,31,32
 311 900 l 0,33,34
 311.5 899.5 l 0,35,-1
 312 899 l 0,36,-1
 312 899 l 0,37,38
 313 899 313 899 314 898 c 0,39,40
 315 898 315 898 316 899 c 2,41,-1
 946 1529 l 1,42,-1
 947 1530 l 2,43,44
 947.5 1530 l 0,45,46
 948 1530 948 1530 949 1530 c 2,47,-1
 1374 1530 l 2,48,49
 1375 1530 1375 1530 1376.5 1529 c 128,-1,50
 1378 1528 1378 1528 1377 1527 c 0,51,52
 1377 1526 1377 1526 1376 1525 c 2,53,-1
 619 767 l 2,54,-1
 618 766 l 0,55,-1
 618 765 l 0,56,57
 618 764 618 764 619 763 c 2,58,-1
 1376 5 l 2,59,60
 1377 4 l 2,61,-1
 1377 2 l 1,0,1
EndSplineSet
EndChar

StartChar: l
Encoding: 108 108 55
Width: 1383
VWidth: -3
Flags: W
LayerCount: 2
Fore
SplineSet
306 1528 m 2,0,-1
 6 1528 l 2,1,2
 5 1528 5 1528 4 1529 c 128,-1,3
 3 1530 3 1530 3 1531 c 2,4,-1
 3 1833 l 2,5,6
 3 1834 3 1834 4 1835 c 128,-1,7
 5 1836 5 1836 6 1836 c 2,8,-1
 613 1836 l 2,9,10
 614 1836 614 1836 615 1835 c 128,-1,11
 616 1834 616 1834 616 1833 c 2,12,-1
 616 459 l 2,13,14
 616 452 616 452 616.5 445.5 c 128,-1,15
 617 439 617 439 618.5 432.5 c 128,-1,16
 620 426 620 426 621 420 c 0,17,18
 626 401 626 401 636 384 c 0,19,20
 639 378 639 378 643 372.5 c 128,-1,21
 647 367 647 367 651.5 362 c 128,-1,22
 656 357 656 357 661 352 c 0,23,24
 683 330 683 330 710 319 c 0,25,26
 719 315 719 315 728.5 312.5 c 128,-1,27
 738 310 738 310 748 309 c 128,-1,28
 758 308 758 308 768 308 c 2,29,-1
 1377 308 l 2,30,31
 1378 308 1378 308 1379 307 c 128,-1,32
 1380 306 1380 306 1380 304 c 2,33,-1
 1380 3 l 2,34,35
 1380 2 1380 2 1379 1 c 128,-1,36
 1378 0 1378 0 1377 0 c 2,37,-1
 768 0 l 2,38,39
 578 0 578 0 443.5 134.5 c 128,-1,40
 309 269 309 269 309 459 c 2,41,-1
 309 1525 l 2,42,43
 309 1526 309 1526 308 1527 c 0,44,45
 307 1528 l 0,46,-1
 306 1528 l 2,0,-1
EndSplineSet
EndChar

StartChar: m
Encoding: 109 109 56
Width: 1383
VWidth: -3
Flags: W
LayerCount: 2
Fore
SplineSet
311 1527 m 2,0,-1
 311 1442 l 2,1,2
 311 1441 311 1441 312 1440 c 128,-1,3
 313 1439 313 1439 314 1439 c 0,4,5
 314 1439 l 0,6,-1
 314.5 1439 l 0,7,-1
 315 1439 l 0,8,9
 523 1495 523 1495 690 1359 c 0,10,11
 690.5 1359 l 0,12,13
 691 1359 691 1359 691.5 1359 c 128,-1,14
 692 1359 692 1359 692.5 1359 c 128,-1,15
 693 1359 693 1359 694 1359 c 0,16,17
 725 1384 725 1384 759.5 1403 c 128,-1,18
 794 1422 794 1422 831 1434 c 128,-1,19
 868 1446 868 1446 908 1451 c 0,20,21
 1028 1466 1028 1466 1139 1413 c 0,22,23
 1194 1387 1194 1387 1238 1348.5 c 128,-1,24
 1282 1310 1282 1310 1315 1258 c 0,25,26
 1337 1224 1337 1224 1351.5 1187.5 c 128,-1,27
 1366 1151 1366 1151 1373 1112 c 0,28,29
 1377 1093 1377 1093 1378.5 1073 c 0,30,31
 1380 1052 1380 1052 1380 1032 c 2,32,-1
 1380 3 l 2,33,34
 1380 2 1380 2 1379 1 c 128,-1,35
 1378 0 1378 0 1377 0 c 2,36,-1
 1076 0 l 2,37,38
 1075 0 1075 0 1074 1 c 128,-1,39
 1073 2 1073 2 1073 3 c 2,40,-1
 1073 1032 l 2,41,42
 1073 1056 1073 1056 1064.5 1076 c 128,-1,43
 1056 1096 1056 1096 1040 1113 c 0,44,45
 1007 1146 1007 1146 959 1146 c 0,46,47
 936 1146 936 1146 915.5 1137.5 c 128,-1,48
 895 1129 895 1129 878.5 1112.5 c 128,-1,49
 862 1096 862 1096 854 1076 c 128,-1,50
 846 1056 846 1056 846 1032 c 2,51,-1
 846 3 l 2,52,53
 846 2 846 2 845 1 c 128,-1,54
 844 0 844 0 842 0 c 2,55,-1
 541 0 l 2,56,57
 540 0 540 0 539 1 c 128,-1,58
 538 2 538 2 538 3 c 2,59,-1
 538 1032 l 2,60,61
 538 1036 538 1036 538 1040 c 128,-1,62
 538 1044 538 1044 537.5 1047.5 c 128,-1,63
 537 1051 537 1051 536 1055 c 128,-1,64
 535 1059 535 1059 534 1062 c 0,65,66
 532 1069 532 1069 529.5 1076 c 128,-1,67
 527 1083 527 1083 523 1089 c 0,68,69
 521 1093 521 1093 518 1097 c 128,-1,70
 515 1101 515 1101 511.5 1105 c 128,-1,71
 508 1109 508 1109 505 1113 c 0,72,73
 497 1121 497 1121 487.5 1127.5 c 128,-1,74
 478 1134 478 1134 468 1138 c 0,75,76
 448 1146 448 1146 424 1146 c 0,77,78
 421 1146 421 1146 419 1146 c 128,-1,79
 417 1146 417 1146 414.5 1146 c 128,-1,80
 412 1146 412 1146 409.5 1145.5 c 128,-1,81
 407 1145 407 1145 404.5 1144.5 c 128,-1,82
 402 1144 402 1144 399.5 1143.5 c 128,-1,83
 397 1143 397 1143 394 1142 c 0,84,85
 380 1138 380 1138 368 1131 c 0,86,87
 362 1127 362 1127 355.5 1122.5 c 128,-1,88
 349 1118 349 1118 344 1113 c 0,89,90
 327 1096 327 1096 319 1076 c 128,-1,91
 311 1056 311 1056 311 1032 c 2,92,-1
 311 3 l 2,93,94
 311 2 311 2 310 1 c 0,95,96
 310 0 310 0 308 0 c 2,97,-1
 6 0 l 2,98,99
 5 0 5 0 4 1 c 128,-1,100
 3 2 3 2 3 3 c 2,101,-1
 3 1527 l 2,102,103
 3 1528 3 1528 4 1529 c 128,-1,104
 5 1530 5 1530 6 1530 c 2,105,-1
 308 1530 l 2,106,107
 309 1530 309 1530 310 1529 c 128,-1,108
 311 1528 311 1528 311 1527 c 2,0,-1
EndSplineSet
EndChar

StartChar: n
Encoding: 110 110 57
Width: 1383
VWidth: -3
Flags: W
LayerCount: 2
Fore
SplineSet
315 1375 m 0,0,1
 455 1454 455 1454 615 1454 c 2,2,-1
 768 1454 l 2,3,4
 1022 1454 1022 1454 1201 1274 c 0,5,6
 1291 1184 1291 1184 1335.5 1076 c 128,-1,7
 1380 968 1380 968 1380 842 c 2,8,-1
 1380 3 l 2,9,10
 1380 2 1380 2 1379 1 c 128,-1,11
 1378 0 1378 0 1377 0 c 2,12,-1
 1076 0 l 2,13,14
 1075 0 1075 0 1074 1 c 128,-1,15
 1073 2 1073 2 1073 3 c 2,16,-1
 1073 842 l 2,17,18
 1073 855 1073 855 1072 867 c 128,-1,19
 1071 879 1071 879 1069 890 c 0,20,21
 1065 914 1065 914 1058 936.5 c 128,-1,22
 1051 959 1051 959 1040.5 979.5 c 128,-1,23
 1030 1000 1030 1000 1015.5 1019.5 c 128,-1,24
 1001 1039 1001 1039 984 1057 c 0,25,26
 962 1079 962 1079 937 1096 c 128,-1,27
 912 1113 912 1113 885 1124 c 0,28,29
 831 1146 831 1146 768 1146 c 2,30,-1
 615 1146 l 2,31,32
 599 1146 599 1146 584 1144.5 c 128,-1,33
 569 1143 569 1143 554.5 1140.5 c 128,-1,34
 540 1138 540 1138 526 1133.5 c 128,-1,35
 512 1129 512 1129 498.5 1123.5 c 128,-1,36
 485 1118 485 1118 472 1111 c 128,-1,37
 459 1104 459 1104 447 1096 c 0,38,39
 439 1090 439 1090 431 1084 c 128,-1,40
 423 1078 423 1078 415 1071 c 128,-1,41
 407 1064 407 1064 400 1057 c 0,42,43
 355 1012 355 1012 333 958 c 0,44,45
 322 931 322 931 316.5 902 c 0,46,47
 311 874 311 874 311 842 c 2,48,-1
 311 3 l 2,49,50
 311 2 311 2 310 1 c 0,51,52
 310 0 310 0 308 0 c 2,53,-1
 6 0 l 2,54,55
 5 0 5 0 4 1 c 128,-1,56
 3 2 3 2 3 3 c 2,57,-1
 3 1527 l 2,58,59
 3 1528 3 1528 4 1529 c 128,-1,60
 5 1530 5 1530 6 1530 c 2,61,-1
 308 1530 l 2,62,63
 309 1530 309 1530 310 1529 c 128,-1,64
 311 1528 311 1528 311 1527 c 2,65,-1
 311 1378 l 2,66,67
 311 1377 311 1377 312 1376 c 128,-1,68
 313 1375 313 1375 314 1375 c 0,69,-1
 315 1375 l 0,0,1
EndSplineSet
EndChar

StartChar: o
Encoding: 111 111 58
Width: 1383
VWidth: -3
Flags: W
LayerCount: 2
Fore
SplineSet
1073 918 m 2,0,1
 1073 1001 1073 1001 1032 1071 c 0,2,3
 1029 1077 1029 1077 1025 1082.5 c 128,-1,4
 1021 1088 1021 1088 1017.5 1093.5 c 128,-1,5
 1014 1099 1014 1099 1010 1104 c 128,-1,6
 1006 1109 1006 1109 1001.5 1114 c 128,-1,7
 997 1119 997 1119 993 1124 c 128,-1,8
 989 1129 989 1129 984 1134 c 0,9,10
 978 1140 978 1140 972.5 1145 c 128,-1,11
 967 1150 967 1150 960.5 1155 c 128,-1,12
 954 1160 954 1160 948 1164.5 c 128,-1,13
 942 1169 942 1169 935 1173.5 c 128,-1,14
 928 1178 928 1178 921 1182 c 0,15,16
 909 1189 909 1189 897 1194.5 c 128,-1,17
 885 1200 885 1200 873 1204.5 c 128,-1,18
 861 1209 861 1209 848 1212 c 0,19,20
 810 1222 810 1222 768 1223 c 2,21,-1
 615 1223 l 2,22,23
 532 1223 532 1223 462 1182 c 0,24,25
 444 1172 444 1172 428.5 1160 c 128,-1,26
 413 1148 413 1148 400 1134 c 0,27,28
 372 1106 372 1106 351 1071 c 0,29,30
 346 1062 346 1062 341.5 1053 c 128,-1,31
 337 1044 337 1044 334 1035 c 0,32,33
 326 1017 326 1017 321 997 c 0,34,35
 319 991 319 991 317.5 984.5 c 128,-1,36
 316 978 316 978 315 971.5 c 128,-1,37
 314 965 314 965 313 958 c 0,38,39
 312 948 312 948 311.5 938 c 128,-1,40
 311 928 311 928 311 918 c 2,41,-1
 311 612 l 2,42,43
 311 549 311 549 333 495 c 128,-1,44
 355 441 355 441 400 396.5 c 128,-1,45
 445 352 445 352 498.5 330 c 128,-1,46
 552 308 552 308 615 308 c 2,47,-1
 768 308 l 2,48,49
 851 308 851 308 921 348 c 0,50,51
 956 368 956 368 984 396 c 128,-1,52
 1012 424 1012 424 1032 459 c 0,53,54
 1042 477 1042 477 1050 495 c 128,-1,55
 1058 513 1058 513 1063 533 c 0,56,57
 1073 571 1073 571 1073 612 c 2,58,-1
 1073 918 l 2,0,1
1380 918 m 2,59,-1
 1380 612 l 2,60,61
 1380 485 1380 485 1336 377 c 0,62,63
 1331 365 1331 365 1325.5 353.5 c 128,-1,64
 1320 342 1320 342 1313.5 330 c 128,-1,65
 1307 318 1307 318 1300.5 307 c 128,-1,66
 1294 296 1294 296 1287 285 c 128,-1,67
 1280 274 1280 274 1272 263 c 128,-1,68
 1264 252 1264 252 1256 241.5 c 128,-1,69
 1248 231 1248 231 1239 220.5 c 128,-1,70
 1230 210 1230 210 1220.5 199.5 c 128,-1,71
 1211 189 1211 189 1201 179 c 0,72,73
 1022 0 1022 0 768 0 c 2,74,-1
 615 0 l 2,75,76
 361 0 361 0 182 179.5 c 128,-1,77
 3 359 3 359 3 612 c 2,78,-1
 3 918 l 2,79,80
 3 950 3 950 6 980.5 c 128,-1,81
 9 1011 9 1011 14.5 1040 c 128,-1,82
 20 1069 20 1069 28.5 1097.5 c 128,-1,83
 37 1126 37 1126 48 1153 c 128,-1,84
 59 1180 59 1180 73 1206 c 128,-1,85
 87 1232 87 1232 104 1256.5 c 128,-1,86
 121 1281 121 1281 140.5 1304.5 c 128,-1,87
 160 1328 160 1328 182 1351 c 0,88,89
 272 1441 272 1441 380.5 1485.5 c 128,-1,90
 489 1530 489 1530 615 1530 c 2,91,-1
 768 1530 l 2,92,93
 786 1530 786 1530 804 1529 c 128,-1,94
 822 1528 822 1528 839 1526.5 c 128,-1,95
 856 1525 856 1525 873 1522 c 128,-1,96
 890 1519 890 1519 907 1515.5 c 128,-1,97
 924 1512 924 1512 940 1507.5 c 128,-1,98
 956 1503 956 1503 972 1497.5 c 128,-1,99
 988 1492 988 1492 1003 1485 c 0,100,101
 1057 1463 1057 1463 1106.5 1429.5 c 128,-1,102
 1156 1396 1156 1396 1201 1351 c 128,-1,103
 1246 1306 1246 1306 1280 1256 c 0,104,105
 1297 1231 1297 1231 1310.5 1205.5 c 128,-1,106
 1324 1180 1324 1180 1336 1153 c 0,107,108
 1358 1099 1358 1099 1369 1040 c 0,109,110
 1380 981 1380 981 1380 918 c 2,59,-1
EndSplineSet
EndChar

StartChar: p
Encoding: 112 112 59
Width: 1383
VWidth: -3
Flags: W
LayerCount: 2
Fore
SplineSet
315 1467 m 1,0,1
 333 1473 333 1473 351 1478 c 128,-1,2
 369 1483 369 1483 387.5 1486 c 128,-1,3
 406 1489 406 1489 425 1490.5 c 128,-1,4
 444 1492 444 1492 462 1492 c 2,5,-1
 921 1492 l 2,6,7
 931 1492 931 1492 941.5 1491.5 c 128,-1,8
 952 1491 952 1491 962 1490 c 128,-1,9
 972 1489 972 1489 982 1488 c 0,10,11
 1012 1484 1012 1484 1041 1477 c 0,12,13
 1055 1473 1055 1473 1069.5 1468 c 128,-1,14
 1084 1463 1084 1463 1097.5 1457.5 c 128,-1,15
 1111 1452 1111 1452 1124.5 1445 c 128,-1,16
 1138 1438 1138 1438 1152 1430 c 0,17,18
 1167 1421 1167 1421 1181 1411.5 c 128,-1,19
 1195 1402 1195 1402 1208.5 1391.5 c 128,-1,20
 1222 1381 1222 1381 1234 1369.5 c 128,-1,21
 1246 1358 1246 1358 1257.5 1345.5 c 128,-1,22
 1269 1333 1269 1333 1280 1320 c 128,-1,23
 1291 1307 1291 1307 1300.5 1292.5 c 128,-1,24
 1310 1278 1310 1278 1319 1263 c 0,25,26
 1350 1210 1350 1210 1365 1152.5 c 0,27,28
 1380 1094 1380 1094 1380 1032 c 0,29,30
 1380 937 1380 937 1346.5 856 c 128,-1,31
 1313 775 1313 775 1246 708 c 0,32,33
 1224 686 1224 686 1199.5 667 c 128,-1,34
 1175 648 1175 648 1150 633 c 0,35,36
 1137 626 1137 626 1124 619 c 128,-1,37
 1111 612 1111 612 1097.5 606.5 c 128,-1,38
 1084 601 1084 601 1070 596.5 c 128,-1,39
 1056 592 1056 592 1042 588 c 0,40,41
 985 573 985 573 921 573 c 2,42,-1
 462 573 l 2,43,44
 424 573 424 573 387.5 579 c 128,-1,45
 351 585 351 585 315 598 c 0,46,47
 314 598 314 598 313.5 598 c 128,-1,48
 313 598 313 598 312 597 c 0,49,-1
 312 597 l 0,50,-1
 311.5 597 l 0,51,52
 311 597 311 597 311 596.5 c 0,53,-1
 311 596 l 0,54,-1
 311 595 l 0,55,-1
 311 595 l 0,56,-1
 311 595 l 2,57,-1
 311 595 l 1,58,-1
 311 3 l 2,59,60
 311 2 311 2 310 1 c 0,61,62
 310 0 310 0 308 0 c 2,63,-1
 6 0 l 2,64,65
 5 0 5 0 4 1 c 128,-1,66
 3 2 3 2 3 3 c 2,67,-1
 3 1527 l 2,68,69
 3 1528 3 1528 4 1529 c 128,-1,70
 5 1530 5 1530 6 1530 c 2,71,-1
 308 1530 l 2,72,73
 309 1530 309 1530 310 1529 c 128,-1,74
 311 1528 311 1528 311 1527 c 2,75,-1
 311 1470 l 2,76,-1
 311 1469 l 0,77,-1
 312 1468 l 0,78,79
 313 1467 313 1467 314 1467 c 2,80,-1
 315 1467 l 1,0,1
462 881 m 2,81,-1
 921 881 l 2,82,83
 928 881 928 881 934.5 881.5 c 128,-1,84
 941 882 941 882 948 883 c 128,-1,85
 955 884 955 884 961 886 c 0,86,87
 980 891 980 891 997 900.5 c 128,-1,88
 1014 910 1014 910 1028 925 c 0,89,90
 1050 947 1050 947 1061.5 974 c 0,91,92
 1073 1000 1073 1000 1073 1032 c 0,93,94
 1073 1048 1073 1048 1070 1062.5 c 128,-1,95
 1067 1077 1067 1077 1061.5 1090.5 c 128,-1,96
 1056 1104 1056 1104 1047.5 1116.5 c 128,-1,97
 1039 1129 1039 1129 1028 1140 c 0,98,99
 1006 1162 1006 1162 979 1173 c 128,-1,100
 952 1184 952 1184 921 1184 c 2,101,-1
 462 1184 l 2,102,103
 452 1184 452 1184 442 1183 c 128,-1,104
 432 1182 432 1182 422.5 1179.5 c 128,-1,105
 413 1177 413 1177 404 1173 c 0,106,107
 397 1170 397 1170 391 1166.5 c 128,-1,108
 385 1163 385 1163 378.5 1159 c 128,-1,109
 372 1155 372 1155 366.5 1150 c 128,-1,110
 361 1145 361 1145 355 1140 c 0,111,112
 333 1118 333 1118 322 1091 c 0,113,114
 316 1078 316 1078 313.5 1063 c 128,-1,115
 311 1048 311 1048 311 1032 c 0,116,117
 311 969 311 969 355 925 c 128,-1,118
 399 881 399 881 462 881 c 2,81,-1
EndSplineSet
EndChar

StartChar: q
Encoding: 113 113 60
Width: 1383
VWidth: -3
Flags: W
LayerCount: 2
Fore
SplineSet
462 881 m 2,0,-1
 692 881 l 2,1,2
 713 881 713 881 731 886 c 0,3,4
 750 891 750 891 767 900.5 c 128,-1,5
 784 910 784 910 799 925 c 0,6,7
 844 968 844 968 844 1032 c 0,8,9
 844 1045 844 1045 842 1057 c 0,10,11
 841 1063 841 1063 839.5 1068.5 c 128,-1,12
 838 1074 838 1074 836 1080 c 0,13,14
 835 1084 835 1084 833.5 1087.5 c 128,-1,15
 832 1091 832 1091 830.5 1094.5 c 128,-1,16
 829 1098 829 1098 827 1101 c 0,17,18
 822 1111 822 1111 815 1121 c 0,19,20
 811 1126 811 1126 807 1130.5 c 128,-1,21
 803 1135 803 1135 799 1140 c 0,22,23
 796 1143 796 1143 793 1145.5 c 128,-1,24
 790 1148 790 1148 787 1151 c 128,-1,25
 784 1154 784 1154 780.5 1156 c 128,-1,26
 777 1158 777 1158 774 1160.5 c 128,-1,27
 771 1163 771 1163 767 1165 c 0,28,29
 759 1170 759 1170 750 1173.5 c 128,-1,30
 741 1177 741 1177 731.5 1179.5 c 128,-1,31
 722 1182 722 1182 712 1183 c 128,-1,32
 702 1184 702 1184 692 1184 c 2,33,-1
 462 1184 l 2,34,35
 452 1184 452 1184 442 1183 c 128,-1,36
 432 1182 432 1182 422.5 1179.5 c 128,-1,37
 413 1177 413 1177 404 1173 c 0,38,39
 391 1167 391 1167 378.5 1159 c 128,-1,40
 366 1151 366 1151 355 1140 c 0,41,42
 333 1118 333 1118 322 1091 c 0,43,44
 316 1078 316 1078 313 1063 c 128,-1,45
 310 1048 310 1048 310 1032 c 0,46,47
 310 969 310 969 354.5 925 c 128,-1,48
 399 881 399 881 462 881 c 2,0,-1
1303 0 m 2,49,50
 1271 0 1271 0 1241 3.5 c 128,-1,51
 1211 7 1211 7 1182.5 14.5 c 128,-1,52
 1154 22 1154 22 1127 34 c 0,53,54
 1113 40 1113 40 1100 46 c 128,-1,55
 1087 52 1087 52 1074 60 c 0,56,57
 1048 75 1048 75 1024.5 93.5 c 128,-1,58
 1001 112 1001 112 978 135 c 0,59,60
 911 202 911 202 877 283 c 0,61,62
 860 324 860 324 852 368 c 128,-1,63
 844 412 844 412 844 459 c 2,64,-1
 844 594 l 2,65,66
 844 595 844 595 842.5 596.5 c 128,-1,67
 841 598 841 598 840 598 c 0,68,69
 839 597 l 0,70,71
 767 573 767 573 692 573 c 2,72,-1
 462 573 l 2,73,74
 438 573 438 573 415.5 575 c 128,-1,75
 393 577 393 577 371 582 c 0,76,77
 367 583 367 583 362.5 583.5 c 128,-1,78
 358 584 358 584 353.5 585 c 128,-1,79
 349 586 349 586 344.5 587 c 128,-1,80
 340 588 340 588 336 589.5 c 128,-1,81
 332 591 332 591 328 592 c 0,82,83
 317 595 317 595 306.5 599 c 128,-1,84
 296 603 296 603 286 607 c 0,85,86
 266 615 266 615 246.5 625.5 c 128,-1,87
 227 636 227 636 208.5 648.5 c 128,-1,88
 190 661 190 661 172 676 c 128,-1,89
 154 691 154 691 138 708 c 0,90,91
 3 843 3 843 3 1033 c 128,-1,92
 3 1223 3 1223 137.5 1357.5 c 128,-1,93
 272 1492 272 1492 462 1492 c 2,94,-1
 692 1492 l 2,95,96
 705 1492 705 1492 717 1491 c 128,-1,97
 729 1490 729 1490 741.5 1489 c 128,-1,98
 754 1488 754 1488 766 1486 c 0,99,100
 803 1480 803 1480 839 1467 c 0,101,102
 839.5 1467 l 0,103,-1
 840 1467 l 0,104,-1
 840 1467 l 0,105,106
 841 1467 l 0,107,108
 841.5 1467.5 l 0,109,-1
 842 1468 l 2,110,-1
 843 1469 l 2,111,112
 843 1470 l 0,113,114
 843.5 1470 l 0,115,-1
 844 1470 l 2,116,-1
 844 1527 l 2,117,118
 844 1528 844 1528 845 1529 c 128,-1,119
 846 1530 846 1530 847 1530 c 2,120,-1
 1148 1530 l 2,121,122
 1149 1530 1149 1530 1150 1529 c 128,-1,123
 1151 1528 1151 1528 1151 1527 c 2,124,-1
 1151 459 l 2,125,126
 1151 449 1151 449 1152 439 c 128,-1,127
 1153 429 1153 429 1155.5 419.5 c 128,-1,128
 1158 410 1158 410 1162 401 c 0,129,130
 1165 394 1165 394 1168.5 387.5 c 128,-1,131
 1172 381 1172 381 1176 375 c 128,-1,132
 1180 369 1180 369 1185 363.5 c 128,-1,133
 1190 358 1190 358 1195 352 c 0,134,135
 1217 330 1217 330 1245 319 c 0,136,137
 1258 313 1258 313 1272.5 310.5 c 128,-1,138
 1287 308 1287 308 1303 308 c 2,139,-1
 1377 308 l 2,140,141
 1378 308 1378 308 1379 307 c 128,-1,142
 1380 306 1380 306 1380 304 c 2,143,-1
 1380 3 l 2,144,145
 1380 2 1380 2 1379 1 c 128,-1,146
 1378 0 1378 0 1377 0 c 2,147,-1
 1303 0 l 2,49,50
EndSplineSet
EndChar

StartChar: r
Encoding: 114 114 61
Width: 1383
VWidth: -3
Flags: W
LayerCount: 2
Fore
SplineSet
156 1132 m 2,0,1
 156 1151 156 1151 149.5 1167 c 128,-1,2
 143 1183 143 1183 129.5 1196 c 128,-1,3
 116 1209 116 1209 100 1216 c 128,-1,4
 84 1223 84 1223 65 1223 c 2,5,-1
 6 1223 l 2,6,7
 5 1223 5 1223 4 1224 c 128,-1,8
 3 1225 3 1225 3 1226 c 2,9,-1
 3 1527 l 2,10,11
 3 1528 3 1528 4 1529 c 128,-1,12
 5 1530 5 1530 6 1530 c 2,13,-1
 218 1530 l 2,14,15
 243 1530 243 1530 267 1526 c 128,-1,16
 291 1522 291 1522 312 1512 c 0,17,18
 323 1508 323 1508 333.5 1502 c 128,-1,19
 344 1496 344 1496 354 1490 c 0,20,21
 374 1477 374 1477 392 1458.5 c 128,-1,22
 410 1440 410 1440 423.5 1420.5 c 128,-1,23
 437 1401 437 1401 446 1379 c 0,24,25
 452 1365 452 1365 456 1349.5 c 128,-1,26
 460 1334 460 1334 462 1318 c 128,-1,27
 464 1302 464 1302 464 1285 c 2,28,-1
 464 1232 l 2,29,-1
 464 1231 l 0,30,-1
 464 1230 l 0,31,-1
 465 1229 l 0,32,33
 466 1228 466 1228 467 1229 c 0,34,-1
 468 1229 l 0,35,36
 670 1377 670 1377 921 1377 c 2,37,-1
 1377 1377 l 2,38,39
 1378 1377 1378 1377 1379 1376 c 128,-1,40
 1380 1375 1380 1375 1380 1374 c 2,41,-1
 1380 1073 l 2,42,43
 1380 1072 1380 1072 1379 1071 c 128,-1,44
 1378 1070 1378 1070 1377 1070 c 2,45,-1
 921 1070 l 2,46,47
 874 1070 874 1070 830 1061.5 c 128,-1,48
 786 1053 786 1053 745.5 1036 c 128,-1,49
 705 1019 705 1019 668 994 c 128,-1,50
 631 969 631 969 597 936 c 0,51,52
 464 802 464 802 464 612 c 2,53,-1
 464 3 l 2,54,55
 464 2 464 2 463 1 c 128,-1,56
 462 0 462 0 460 0 c 2,57,-1
 159 0 l 2,58,59
 158 0 158 0 157 1 c 128,-1,60
 156 2 156 2 156 3 c 2,61,-1
 156 1132 l 2,0,1
EndSplineSet
EndChar

StartChar: s
Encoding: 115 115 62
Width: 1383
VWidth: -3
Flags: W
LayerCount: 2
Fore
SplineSet
1380 1527 m 2,0,-1
 1380 1226 l 2,1,2
 1380 1225 1380 1225 1379 1224 c 128,-1,3
 1378 1223 1378 1223 1377 1223 c 2,4,-1
 462 1223 l 2,5,6
 452 1223 452 1223 442 1221.5 c 128,-1,7
 432 1220 432 1220 422.5 1217.5 c 128,-1,8
 413 1215 413 1215 404 1211.5 c 128,-1,9
 395 1208 395 1208 386.5 1203 c 128,-1,10
 378 1198 378 1198 370.5 1192 c 128,-1,11
 363 1186 363 1186 355 1178 c 0,12,13
 333 1156 333 1156 322 1129 c 0,14,15
 316 1116 316 1116 313.5 1101 c 128,-1,16
 311 1086 311 1086 311 1071 c 0,17,18
 311 1008 311 1008 355.5 963.5 c 128,-1,19
 400 919 400 919 462 919 c 2,20,-1
 921 919 l 2,21,22
 1016 919 1016 919 1097 885 c 0,23,24
 1138 868 1138 868 1175 843 c 128,-1,25
 1212 818 1212 818 1246 784 c 0,26,27
 1313 717 1313 717 1346.5 636 c 128,-1,28
 1380 555 1380 555 1380 459 c 0,29,30
 1380 269 1380 269 1245.5 134.5 c 128,-1,31
 1111 0 1111 0 921 0 c 2,32,-1
 6 0 l 2,33,34
 5 0 5 0 4 1 c 128,-1,35
 3 2 3 2 3 3 c 2,36,-1
 3 304 l 2,37,38
 3 305 3 305 4 306.5 c 128,-1,39
 5 308 5 308 6 308 c 2,40,-1
 921 308 l 2,41,42
 984 308 984 308 1028 352 c 0,43,44
 1050 374 1050 374 1061.5 401 c 128,-1,45
 1073 428 1073 428 1073 459 c 0,46,47
 1073 491 1073 491 1062 518 c 128,-1,48
 1051 545 1051 545 1028 567 c 0,49,50
 984 612 984 612 921 611 c 2,51,-1
 462 611 l 2,52,53
 450 611 450 611 438.5 611.5 c 128,-1,54
 427 612 427 612 416 613 c 0,55,56
 393 615 393 615 371 620 c 0,57,58
 360 622 360 622 349 624.5 c 128,-1,59
 338 627 338 627 328 630 c 0,60,61
 321 632 321 632 314 634.5 c 128,-1,62
 307 637 307 637 300 639.5 c 128,-1,63
 293 642 293 642 286 645 c 0,64,65
 266 653 266 653 246 664 c 0,66,67
 236 669 236 669 227 675 c 128,-1,68
 218 681 218 681 209 687 c 0,69,70
 190 700 190 700 172.5 714.5 c 128,-1,71
 155 729 155 729 138 746 c 0,72,73
 3 881 3 881 3 1071 c 0,74,75
 3 1166 3 1166 37 1247 c 128,-1,76
 71 1328 71 1328 138 1395.5 c 128,-1,77
 205 1463 205 1463 286 1496.5 c 0,78,79
 366 1530 366 1530 462 1530 c 2,80,-1
 1377 1530 l 2,81,82
 1378 1530 1378 1530 1379 1529 c 128,-1,83
 1380 1528 1380 1528 1380 1527 c 2,0,-1
EndSplineSet
EndChar

StartChar: t
Encoding: 116 116 63
Width: 1383
VWidth: -3
Flags: W
LayerCount: 2
Fore
SplineSet
1074 0 m 2,0,1
 947 0 947 0 839 45 c 0,2,3
 824 51 824 51 808.5 58.5 c 128,-1,4
 793 66 793 66 778.5 74 c 128,-1,5
 764 82 764 82 749.5 91.5 c 128,-1,6
 735 101 735 101 721 111 c 128,-1,7
 707 121 707 121 693.5 132 c 128,-1,8
 680 143 680 143 667 155 c 128,-1,9
 654 167 654 167 641 179 c 0,10,11
 551 269 551 269 506.5 377 c 128,-1,12
 462 485 462 485 462 612 c 2,13,-1
 462 1067 l 2,14,15
 462 1068 462 1068 461.5 1068 c 128,-1,16
 461 1068 461 1068 461 1069 c 0,17,18
 460 1069.5 l 0,19,-1
 459 1070 l 0,20,-1
 458 1070 l 2,21,-1
 6 1070 l 2,22,23
 5 1070 5 1070 4 1071 c 128,-1,24
 3 1072 3 1072 3 1073 c 2,25,-1
 3 1374 l 2,26,27
 3 1375 3 1375 4 1376 c 128,-1,28
 5 1377 5 1377 6 1377 c 2,29,-1
 458 1377 l 2,30,31
 459 1377 459 1377 459.5 1377.5 c 128,-1,32
 460 1378 460 1378 461 1378 c 0,33,34
 462 1379 462 1379 462 1379.5 c 0,35,-1
 462 1380 l 2,36,-1
 462 1833 l 2,37,38
 462 1834 462 1834 463 1835 c 128,-1,39
 464 1836 464 1836 465 1836 c 2,40,-1
 762 1836 l 2,41,42
 763 1836 763 1836 764 1835 c 128,-1,43
 765 1834 765 1834 765 1833 c 2,44,-1
 769 1380 l 2,45,46
 769 1379 769 1379 770 1378 c 128,-1,47
 771 1377 771 1377 771.5 1377 c 0,48,49
 772 1377 l 2,50,-1
 1377 1377 l 2,51,52
 1378 1377 1378 1377 1379 1376 c 128,-1,53
 1380 1375 1380 1375 1380 1374 c 2,54,-1
 1380 1073 l 2,55,56
 1380 1072 1380 1072 1379 1071 c 128,-1,57
 1378 1070 1378 1070 1377 1070 c 2,58,-1
 772 1070 l 2,59,60
 771.5 1070 l 0,61,62
 771 1070 771 1070 770.5 1069.5 c 0,63,-1
 770 1069 l 0,64,65
 769 1068 769 1068 769 1067.5 c 0,66,-1
 769 1067 l 2,67,-1
 769 612 l 2,68,69
 769 601 769 601 769.5 591 c 128,-1,70
 770 581 770 581 771.5 571 c 128,-1,71
 773 561 773 561 775 551 c 0,72,73
 778 536 778 536 782 522.5 c 128,-1,74
 786 509 786 509 791.5 495.5 c 128,-1,75
 797 482 797 482 804 469 c 128,-1,76
 811 456 811 456 819 444 c 0,77,78
 836 419 836 419 858.5 396.5 c 128,-1,79
 881 374 881 374 905.5 357.5 c 128,-1,80
 930 341 930 341 957 330 c 0,81,82
 1011 308 1011 308 1074 308 c 2,83,-1
 1377 308 l 2,84,85
 1378 308 1378 308 1379 307 c 128,-1,86
 1380 306 1380 306 1380 304 c 2,87,-1
 1380 3 l 2,88,89
 1380 2 1380 2 1379 1 c 128,-1,90
 1378 0 1378 0 1377 0 c 2,91,-1
 1074 0 l 2,0,1
EndSplineSet
EndChar

StartChar: u
Encoding: 117 117 64
Width: 1383
VWidth: -3
Flags: W
LayerCount: 2
Fore
SplineSet
1076 1530 m 2,0,-1
 1377 1530 l 2,1,2
 1378 1530 1378 1530 1379 1529 c 128,-1,3
 1380 1528 1380 1528 1380 1527 c 2,4,-1
 1380 3 l 2,5,6
 1380 2 1380 2 1379 1 c 128,-1,7
 1378 0 1378 0 1377 0 c 2,8,-1
 1076 0 l 2,9,10
 1075 0 1075 0 1074 1 c 128,-1,11
 1073 2 1073 2 1073 3 c 2,12,-1
 1073 152 l 2,13,14
 1073 153 1073 153 1072 154 c 128,-1,15
 1071 155 1071 155 1070 155 c 0,16,17
 1069 155 1069 155 1068 155 c 0,18,19
 928 76 928 76 768 76 c 2,20,-1
 615 76 l 2,21,22
 361 76 361 76 182 255.5 c 128,-1,23
 3 435 3 435 3 689 c 2,24,-1
 3 1527 l 2,25,26
 3 1528 3 1528 4 1529 c 128,-1,27
 5 1530 5 1530 6 1530 c 2,28,-1
 308 1530 l 2,29,30
 309 1530 309 1530 310 1529 c 128,-1,31
 311 1528 311 1528 311 1527 c 2,32,-1
 311 689 l 2,33,34
 311 657 311 657 316.5 628 c 128,-1,35
 322 599 322 599 333 572 c 128,-1,36
 344 545 344 545 361 520.5 c 128,-1,37
 378 496 378 496 400 473 c 0,38,39
 445 428 445 428 498.5 406 c 128,-1,40
 552 384 552 384 615 384 c 2,41,-1
 768 384 l 2,42,43
 894 384 894 384 984 473 c 0,44,45
 1029 518 1029 518 1051 571.5 c 128,-1,46
 1073 625 1073 625 1073 689 c 2,47,-1
 1073 1527 l 2,48,49
 1073 1528 1073 1528 1074 1529 c 128,-1,50
 1075 1530 1075 1530 1076 1530 c 2,0,-1
EndSplineSet
EndChar

StartChar: v
Encoding: 118 118 65
Width: 1383
VWidth: -3
Flags: W
LayerCount: 2
Fore
SplineSet
845 1 m 1,0,-1
 844 1 l 2,1,2
 843 0 843 0 842 0 c 2,3,-1
 541 0 l 2,4,5
 540 0 540 0 539 0.5 c 128,-1,6
 538 1 538 1 538 2 c 2,7,-1
 4 1526 l 2,8,9
 4 1527 4 1527 4 1528 c 0,10,11
 5 1529 5 1529 6 1530 c 0,12,13
 7 1530 l 2,14,-1
 307 1530 l 2,15,16
 308 1530 308 1530 309 1529.5 c 128,-1,17
 310 1529 310 1529 310 1528 c 2,18,-1
 689 449 l 2,19,20
 689 448 689 448 691 447 c 0,21,22
 692 447 l 0,23,-1
 693 447 l 0,24,25
 693 447 l 0,26,-1
 694 447 l 2,27,-1
 694 448 l 2,28,29
 694 448 l 0,30,31
 695 449 l 2,32,-1
 1072 1528 l 2,33,34
 1072 1529 1072 1529 1073 1529 c 2,35,-1
 1074 1530 l 2,36,37
 1075 1531 1075 1531 1076 1530 c 2,38,-1
 1376 1530 l 2,39,40
 1377 1530 1377 1530 1378.5 1529 c 128,-1,41
 1380 1528 1380 1528 1379 1527 c 2,42,-1
 1379 1526 l 1,43,-1
 846 3 l 2,44,45
 846 2.5 l 0,46,-1
 846 2 l 2,47,-1
 845 1 l 1,0,-1
EndSplineSet
EndChar

StartChar: w
Encoding: 119 119 66
Width: 1383
VWidth: -3
Flags: W
LayerCount: 2
Fore
SplineSet
1380 1526 m 2,0,-1
 1075 3 l 2,1,2
 1075 2 1075 2 1074 1 c 128,-1,3
 1073 0 1073 0 1072 0 c 2,4,-1
 770 0 l 2,5,6
 769 0 769 0 768 1 c 128,-1,7
 767 2 767 2 767 3 c 2,8,-1
 695 363 l 2,9,10
 694 366 694 366 693 367 c 1,11,-1
 693 367 l 2,12,13
 689 364 689 364 689 363 c 2,14,-1
 617 3 l 2,15,16
 617 2 617 2 616 1 c 0,17,18
 616 0 616 0 614 0 c 2,19,-1
 311 0 l 2,20,-1
 310.5 0 l 0,21,22
 310 0 310 0 310 0.5 c 128,-1,23
 310 1 310 1 309.5 1 c 128,-1,24
 309 1 309 1 309 1.5 c 128,-1,25
 309 2 309 2 308.5 2 c 128,-1,26
 308 2 308 2 308 3 c 2,27,-1
 4 1526 l 2,28,29
 4 1527 4 1527 4.5 1528.5 c 128,-1,30
 5 1530 5 1530 7 1530 c 2,31,-1
 308 1530 l 2,32,-1
 308.5 1530 l 0,33,34
 309 1530 309 1530 309.5 1529.5 c 0,35,-1
 310 1529 l 0,36,-1
 310.5 1528.5 l 0,37,-1
 311 1528 l 2,38,-1
 477 698 l 2,39,40
 478 694 478 694 479 693 c 1,41,42
 483 697 483 697 483 698 c 2,43,-1
 652 1374 l 2,44,45
 652 1375 652 1375 653 1375.5 c 128,-1,46
 654 1376 654 1376 655 1376 c 2,47,-1
 728 1377 l 2,48,49
 729 1377 729 1377 730 1376.5 c 128,-1,50
 731 1376 731 1376 731 1375 c 2,51,-1
 900 698 l 2,52,53
 900 697 900 697 900.5 696.5 c 128,-1,54
 901 696 901 696 901 695.5 c 128,-1,55
 901 695 901 695 901.5 694.5 c 128,-1,56
 902 694 902 694 902 693.5 c 128,-1,57
 902 693 902 693 902 692.5 c 128,-1,58
 902 692 902 692 903 692 c 128,-1,59
 904 692 904 692 904.5 693.5 c 128,-1,60
 905 695 905 695 906 697 c 2,61,-1
 907 698 l 1,62,-1
 1072 1527 l 2,63,64
 1072 1528 1072 1528 1073.5 1529 c 0,65,-1
 1076 1530 l 2,66,-1
 1376 1530 l 2,67,68
 1377 1530 1377 1530 1378.5 1528.5 c 128,-1,69
 1380 1527 1380 1527 1380 1526 c 2,0,-1
EndSplineSet
EndChar

StartChar: x
Encoding: 120 120 67
Width: 1383
VWidth: -3
Flags: W
LayerCount: 2
Fore
SplineSet
866 763 m 2,0,-1
 1378 5 l 2,1,2
 1380 2 1380 2 1377 1 c 0,3,4
 1376 0.5 l 0,5,-1
 1375 0 l 2,6,-1
 1037 0 l 2,7,8
 1036 0 l 2,9,-1
 1035 1 l 2,10,11
 1034.5 1 l 0,12,13
 1034 1 1034 1 1034 2 c 2,14,-1
 694 505 l 2,15,16
 693 506 693 506 693 506.5 c 128,-1,17
 693 507 693 507 692 507 c 0,18,-1
 692 507 l 0,19,20
 691 508 691 508 689 505 c 2,21,-1
 349 1 l 2,22,23
 348 0 348 0 347 0 c 2,24,-1
 8 0 l 2,25,26
 7 0 l 0,27,-1
 6.5 0.5 l 0,28,29
 6 1 6 1 5.5 1.5 c 128,-1,30
 5 2 5 2 5 2.5 c 0,31,-1
 5 3 l 0,32,33
 5 4 5 4 6 5 c 2,34,-1
 517 763 l 2,35,36
 518 765 518 765 518 767 c 0,37,-1
 518 767 l 0,38,-1
 518 767 l 2,39,-1
 6 1525 l 2,40,41
 6 1526 6 1526 5.5 1527 c 128,-1,42
 5 1528 5 1528 5.5 1528.5 c 128,-1,43
 6 1529 6 1529 7 1530 c 0,44,45
 8 1530 l 2,46,-1
 346 1530 l 2,47,48
 346.5 1530 l 0,49,50
 347 1530 347 1530 347.5 1530 c 128,-1,51
 348 1530 348 1530 348.5 1529.5 c 0,52,-1
 349 1529 l 2,53,-1
 689 1025 l 2,54,55
 689 1024 689 1024 690 1024 c 128,-1,56
 691 1024 691 1024 691 1023.5 c 128,-1,57
 691 1023 691 1023 691.5 1022.5 c 0,58,-1
 692 1022 l 0,59,-1
 692 1022 l 0,60,61
 693 1022 693 1022 694 1025 c 2,62,-1
 694 1025 l 1,63,-1
 1034 1528 l 2,64,65
 1034 1529 1034 1529 1035 1529 c 0,66,-1
 1036 1530 l 2,67,-1
 1375 1530 l 2,68,69
 1376 1530 1376 1530 1377.5 1529 c 128,-1,70
 1379 1528 1379 1528 1378 1527 c 0,71,-1
 1378 1526.5 l 0,72,73
 1378 1526 1378 1526 1378 1525.5 c 0,74,-1
 1378 1525 l 2,75,-1
 866 767 l 2,76,-1
 866 766 l 0,77,78
 866 765 866 765 866 764.5 c 0,79,-1
 866 764 l 0,80,-1
 866 763 l 2,0,-1
EndSplineSet
EndChar

StartChar: y
Encoding: 121 121 68
Width: 1383
VWidth: -3
Flags: W
LayerCount: 2
Fore
SplineSet
7 1530 m 1,0,-1
 340 1530 l 2,1,2
 342 1530 342 1530 342 1528 c 2,3,-1
 613 953 l 2,4,5
 613 952 613 952 613.5 952 c 128,-1,6
 614 952 614 952 614.5 952 c 128,-1,7
 615 952 615 952 615.5 952 c 128,-1,8
 616 952 616 952 617 952 c 0,9,10
 617 952 l 0,11,-1
 617 952 l 0,12,13
 617.5 952.5 l 0,14,-1
 618 953 l 0,15,-1
 618 953 l 2,16,-1
 888 1528 l 2,17,18
 888 1528.5 l 0,19,20
 888 1529 888 1529 889 1529 c 2,21,-1
 889 1530 l 2,22,23
 890 1531 890 1531 891 1530 c 2,24,-1
 1377 1530 l 2,25,26
 1378 1530 1378 1530 1379 1529 c 128,-1,27
 1380 1528 1380 1528 1380 1527 c 2,28,-1
 1380 1226 l 2,29,30
 1380 1225 1380 1225 1379 1224 c 128,-1,31
 1378 1223 1378 1223 1377 1223 c 2,32,-1
 1086 1223 l 2,33,-1
 1085 1222 l 0,34,35
 1084 1222 l 0,36,37
 1084 1222 l 0,38,-1
 1084 1222 l 0,39,-1
 1084 1221 l 0,40,41
 1083 1221 l 2,42,-1
 635 264 l 2,43,44
 616 224 616 224 591 189 c 0,45,46
 586 182 586 182 580.5 175.5 c 128,-1,47
 575 169 575 169 569.5 162.5 c 128,-1,48
 564 156 564 156 558 149.5 c 128,-1,49
 552 143 552 143 546 137 c 128,-1,50
 540 131 540 131 534 125 c 0,51,52
 470 65 470 65 388.5 32.5 c 128,-1,53
 307 0 307 0 219 0 c 2,54,-1
 6 0 l 2,55,56
 5 0 5 0 4 1 c 128,-1,57
 3 2 3 2 3 3 c 2,58,-1
 3 304 l 2,59,60
 3 305 3 305 4 306.5 c 128,-1,61
 5 308 5 308 6 308 c 2,62,-1
 219 308 l 2,63,64
 251 308 251 308 277 317 c 0,65,66
 303 327 303 327 323 346 c 0,67,68
 330 352 330 352 335.5 360 c 128,-1,69
 341 368 341 368 346.5 376.5 c 128,-1,70
 352 385 352 385 356 395 c 2,71,-1
 445 584 l 2,72,73
 446 585 446 585 445 586 c 2,74,-1
 5 1526 l 2,75,76
 5 1526.5 l 0,77,-1
 5 1527 l 0,78,-1
 5 1527.5 l 0,79,80
 5 1528 5 1528 5 1529 c 0,81,-1
 5.5 1529 l 0,82,-1
 7 1530 l 1,0,-1
EndSplineSet
EndChar

StartChar: z
Encoding: 122 122 69
Width: 1383
VWidth: -3
Flags: W
LayerCount: 2
Fore
SplineSet
485 308 m 2,0,-1
 1377 308 l 2,1,2
 1378 308 1378 308 1379 307 c 128,-1,3
 1380 306 1380 306 1380 304 c 2,4,-1
 1380 3 l 2,5,6
 1380 2 1380 2 1379 1 c 128,-1,7
 1378 0 1378 0 1377 0 c 2,8,-1
 6 0 l 2,9,10
 5 0 5 0 4 1 c 128,-1,11
 3 2 3 2 3 3 c 2,12,-1
 3 305 l 2,13,14
 3 306 l 2,15,-1
 4 307 l 2,16,17
 4 308 l 2,18,-1
 1065 1217 l 2,19,20
 1066 1218 1066 1218 1066 1219.5 c 128,-1,21
 1066 1221 1066 1221 1065 1222 c 0,22,23
 1064 1223 1064 1223 1063 1223 c 2,24,-1
 6 1223 l 2,25,26
 5 1223 5 1223 4 1224 c 128,-1,27
 3 1225 3 1225 3 1226 c 2,28,-1
 3 1527 l 2,29,30
 3 1528 3 1528 4 1529 c 128,-1,31
 5 1530 5 1530 6 1530 c 2,32,-1
 1377 1530 l 2,33,34
 1378 1530 1378 1530 1379 1529 c 128,-1,35
 1380 1528 1380 1528 1380 1527 c 2,36,-1
 1380 1084 l 2,37,38
 1380 1083 1380 1083 1380 1082.5 c 128,-1,39
 1380 1082 1380 1082 1379 1082 c 2,40,-1
 483 313 l 2,41,42
 482 312 482 312 482 311 c 0,43,44
 482 310 482 310 482 309.5 c 128,-1,45
 482 309 482 309 482 308 c 0,46,47
 484 308 484 308 485 308 c 2,0,-1
EndSplineSet
EndChar

StartChar: braceleft
Encoding: 123 123 70
Width: 1039
VWidth: -3
Flags: W
LayerCount: 2
Fore
SplineSet
789 916 m 0,0,1
 817 873 817 873 831.5 825.5 c 128,-1,2
 846 778 846 778 846 727 c 2,3,-1
 846 345 l 2,4,5
 846 340 846 340 846.5 336 c 128,-1,6
 847 332 847 332 848 328.5 c 128,-1,7
 849 325 849 325 851 322.5 c 128,-1,8
 853 320 853 320 855 317 c 0,9,10
 860 312 860 312 867 310 c 128,-1,11
 874 308 874 308 883 308 c 2,12,-1
 1034 308 l 2,13,14
 1035 308 1035 308 1036 307 c 128,-1,15
 1037 306 1037 306 1037 304 c 2,16,-1
 1037 3 l 2,17,18
 1037 2 1037 2 1036 1 c 0,19,20
 1036 0 1036 0 1034 0 c 2,21,-1
 883 0 l 2,22,23
 867 0 867 0 851.5 1 c 128,-1,24
 836 2 836 2 821 4.5 c 128,-1,25
 806 7 806 7 792 11 c 0,26,27
 749 22 749 22 711 45 c 0,28,29
 673 67 673 67 639 101 c 0,30,31
 614 126 614 126 595 154 c 128,-1,32
 576 182 576 182 563.5 212.5 c 128,-1,33
 551 243 551 243 544.5 276 c 128,-1,34
 538 309 538 309 538 345 c 2,35,-1
 538 727 l 2,36,37
 538 732 538 732 537.5 735.5 c 128,-1,38
 537 739 537 739 535.5 742.5 c 128,-1,39
 534 746 534 746 532.5 749 c 128,-1,40
 531 752 531 752 528 754 c 0,41,42
 523 759 523 759 516.5 761.5 c 128,-1,43
 510 764 510 764 501 764 c 2,44,-1
 350 764 l 2,45,46
 349 764 349 764 348 765 c 128,-1,47
 347 766 347 766 347 767 c 2,48,-1
 347 1068 l 2,49,50
 347 1069 347 1069 348 1070.5 c 128,-1,51
 349 1072 349 1072 350 1072 c 2,52,-1
 501 1072 l 2,53,54
 506 1072 506 1072 509.5 1072.5 c 128,-1,55
 513 1073 513 1073 516.5 1074 c 128,-1,56
 520 1075 520 1075 523 1077 c 128,-1,57
 526 1079 526 1079 528 1081 c 0,58,59
 533 1086 533 1086 535.5 1093 c 128,-1,60
 538 1100 538 1100 538 1109 c 2,61,-1
 538 1491 l 2,62,63
 538 1634 538 1634 639 1735 c 128,-1,64
 740 1836 740 1836 883 1836 c 2,65,-1
 1034 1836 l 2,66,67
 1035 1836 1035 1836 1036 1835 c 128,-1,68
 1037 1834 1037 1834 1037 1833 c 2,69,-1
 1037 1531 l 2,70,71
 1037 1530 1037 1530 1036 1529 c 0,72,73
 1036 1528 1036 1528 1034 1528 c 2,74,-1
 883 1528 l 2,75,76
 878 1528 878 1528 874 1527.5 c 128,-1,77
 870 1527 870 1527 866.5 1526 c 128,-1,78
 863 1525 863 1525 860.5 1523 c 128,-1,79
 858 1521 858 1521 855 1519 c 0,80,81
 850 1514 850 1514 848 1507 c 128,-1,82
 846 1500 846 1500 846 1491 c 2,83,-1
 846 1109 l 2,84,85
 846 1057 846 1057 831.5 1010 c 128,-1,86
 817 963 817 963 789 920 c 1,87,-1
 788 918 l 2,88,-1
 788 917 l 0,89,-1
 789 916 l 0,0,1
3 3 m 2,90,-1
 3 152 l 2,91,92
 3 153 3 153 4 154 c 128,-1,93
 5 155 5 155 6 155 c 2,94,-1
 193 155 l 2,95,96
 194 155 194 155 195 154 c 128,-1,97
 196 153 196 153 196 152 c 2,98,-1
 196 3 l 2,99,100
 196 2 196 2 195 1 c 128,-1,101
 194 0 194 0 193 0 c 2,102,-1
 6 0 l 2,103,104
 5 0 5 0 4 1 c 128,-1,105
 3 2 3 2 3 3 c 2,90,-1
EndSplineSet
EndChar

StartChar: bar
Encoding: 124 124 71
Width: 848
VWidth: -3
Flags: W
LayerCount: 2
Fore
SplineSet
846 1833 m 2,0,-1
 846 3 l 2,1,2
 846 2 846 2 845 1 c 128,-1,3
 844 0 844 0 842 0 c 2,4,-1
 541 0 l 2,5,6
 540 0 540 0 539 1 c 128,-1,7
 538 2 538 2 538 3 c 2,8,-1
 538 1833 l 2,9,10
 538 1834 538 1834 539 1835 c 128,-1,11
 540 1836 540 1836 541 1836 c 2,12,-1
 842 1836 l 2,13,14
 843 1836 843 1836 844.5 1835 c 128,-1,15
 846 1834 846 1834 846 1833 c 2,0,-1
3 3 m 2,16,-1
 3 152 l 2,17,18
 3 153 3 153 4 154 c 128,-1,19
 5 155 5 155 6 155 c 2,20,-1
 155 155 l 2,21,22
 156 155 156 155 157 154 c 128,-1,23
 158 153 158 153 158 152 c 2,24,-1
 158 3 l 2,25,26
 158 2 158 2 157 1 c 128,-1,27
 156 0 156 0 155 0 c 2,28,-1
 6 0 l 2,29,30
 5 0 5 0 4 1 c 128,-1,31
 3 2 3 2 3 3 c 2,16,-1
EndSplineSet
EndChar

StartChar: braceright
Encoding: 125 125 72
Width: 1039
VWidth: -3
Flags: W
LayerCount: 2
Fore
SplineSet
595 920 m 0,0,1
 567 963 567 963 552 1010 c 0,2,3
 545 1034 545 1034 541.5 1058.5 c 128,-1,4
 538 1083 538 1083 538 1109 c 2,5,-1
 538 1491 l 2,6,7
 538 1494 538 1494 538 1496.5 c 128,-1,8
 538 1499 538 1499 537.5 1501 c 128,-1,9
 537 1503 537 1503 536.5 1505 c 128,-1,10
 536 1507 536 1507 535 1509 c 128,-1,11
 534 1511 534 1511 533 1512.5 c 128,-1,12
 532 1514 532 1514 531 1515.5 c 128,-1,13
 530 1517 530 1517 528 1519 c 0,14,15
 525 1522 525 1522 521 1524 c 128,-1,16
 517 1526 517 1526 512 1527 c 128,-1,17
 507 1528 507 1528 501 1528 c 2,18,-1
 350 1528 l 2,19,20
 349 1528 349 1528 348 1529 c 128,-1,21
 347 1530 347 1530 347 1531 c 2,22,-1
 347 1833 l 2,23,24
 347 1834 347 1834 348 1835 c 128,-1,25
 349 1836 349 1836 350 1836 c 2,26,-1
 501 1836 l 2,27,28
 549 1836 549 1836 591 1825 c 0,29,30
 602 1822 602 1822 612.5 1818.5 c 128,-1,31
 623 1815 623 1815 633 1810.5 c 128,-1,32
 643 1806 643 1806 653 1801.5 c 128,-1,33
 663 1797 663 1797 673 1791 c 0,34,35
 711 1769 711 1769 745 1735 c 0,36,37
 762 1718 762 1718 775.5 1700 c 128,-1,38
 789 1682 789 1682 800.5 1663 c 128,-1,39
 812 1644 812 1644 820 1623 c 0,40,41
 846 1562 846 1562 846 1491 c 2,42,-1
 846 1109 l 2,43,44
 846 1106 846 1106 846 1103.5 c 128,-1,45
 846 1101 846 1101 846.5 1099 c 128,-1,46
 847 1097 847 1097 847.5 1095 c 128,-1,47
 848 1093 848 1093 848.5 1091 c 128,-1,48
 849 1089 849 1089 850 1087.5 c 128,-1,49
 851 1086 851 1086 852.5 1084.5 c 128,-1,50
 854 1083 854 1083 855 1081 c 0,51,52
 858 1078 858 1078 862 1076 c 128,-1,53
 866 1074 866 1074 871.5 1073 c 128,-1,54
 877 1072 877 1072 883 1072 c 2,55,-1
 1034 1072 l 2,56,57
 1035 1072 1035 1072 1036 1071 c 128,-1,58
 1037 1070 1037 1070 1037 1068 c 2,59,-1
 1037 767 l 2,60,61
 1037 766 1037 766 1036 765 c 0,62,63
 1036 764 1036 764 1034 764 c 2,64,-1
 883 764 l 2,65,66
 880 764 880 764 877.5 764 c 128,-1,67
 875 764 875 764 873 763.5 c 128,-1,68
 871 763 871 763 869 762.5 c 128,-1,69
 867 762 867 762 865 761 c 128,-1,70
 863 760 863 760 861.5 759 c 128,-1,71
 860 758 860 758 858.5 757 c 128,-1,72
 857 756 857 756 855 754 c 0,73,74
 850 749 850 749 848 742.5 c 128,-1,75
 846 736 846 736 846 727 c 2,76,-1
 846 345 l 2,77,78
 846 202 846 202 744.5 101 c 128,-1,79
 643 0 643 0 501 0 c 2,80,-1
 350 0 l 2,81,82
 349 0 349 0 348 1 c 128,-1,83
 347 2 347 2 347 3 c 2,84,-1
 347 304 l 2,85,86
 347 305 347 305 348 306.5 c 128,-1,87
 349 308 349 308 350 308 c 2,88,-1
 501 308 l 2,89,90
 510 308 510 308 517 310 c 128,-1,91
 524 312 524 312 528.5 317 c 128,-1,92
 533 322 533 322 535.5 329 c 128,-1,93
 538 336 538 336 538 345 c 2,94,-1
 538 727 l 2,95,96
 538 779 538 779 552 826 c 0,97,98
 556 838 556 838 560.5 849.5 c 128,-1,99
 565 861 565 861 570 872 c 128,-1,100
 575 883 575 883 581.5 894 c 128,-1,101
 588 905 588 905 595 916 c 0,102,-1
 595 916.5 l 0,103,104
 595 917 595 917 595 918 c 128,-1,105
 595 919 595 919 595 920 c 0,0,1
3 3 m 2,106,-1
 3 152 l 2,107,108
 3 153 3 153 4 154 c 128,-1,109
 5 155 5 155 6 155 c 2,110,-1
 155 155 l 2,111,112
 156 155 156 155 157 154 c 128,-1,113
 158 153 158 153 158 152 c 2,114,-1
 158 3 l 2,115,116
 158 2 158 2 157 1 c 128,-1,117
 156 0 156 0 155 0 c 2,118,-1
 6 0 l 2,119,120
 5 0 5 0 4 1 c 128,-1,121
 3 2 3 2 3 3 c 2,106,-1
EndSplineSet
EndChar

StartChar: asciitilde
Encoding: 126 126 73
Width: 1377
VWidth: -3
Flags: W
LayerCount: 2
Fore
SplineSet
11 1073 m 1,0,-1
 307 1147 l 2,1,2
 308 1147 308 1147 309.5 1146.5 c 128,-1,3
 311 1146 311 1146 311 1144 c 0,4,5
 311 1124 311 1124 315.5 1106 c 128,-1,6
 320 1088 320 1088 329 1072 c 128,-1,7
 338 1056 338 1056 351 1043 c 128,-1,8
 364 1030 364 1030 381 1019 c 0,9,10
 452 974 452 974 528 1010 c 2,11,-1
 723 1103 l 2,12,13
 930 1202 930 1202 1133 1096 c 0,14,15
 1146 1089 1146 1089 1158 1082 c 128,-1,16
 1170 1075 1170 1075 1181.5 1067.5 c 128,-1,17
 1193 1060 1193 1060 1203.5 1052 c 128,-1,18
 1214 1044 1214 1044 1224 1036 c 0,19,20
 1244 1019 1244 1019 1262 1000 c 128,-1,21
 1280 981 1280 981 1295 961 c 0,22,23
 1303 951 1303 951 1309.5 940 c 128,-1,24
 1316 929 1316 929 1322 917.5 c 128,-1,25
 1328 906 1328 906 1334 894.5 c 128,-1,26
 1340 883 1340 883 1344 871 c 0,27,28
 1364 822 1364 822 1374 766 c 0,29,30
 1374 765.5 l 0,31,32
 1374 765 1374 765 1374 764.5 c 128,-1,33
 1374 764 1374 764 1373 764 c 2,34,-1
 1373 763 l 2,35,36
 1372 762 1372 762 1371 762 c 2,37,-1
 1077 688 l 2,38,39
 1076 688 1076 688 1074.5 689 c 128,-1,40
 1073 690 1073 690 1073 691 c 0,41,42
 1072 773 1072 773 1002 817 c 0,43,44
 931 862 931 862 856 826 c 2,45,-1
 661 733 l 2,46,-1
 661 733 l 0,47,-1
 661 733 l 0,48,49
 660.5 733 l 0,50,-1
 660 733 l 0,51,52
 453 634 453 634 250 740 c 0,53,54
 199 766 199 766 159 800 c 128,-1,55
 119 834 119 834 89 875 c 0,56,57
 29 957 29 957 10 1070 c 0,58,59
 10 1071 10 1071 10 1073 c 0,60,61
 11 1073 l 1,0,-1
3 3 m 2,62,-1
 3 152 l 2,63,64
 3 153 3 153 4 154 c 128,-1,65
 5 155 5 155 6 155 c 2,66,-1
 155 155 l 2,67,68
 156 155 156 155 157 154 c 128,-1,69
 158 153 158 153 158 152 c 2,70,-1
 157 3 l 2,71,72
 157 2 157 2 156 1 c 128,-1,73
 155 0 155 0 154 0 c 2,74,-1
 6 0 l 2,75,76
 4 0 4 0 3 2 c 0,77,78
 3 3 l 2,62,-1
EndSplineSet
EndChar

StartChar: uni0080
Encoding: 128 128 74
Width: 992
VWidth: -3
Flags: W
LayerCount: 2
Fore
SplineSet
3 3 m 2,0,-1
 3 152 l 2,1,2
 3 153 3 153 4 154 c 128,-1,3
 5 155 5 155 6 155 c 2,4,-1
 155 155 l 2,5,6
 156 155 156 155 157 154 c 0,7,8
 157 154 l 2,9,-1
 263 48 l 2,10,11
 264 47 264 47 264 45 c 2,12,-1
 264 -103 l 2,13,14
 264 -104 264 -104 263 -105 c 128,-1,15
 262 -106 262 -106 261 -106 c 2,16,-1
 112 -106 l 2,17,18
 111 -106 111 -106 110 -105 c 2,19,-1
 4 1 l 2,20,21
 4 1 l 0,22,23
 3 2 3 2 3 3 c 2,0,-1
951 354 m 2,24,25
 951 353 951 353 949 352 c 1,26,-1
 647 352 l 2,27,28
 646 352 646 352 645 353 c 2,29,-1
 539 459 l 2,30,31
 538 460 538 460 538 462 c 2,32,-1
 500 1833 l 2,33,34
 500 1834 500 1834 501 1835 c 128,-1,35
 502 1836 502 1836 503 1836 c 2,36,-1
 881 1836 l 2,37,38
 882 1836 882 1836 883 1835 c 0,39,40
 883 1835 l 2,41,-1
 989 1729 l 2,42,43
 990 1728 990 1728 990 1726 c 2,44,-1
 952 355 l 1,45,-1
 846 462 l 2,46,47
 846 461 l 2,48,-1
 952 355 l 1,49,-1
 951 354 l 2,24,25
538 230 m 2,50,51
 538 262 538 262 560.5 285 c 128,-1,52
 583 308 583 308 615 307 c 2,53,-1
 768 308 l 2,54,55
 779 308 779 308 788 305 c 0,56,57
 790 305 790 305 791.5 304.5 c 128,-1,58
 793 304 793 304 794.5 303.5 c 128,-1,59
 796 303 796 303 797.5 302 c 128,-1,60
 799 301 799 301 800.5 300.5 c 128,-1,61
 802 300 802 300 803.5 299 c 128,-1,62
 805 298 805 298 807 297 c 0,63,64
 816 292 816 292 823 285 c 0,65,66
 826 282 826 282 828 279 c 2,67,-1
 934 173 l 2,68,69
 936 170 936 170 939 167 c 0,70,71
 940 165 940 165 941.5 163 c 128,-1,72
 943 161 943 161 944 158.5 c 128,-1,73
 945 156 945 156 946 154 c 0,74,75
 949 147 949 147 950 140 c 128,-1,76
 951 133 951 133 952 124 c 2,77,-1
 952 -29 l 2,78,79
 952 -61 952 -61 929 -83.5 c 128,-1,80
 906 -106 906 -106 874 -106 c 2,81,-1
 721 -106 l 2,82,83
 710 -106 710 -106 701 -104 c 0,84,85
 691 -102 691 -102 683 -96 c 0,86,87
 679 -93 679 -93 675 -90 c 128,-1,88
 671 -87 671 -87 667 -83 c 2,89,-1
 561 23 l 2,90,91
 555 29 555 29 550.5 35 c 128,-1,92
 546 41 546 41 543.5 47.5 c 128,-1,93
 541 54 541 54 539.5 61.5 c 128,-1,94
 538 69 538 69 538 77 c 2,95,-1
 538 230 l 2,50,51
550 230 m 2,96,-1
 550 77 l 2,97,98
 550 70 550 70 552 64 c 0,99,100
 553 58 553 58 555 52.5 c 128,-1,101
 557 47 557 47 561 42 c 128,-1,102
 565 37 565 37 569 31 c 0,103,104
 570 30 570 30 571.5 29 c 128,-1,105
 573 28 573 28 574 27 c 128,-1,106
 575 26 575 26 576 26 c 0,107,108
 579 23 579 23 583 21 c 0,109,110
 584 21 584 21 585 20 c 128,-1,111
 586 19 586 19 586.5 19 c 128,-1,112
 587 19 587 19 588 18.5 c 128,-1,113
 589 18 589 18 589.5 17.5 c 128,-1,114
 590 17 590 17 591 17 c 128,-1,115
 592 17 592 17 593 16.5 c 128,-1,116
 594 16 594 16 595 15.5 c 128,-1,117
 596 15 596 15 596.5 15 c 128,-1,118
 597 15 597 15 598 15 c 0,119,120
 606 12 606 12 615 12 c 2,121,-1
 768 12 l 2,122,123
 777 12 777 12 785 14.5 c 128,-1,124
 793 17 793 17 800.5 21 c 128,-1,125
 808 25 808 25 814 31 c 0,126,127
 824 41 824 41 828.5 52.5 c 128,-1,128
 833 64 833 64 833 77 c 2,129,-1
 833 230 l 2,130,131
 833 237 833 237 832 243 c 128,-1,132
 831 249 831 249 828 255 c 0,133,134
 827 257 827 257 827 259 c 0,135,136
 827 260 827 260 826 260.5 c 128,-1,137
 825 261 825 261 824.5 262 c 128,-1,138
 824 263 824 263 823.5 264 c 128,-1,139
 823 265 823 265 822 266 c 128,-1,140
 821 267 821 267 820.5 268.5 c 128,-1,141
 820 270 820 270 819 271 c 128,-1,142
 818 272 818 272 817 273 c 128,-1,143
 816 274 816 274 815.5 274.5 c 128,-1,144
 815 275 815 275 814 276 c 0,145,146
 808 282 808 282 800 287 c 0,147,148
 799 288 799 288 798 288.5 c 128,-1,149
 797 289 797 289 796 289 c 128,-1,150
 795 289 795 289 794.5 289.5 c 128,-1,151
 794 290 794 290 793 290 c 0,152,153
 792 291 792 291 791 291 c 0,154,-1
 790 291.5 l 0,155,156
 789 292 789 292 788.5 292 c 0,157,-1
 788 292 l 0,158,159
 787 292 787 292 785 293 c 0,160,161
 781 294 781 294 777 294.5 c 128,-1,162
 773 295 773 295 768 295 c 2,163,-1
 615 295 l 2,164,165
 601 295 601 295 590 290.5 c 0,166,167
 580 286 580 286 570 276 c 0,168,169
 550 257 550 257 550 230 c 2,96,-1
833 471 m 1,170,-1
 871 1823 l 1,171,-1
 513 1823 l 1,172,-1
 551 471 l 1,173,-1
 833 471 l 1,170,-1
16 12 m 1,174,-1
 145 12 l 1,175,-1
 145 142 l 1,176,-1
 16 142 l 1,177,-1
 16 12 l 1,174,-1
EndSplineSet
EndChar

StartChar: uni0081
Encoding: 129 129 75
Width: 1183
VWidth: -3
Flags: W
LayerCount: 2
Fore
SplineSet
771 1836 m 2,0,-1
 1071 1836 l 2,1,2
 1072 1836 1072 1836 1073 1835 c 0,3,4
 1074 1835 l 0,5,6
 1074 1834 l 2,7,-1
 1180 1728 l 2,8,9
 1180 1727 1180 1727 1181 1726 c 2,10,-1
 1143 1272 l 2,11,12
 1143 1271 1143 1271 1142.5 1270.5 c 128,-1,13
 1142 1270 1142 1270 1141 1269.5 c 0,14,-1
 1140 1269 l 2,15,-1
 915 1269 l 2,16,17
 914 1269 914 1269 912 1270 c 2,18,-1
 806 1376 l 2,19,20
 806 1376 l 0,21,22
 805 1377 805 1377 805 1378 c 2,23,-1
 767 1832 l 2,24,25
 767 1833 767 1833 768.5 1834.5 c 128,-1,26
 770 1836 770 1836 771 1836 c 2,0,-1
312 1836 m 2,27,-1
 613 1836 l 2,28,29
 614 1836 614 1836 615 1835 c 0,30,31
 615 1835 l 2,32,-1
 721 1729 l 2,33,34
 722 1728 722 1728 722 1726 c 2,35,-1
 684 1272 l 2,36,37
 684 1271 l 0,38,-1
 683.5 1270.5 l 0,39,40
 683 1270 683 1270 682.5 1269.5 c 128,-1,41
 682 1269 682 1269 681 1269 c 2,42,-1
 457 1269 l 1,43,-1
 351 1375 l 2,44,-1
 350.5 1375.5 l 0,45,46
 350 1376 350 1376 349 1376 c 0,47,-1
 349 1376 l 0,48,49
 349 1377 l 0,50,51
 348.5 1377.5 l 0,52,-1
 348 1378 l 2,53,-1
 309 1832 l 2,54,55
 309 1833 309 1833 310 1834.5 c 128,-1,56
 311 1836 311 1836 312 1836 c 2,27,-1
6 155 m 2,57,-1
 155 155 l 2,58,59
 156 155 156 155 157 154 c 0,60,61
 157 154 l 2,62,-1
 263 48 l 2,63,64
 264 47 264 47 264 45 c 2,65,-1
 264 -103 l 2,66,67
 264 -104 264 -104 263 -105 c 128,-1,68
 262 -106 262 -106 261 -106 c 2,69,-1
 112 -106 l 2,70,71
 111 -106 111 -106 110 -105 c 2,72,-1
 4 1 l 2,73,74
 4 1 l 0,75,76
 3 2 3 2 3 3 c 2,77,-1
 3 152 l 2,78,79
 3 153 3 153 4 154 c 128,-1,80
 5 155 5 155 6 155 c 2,57,-1
16 142 m 1,81,-1
 16 12 l 1,82,-1
 145 12 l 1,83,-1
 145 142 l 1,84,-1
 16 142 l 1,81,-1
322 1823 m 1,85,-1
 360 1388 l 1,86,-1
 567 1388 l 1,87,-1
 603 1823 l 1,88,-1
 322 1823 l 1,85,-1
781 1823 m 1,89,-1
 817 1388 l 1,90,-1
 1025 1388 l 1,91,-1
 1061 1823 l 1,92,93
 1030 1823 1030 1823 991 1823 c 128,-1,94
 952 1823 952 1823 921 1823 c 128,-1,95
 890 1823 890 1823 851 1823 c 128,-1,96
 812 1823 812 1823 781 1823 c 1,89,-1
EndSplineSet
EndChar

StartChar: uni0082
Encoding: 130 130 76
Width: 1795
VWidth: -3
Flags: W
LayerCount: 2
Fore
SplineSet
718 1067 m 2,0,-1
 824 961 l 1,1,-1
 791 766 l 1,2,-1
 968 766 l 2,3,4
 969 766 969 766 970 766 c 128,-1,5
 971 766 971 766 971 767 c 2,6,-1
 972 769 l 1,7,-1
 1004 964 l 1,8,-1
 827 964 l 2,9,10
 826 964 826 964 825 963 c 0,11,12
 824 963 824 963 824 962 c 1,13,-1
 718 1068 l 2,14,-1
 718 1068 l 0,15,-1
 718 1068 l 0,16,-1
 718 1067 l 2,0,-1
106 1072 m 2,17,-1
 105 1073 l 1,18,-1
 156 1373 l 2,19,20
 156 1374 156 1374 157 1375 c 128,-1,21
 158 1376 158 1376 159 1376 c 2,22,-1
 459 1377 l 2,23,24
 460 1377 460 1377 461 1378 c 0,25,26
 462 1378 462 1378 462 1379 c 0,27,-1
 462 1380 l 2,28,-1
 538 1833 l 2,29,30
 538 1834 538 1834 539 1835 c 128,-1,31
 540 1836 540 1836 541 1836 c 2,32,-1
 842 1836 l 2,33,34
 843 1836 843 1836 844 1835 c 0,35,-1
 844 1835 l 2,36,-1
 950 1728 l 2,37,38
 951 1727 951 1727 951 1726 c 2,39,-1
 893 1377 l 1,40,-1
 1070 1377 l 2,41,42
 1071 1377 1071 1377 1072 1378 c 128,-1,43
 1073 1379 1073 1379 1073 1380 c 2,44,-1
 1149 1832 l 2,45,-1
 1149 1833 l 0,46,47
 1149 1834 1149 1834 1151 1834 c 0,48,49
 1152 1834 1152 1834 1152 1835 c 2,50,-1
 1453 1836 l 2,51,52
 1454 1836 1454 1836 1455 1835 c 0,53,-1
 1456 1835 l 2,54,-1
 1562 1728 l 2,55,56
 1563 1727 1563 1727 1562 1726 c 2,57,-1
 1504 1377 l 1,58,-1
 1683 1377 l 2,59,60
 1684 1377 1684 1377 1685 1376 c 0,61,-1
 1685 1376 l 2,62,-1
 1791 1270 l 2,63,64
 1792 1269 1792 1269 1792 1268 c 2,65,-1
 1741 966 l 2,66,-1
 1741 965.5 l 0,67,-1
 1741 965 l 0,68,-1
 1740 964 l 0,69,-1
 1739 964 l 0,70,-1
 1738 964 l 2,71,-1
 1438 964 l 2,72,73
 1437 964 1437 964 1436 963 c 128,-1,74
 1435 962 1435 962 1435 961 c 2,75,-1
 1402 766 l 1,76,-1
 1581 766 l 2,77,78
 1582 766 1582 766 1583 765 c 0,79,-1
 1583 765 l 2,80,-1
 1689 659 l 2,81,82
 1690 658 1690 658 1690 656 c 2,83,-1
 1640 355 l 2,84,85
 1640 354 1640 354 1639 353 c 128,-1,86
 1638 352 1638 352 1636 352 c 2,87,-1
 1336 352 l 2,88,-1
 1335 352 l 0,89,-1
 1334 352 l 1,90,-1
 1228 458 l 2,91,-1
 1228 457 l 0,92,-1
 1227 457 l 0,93,-1
 1227 457 l 0,94,-1
 1227 456 l 0,95,-1
 1227 456 l 2,96,-1
 1333 350 l 1,97,-1
 1258 -103 l 2,98,99
 1258 -104 1258 -104 1257 -105 c 128,-1,100
 1256 -106 1256 -106 1254 -106 c 2,101,-1
 953 -106 l 2,102,103
 952 -106 952 -106 951 -105 c 2,104,-1
 845 1 l 2,105,-1
 845 1 l 0,106,107
 844 2 844 2 844 4 c 2,108,-1
 902 352 l 1,109,-1
 725 352 l 1,110,-1
 619 458 l 2,111,-1
 618 458 l 2,112,-1
 724 352 l 2,113,-1
 723 352 l 0,114,-1
 723 352 l 0,115,-1
 722.5 351.5 l 0,116,117
 722 351 722 351 722 350 c 0,118,-1
 722 350 l 2,119,-1
 646 -103 l 2,120,121
 646 -104 646 -104 646 -105 c 2,122,-1
 643 -106 l 1,123,-1
 342 -106 l 2,124,125
 341 -106 341 -106 340 -105 c 2,126,-1
 234 1 l 2,127,-1
 234 1 l 0,128,129
 233 2 233 2 233 4 c 2,130,-1
 291 352 l 1,131,-1
 113 352 l 2,132,133
 112 352 112 352 111 353 c 2,134,-1
 5 459 l 2,135,-1
 4 460 l 0,136,137
 3 461 3 461 4 462 c 2,138,-1
 54 762 l 2,139,140
 54 763 54 763 55 764 c 128,-1,141
 56 765 56 765 57 765 c 2,142,-1
 357 766 l 2,143,144
 358 766 358 766 359 767 c 0,145,-1
 360 767 l 0,146,-1
 360 768 l 0,147,-1
 360 769 l 2,148,-1
 393 964 l 1,149,-1
 215 964 l 2,150,151
 214 964 214 964 213 964 c 2,152,-1
 107 1070 l 2,153,-1
 106 1071 l 0,154,-1
 106 1072 l 2,17,-1
669 767 m 2,155,-1
 669 767 l 2,156,-1
 669 767 l 0,157,-1
 669 767 l 2,155,-1
409 1068 m 2,158,-1
 409 1068.5 l 0,159,160
 409 1069 409 1069 408 1069 c 2,161,-1
 409 1068 l 2,158,-1
308 455 m 2,162,-1
 308 455 l 0,163,-1
 308 456 l 0,164,-1
 308 457 l 0,165,166
 308 458 308 458 307 458 c 0,167,-1
 306 458 l 0,168,-1
 305 458 l 1,169,-1
 308 455 l 2,162,-1
1283 766 m 1,170,-1
 1279 770 l 1,171,172
 1279 769 1279 769 1279 768 c 128,-1,173
 1279 767 1279 767 1280 767 c 0,174,-1
 1280 767 l 0,175,176
 1281 766 1281 766 1282 766 c 2,177,-1
 1283 766 l 1,170,-1
1382 1378 m 2,178,-1
 1382 1378 l 2,179,-1
 1382 1378 l 0,180,-1
 1382 1378 l 2,178,-1
1218 466 m 1,181,-1
 1217 464 l 1,182,-1
 1218 466 l 2,183,-1
 1218.5 466 l 0,184,185
 1219 466 1219 466 1219.5 466.5 c 0,186,-1
 1220 467 l 0,187,188
 1221 468 1221 468 1222.5 469 c 128,-1,189
 1224 470 1224 470 1225 470 c 128,-1,190
 1226 470 1226 470 1227.5 470.5 c 128,-1,191
 1229 471 1229 471 1230 471 c 2,192,-1
 1522 471 l 1,193,-1
 1570 754 l 1,194,-1
 1282 754 l 2,195,196
 1280 754 1280 754 1277.5 754.5 c 128,-1,197
 1275 755 1275 755 1273.5 756 c 128,-1,198
 1272 757 1272 757 1271 759 c 0,199,200
 1269 761 1269 761 1268 764 c 0,201,202
 1268 765 1268 765 1267.5 765.5 c 128,-1,203
 1267 766 1267 766 1267 766.5 c 128,-1,204
 1267 767 1267 767 1267 767.5 c 128,-1,205
 1267 768 1267 768 1267 768.5 c 128,-1,206
 1267 769 1267 769 1267 769.5 c 0,207,-1
 1267 770 l 0,208,-1
 1267 770.5 l 0,209,210
 1267 771 1267 771 1267 771.5 c 0,211,-1
 1267 772 l 2,212,-1
 1316 1069 l 2,213,214
 1316 1072 1316 1072 1317.5 1074 c 128,-1,215
 1319 1076 1319 1076 1321 1078 c 0,216,217
 1326 1082 1326 1082 1332 1082 c 2,218,-1
 1624 1082 l 1,219,-1
 1671 1365 l 1,220,221
 1623 1365 1623 1365 1527.5 1365 c 128,-1,222
 1432 1365 1432 1365 1384 1365 c 0,223,224
 1382 1365 1382 1365 1380.5 1365.5 c 128,-1,225
 1379 1366 1379 1366 1377.5 1366.5 c 128,-1,226
 1376 1367 1376 1367 1375 1368 c 128,-1,227
 1374 1369 1374 1369 1373 1370 c 0,228,229
 1371 1372 1371 1372 1369.5 1376 c 128,-1,230
 1368 1380 1368 1380 1369 1383 c 2,231,-1
 1442 1823 l 1,232,-1
 1160 1822 l 1,233,234
 1148 1748 1148 1748 1123 1600 c 128,-1,235
 1098 1452 1098 1452 1086 1378 c 0,236,237
 1086 1375 1086 1375 1084.5 1373 c 128,-1,238
 1083 1371 1083 1371 1081 1369 c 128,-1,239
 1079 1367 1079 1367 1076 1366 c 128,-1,240
 1073 1365 1073 1365 1070 1365 c 2,241,-1
 773 1365 l 2,242,243
 771 1365 771 1365 769.5 1365.5 c 128,-1,244
 768 1366 768 1366 766 1366 c 0,245,246
 764 1367 764 1367 762 1370 c 0,247,248
 759 1373 759 1373 758 1376.5 c 128,-1,249
 757 1380 757 1380 758 1383 c 2,250,-1
 831 1823 l 1,251,-1
 549 1823 l 1,252,-1
 475 1378 l 2,253,254
 475 1375 475 1375 473 1373 c 2,255,-1
 473 1373 l 1,256,-1
 473 1372 l 2,257,258
 472 1370 472 1370 470 1369 c 0,259,260
 468 1367 468 1367 465 1366 c 128,-1,261
 462 1365 462 1365 459 1365 c 2,262,-1
 167 1364 l 1,263,-1
 120 1082 l 1,264,-1
 407 1082 l 2,265,266
 408 1082 408 1082 409 1082 c 128,-1,267
 410 1082 410 1082 411 1081.5 c 128,-1,268
 412 1081 412 1081 413 1080.5 c 128,-1,269
 414 1080 414 1080 415 1080 c 0,270,271
 419 1078 419 1078 421 1073 c 0,272,273
 422 1072 422 1072 422 1070.5 c 128,-1,274
 422 1069 422 1069 422 1067 c 128,-1,275
 422 1065 422 1065 422 1064 c 2,276,-1
 372 766 l 1,277,-1
 372 765 l 1,278,-1
 372 763 l 1,279,-1
 371 761 l 1,280,-1
 371 761 l 1,281,-1
 370 760 l 2,282,283
 369 759 369 759 368 757 c 0,284,285
 364 754 364 754 357 754 c 2,286,-1
 65 752 l 1,287,-1
 18 471 l 1,288,-1
 305 471 l 2,289,290
 309 471 309 471 313 469 c 0,291,292
 314 468 314 468 315 467 c 128,-1,293
 316 466 316 466 317 465 c 128,-1,294
 318 464 318 464 319 462 c 0,295,296
 320 461 320 461 320 459 c 128,-1,297
 320 457 320 457 321 456 c 0,298,299
 321 455 321 455 320.5 454.5 c 128,-1,300
 320 454 320 454 320 453 c 2,301,-1
 247 12 l 1,302,-1
 529 12 l 1,303,-1
 604 459 l 1,304,-1
 604 460 l 1,305,-1
 604 461 l 1,306,-1
 604 462 l 2,307,308
 605 464 605 464 606 465 c 0,309,310
 606 466 606 466 607 466.5 c 0,311,-1
 608 467 l 2,312,-1
 609 467 l 1,313,-1
 609 468 l 2,314,315
 610 468 610 468 610 469 c 2,316,-1
 611 469 l 1,317,-1
 611 469 l 2,318,319
 612 469 612 469 612.5 469.5 c 128,-1,320
 613 470 613 470 614 470.5 c 128,-1,321
 615 471 615 471 616 471 c 0,322,-1
 616.5 471 l 0,323,324
 617 471 617 471 617.5 471 c 0,325,-1
 618 471 l 0,326,-1
 619 471 l 2,327,-1
 916 471 l 2,328,329
 919 471 919 471 922.5 469.5 c 128,-1,330
 926 468 926 468 928 466 c 0,331,332
 930 463 930 463 931 459.5 c 128,-1,333
 932 456 932 456 932 453 c 2,334,-1
 858 12 l 1,335,-1
 1140 12 l 1,336,-1
 1215 459 l 1,337,-1
 1215 459 l 1,338,-1
 1215 459 l 1,339,-1
 1215 460 l 2,340,341
 1215 462 1215 462 1217 463 c 0,342,-1
 1217 463.5 l 0,343,-1
 1217 464 l 2,344,-1
 1219 466 l 1,345,-1
 1218 466 l 1,181,-1
705 1069 m 2,346,347
 705 1070 705 1070 705.5 1070.5 c 0,348,-1
 706 1071 l 0,349,350
 706 1072 706 1072 707 1074 c 0,351,352
 707 1075 707 1075 707.5 1075 c 128,-1,353
 708 1075 708 1075 708 1076 c 0,354,355
 709 1077 709 1077 709.5 1077.5 c 128,-1,356
 710 1078 710 1078 711 1079 c 128,-1,357
 712 1080 712 1080 713 1080 c 0,358,359
 716 1082 716 1082 721 1082 c 2,360,-1
 1018 1082 l 2,361,362
 1020 1082 1020 1082 1022.5 1081.5 c 128,-1,363
 1025 1081 1025 1081 1026.5 1079.5 c 128,-1,364
 1028 1078 1028 1078 1030 1077 c 0,365,366
 1032 1075 1032 1075 1033 1071 c 128,-1,367
 1034 1067 1034 1067 1034 1064 c 2,368,-1
 984 765 l 1,369,-1
 982 761 l 1,370,-1
 981 760 l 2,371,372
 979 757 979 757 976 755 c 0,373,374
 974 754 974 754 972 754 c 128,-1,375
 970 754 970 754 968 754 c 2,376,-1
 671 754 l 2,377,378
 669 754 669 754 667.5 754 c 128,-1,379
 666 754 666 754 664.5 755 c 128,-1,380
 663 756 663 756 661.5 757 c 128,-1,381
 660 758 660 758 660 759 c 0,382,383
 658 761 658 761 657 763 c 128,-1,384
 656 765 656 765 655.5 767 c 128,-1,385
 655 769 655 769 656 772 c 2,386,-1
 705 1069 l 2,346,347
EndSplineSet
EndChar

StartChar: uni0083
Encoding: 131 131 77
Width: 1489
VWidth: -3
Flags: W
LayerCount: 2
Fore
SplineSet
6 613 m 0,0,1
 6 613 l 0,2,-1
 6 613 l 2,3,-1
 308 613 l 2,4,5
 309 613 l 0,6,7
 310 613 310 613 310 612 c 0,8,9
 310 612 l 0,10,11
 310 611 l 2,12,-1
 416 505 l 2,13,14
 416 504 416 504 417 504 c 0,15,16
 417 494 417 494 418 484 c 0,17,18
 419 475 419 475 422 466 c 1,19,20
 427 465 427 465 432 463 c 0,21,22
 447 460 447 460 462 460 c 2,23,-1
 535 460 l 2,24,25
 536 460 536 460 536 460.5 c 128,-1,26
 536 461 536 461 537 461 c 0,27,28
 538 462 538 462 538 462.5 c 0,29,-1
 538 464 l 2,30,-1
 538 659 l 1,31,32
 532 659 532 659 527 660 c 0,33,34
 520 661 520 661 513.5 661.5 c 128,-1,35
 507 662 507 662 500 663 c 128,-1,36
 493 664 493 664 487 665 c 0,37,38
 477 667 477 667 467 668.5 c 128,-1,39
 457 670 457 670 448 673 c 0,40,41
 429 678 429 678 410 685 c 0,42,43
 407 686 407 686 404 687 c 128,-1,44
 401 688 401 688 398 689 c 128,-1,45
 395 690 395 690 392 691.5 c 128,-1,46
 389 693 389 693 386 694 c 128,-1,47
 383 695 383 695 380 696.5 c 128,-1,48
 377 698 377 698 374 700 c 0,49,50
 356 708 356 708 339.5 718 c 128,-1,51
 323 728 323 728 306.5 739.5 c 128,-1,52
 290 751 290 751 274 764 c 128,-1,53
 258 777 258 777 244 793 c 2,54,-1
 138 899 l 1,55,-1
 138 899 l 2,56,57
 3 1034 3 1034 3 1224 c 128,-1,58
 3 1414 3 1414 137.5 1548.5 c 128,-1,59
 272 1683 272 1683 462 1683 c 2,60,-1
 535 1683 l 2,61,-1
 536 1683 l 0,62,-1
 537 1684 l 0,63,-1
 538 1685 l 0,64,-1
 538 1686 l 2,65,-1
 538 1833 l 2,66,67
 538 1834 538 1834 539 1835 c 128,-1,68
 540 1836 540 1836 541 1836 c 2,69,-1
 842 1836 l 2,70,71
 843 1836 843 1836 844 1835 c 0,72,-1
 845 1835 l 2,73,-1
 951 1729 l 2,74,75
 952 1728 952 1728 952 1727 c 2,76,-1
 952 1682 l 1,77,78
 983 1680 983 1680 1013 1674 c 0,79,80
 1019 1673 1019 1673 1024 1672 c 128,-1,81
 1029 1671 1029 1671 1034.5 1669.5 c 128,-1,82
 1040 1668 1040 1668 1045.5 1667 c 128,-1,83
 1051 1666 1051 1666 1056 1664 c 128,-1,84
 1061 1662 1061 1662 1066.5 1660.5 c 128,-1,85
 1072 1659 1072 1659 1077 1657 c 128,-1,86
 1082 1655 1082 1655 1087 1653 c 128,-1,87
 1092 1651 1092 1651 1097 1649 c 0,88,89
 1138 1632 1138 1632 1175 1607 c 128,-1,90
 1212 1582 1212 1582 1246 1548 c 2,91,-1
 1352 1442 l 2,92,93
 1419 1375 1419 1375 1452.5 1294.5 c 128,-1,94
 1486 1214 1486 1214 1486 1120 c 0,95,96
 1486 1119 1486 1119 1485.5 1118 c 128,-1,97
 1485 1117 1485 1117 1484.5 1117 c 128,-1,98
 1484 1117 1484 1117 1483 1117 c 2,99,-1
 1182 1117 l 2,100,101
 1181 1117 1181 1117 1180 1117 c 2,102,-1
 1074 1224 l 1,103,-1
 1074 1224 l 2,104,105
 1073 1225 1073 1225 1073 1226 c 0,106,107
 1073 1246 1073 1246 1068 1264 c 1,108,109
 1049 1269 1049 1269 1027 1269 c 2,110,-1
 955 1269 l 2,111,112
 954 1269 954 1269 953.5 1269 c 128,-1,113
 953 1269 953 1269 953 1268 c 0,114,-1
 952 1267 l 0,115,-1
 952 1266 l 2,116,-1
 952 1071 l 1,117,118
 998 1068 998 1068 1041 1056 c 0,119,120
 1099 1041 1099 1041 1152 1010 c 0,121,122
 1164 1003 1164 1003 1175 996 c 128,-1,123
 1186 989 1186 989 1196.5 981 c 128,-1,124
 1207 973 1207 973 1217 964.5 c 128,-1,125
 1227 956 1227 956 1237 947 c 0,126,127
 1242 942 1242 942 1246.5 937.5 c 128,-1,128
 1251 933 1251 933 1256 928 c 2,129,-1
 1362 822 l 2,130,131
 1371 812 1371 812 1379.5 802 c 128,-1,132
 1388 792 1388 792 1395.5 781.5 c 128,-1,133
 1403 771 1403 771 1410.5 760 c 128,-1,134
 1418 749 1418 749 1425 737 c 0,135,136
 1440 711 1440 711 1451.5 683 c 128,-1,137
 1463 655 1463 655 1471 626 c 0,138,139
 1486 568 1486 568 1486 506 c 0,140,141
 1486 458 1486 458 1478 414 c 0,142,143
 1474 392 1474 392 1467.5 371 c 128,-1,144
 1461 350 1461 350 1453 330 c 0,145,146
 1436 289 1436 289 1411 252 c 0,147,148
 1405 243 1405 243 1398 234 c 128,-1,149
 1391 225 1391 225 1383.5 216 c 128,-1,150
 1376 207 1376 207 1368 198.5 c 128,-1,151
 1360 190 1360 190 1352 181 c 0,152,153
 1285 114 1285 114 1203.5 80.5 c 128,-1,154
 1122 47 1122 47 1027 47 c 2,155,-1
 955 47 l 2,156,157
 954 47 954 47 953.5 46.5 c 0,158,-1
 953 46 l 0,159,160
 952 45 952 45 952 44.5 c 0,161,-1
 952 44 l 2,162,-1
 952 -103 l 2,163,164
 952 -104 952 -104 951 -105 c 128,-1,165
 950 -106 950 -106 948 -106 c 2,166,-1
 647 -106 l 2,167,168
 646 -106 646 -106 645 -105 c 2,169,-1
 539 1 l 2,170,-1
 539 1 l 0,171,172
 538 2 538 2 538 3 c 2,173,-1
 538 48 l 1,174,175
 367 58 367 58 244 181 c 2,176,-1
 138 287 l 2,177,178
 71 354 71 354 37.5 435 c 128,-1,179
 4 516 4 516 3 610 c 0,180,181
 3 611 3 611 4 612 c 128,-1,182
 5 613 5 613 6 613 c 0,0,1
537 152 m 2,183,-1
 537 152 l 0,184,-1
 537 152 l 2,185,-1
 537 152 l 2,183,-1
849 1072 m 2,186,-1
 846 1075 l 2,187,-1
 846 1074 l 0,188,-1
 846 1073 l 0,189,-1
 846 1073 l 0,190,191
 847 1072 847 1072 847.5 1072 c 128,-1,192
 848 1072 848 1072 849 1072 c 2,186,-1
849 1683 m 2,193,-1
 846 1686 l 2,194,-1
 846 1685 l 0,195,-1
 846 1684 l 0,196,-1
 846 1684 l 0,197,-1
 847 1683.5 l 0,198,-1
 848 1683 l 0,199,-1
 849 1683 l 2,193,-1
537 763 m 2,200,-1
 537 763 l 0,201,-1
 537 763 l 2,202,-1
 537 763 l 2,200,-1
355 1116 m 1,203,-1
 355 1116 l 1,204,-1
 355 1116 l 1,205,-1
 355 1116 l 1,203,-1
422 1077 m 1,206,207
 440 1072 440 1072 462 1072 c 2,208,-1
 535 1072 l 2,209,-1
 536 1072 l 0,210,-1
 537 1073 l 0,211,-1
 538 1074 l 0,212,-1
 538 1075 l 2,213,-1
 538 1266 l 1,214,215
 537 1266 537 1266 535 1266 c 0,216,217
 532 1265 532 1265 529 1264 c 128,-1,218
 526 1263 526 1263 522.5 1262 c 128,-1,219
 519 1261 519 1261 516 1260 c 128,-1,220
 513 1259 513 1259 510 1258 c 0,221,222
 505 1256 505 1256 501 1254 c 128,-1,223
 497 1252 497 1252 492 1249 c 0,224,225
 480 1242 480 1242 470.5 1233.5 c 128,-1,226
 461 1225 461 1225 452 1215 c 0,227,228
 448 1210 448 1210 444 1205 c 128,-1,229
 440 1200 440 1200 437 1194 c 0,230,231
 417 1159 417 1159 417 1117 c 0,232,233
 417 1096 417 1096 422 1077 c 1,206,207
538 1372 m 2,234,-1
 538 1372.5 l 0,235,236
 538 1373 538 1373 538 1374 c 0,237,-1
 537 1374 l 0,238,-1
 537 1374 l 0,239,-1
 536.5 1374.5 l 0,240,-1
 536 1375 l 0,241,-1
 535.5 1375 l 0,242,-1
 535 1375 l 2,243,-1
 538 1372 l 2,234,-1
1032 717 m 2,244,245
 1031 719 1031 719 1029 720 c 128,-1,246
 1027 721 1027 721 1025 723 c 2,247,-1
 1032 717 l 2,244,245
1068 653 m 1,248,249
 1049 658 1049 658 1027 658 c 2,250,-1
 955 658 l 2,251,252
 954 658 954 658 953 657 c 128,-1,253
 952 656 952 656 952 655 c 2,254,-1
 952 463 l 1,255,256
 957 464 957 464 961 465 c 0,257,258
 967 467 967 467 973 469 c 0,259,260
 976 470 976 470 979 471.5 c 128,-1,261
 982 473 982 473 985 475 c 0,262,263
 991 478 991 478 997 481 c 0,264,265
 1032 501 1032 501 1053 536 c 0,266,267
 1063 554 1063 554 1068 573 c 128,-1,268
 1073 592 1073 592 1073 612 c 0,269,270
 1073 626 1073 626 1071 639 c 0,271,272
 1070 646 1070 646 1068 653 c 1,248,249
833 761 m 2,273,274
 833 767 833 767 837 772 c 0,275,276
 839 774 839 774 842 775.5 c 128,-1,277
 845 777 845 777 849 777 c 2,278,-1
 921 777 l 2,279,280
 966 777 966 777 1004 755 c 0,281,282
 1010 751 1010 751 1016 747 c 128,-1,283
 1022 743 1022 743 1027 738 c 0,284,285
 1031 735 1031 735 1034 732 c 128,-1,286
 1037 729 1037 729 1040.5 725.5 c 128,-1,287
 1044 722 1044 722 1047 718 c 0,288,289
 1056 707 1056 707 1063 695 c 0,290,291
 1070 682 1070 682 1076 669 c 0,292,293
 1078 662 1078 662 1080 655 c 128,-1,294
 1082 648 1082 648 1083 641 c 128,-1,295
 1084 634 1084 634 1084.5 627 c 128,-1,296
 1085 620 1085 620 1085 612 c 0,297,298
 1085 601 1085 601 1084 590.5 c 128,-1,299
 1083 580 1083 580 1080 569.5 c 128,-1,300
 1077 559 1077 559 1073 549 c 128,-1,301
 1069 539 1069 539 1063 530 c 0,302,303
 1052 511 1052 511 1037 496 c 128,-1,304
 1022 481 1022 481 1004 470 c 0,305,306
 998 466 998 466 991 463 c 0,307,308
 989 462 989 462 987.5 461.5 c 128,-1,309
 986 461 986 461 984 460 c 0,310,311
 981 459 981 459 978 458 c 0,312,313
 971 456 971 456 964 454 c 128,-1,314
 957 452 957 452 950 450.5 c 128,-1,315
 943 449 943 449 936 448 c 0,316,317
 932 448 932 448 928.5 448 c 128,-1,318
 925 448 925 448 921 448 c 2,319,-1
 849 448 l 2,320,321
 843 448 843 448 838 452 c 0,322,323
 836 454 836 454 834.5 457 c 128,-1,324
 833 460 833 460 833 464 c 2,325,-1
 833 761 l 2,273,274
535 1388 m 2,326,327
 536 1388 536 1388 538 1388 c 0,328,329
 539 1388 539 1388 541 1387 c 0,330,331
 542 1387 542 1387 542.5 1386.5 c 128,-1,332
 543 1386 543 1386 543 1385 c 0,333,334
 544 1385 544 1385 544.5 1384.5 c 0,335,-1
 545 1384 l 0,336,-1
 546 1383 l 0,337,338
 547 1382 547 1382 547.5 1381.5 c 0,339,-1
 548 1381 l 0,340,341
 549 1379 549 1379 550 1376 c 0,342,343
 550 1374 550 1374 550 1372 c 2,344,-1
 550 1075 l 2,345,346
 550 1073 550 1073 550 1071.5 c 128,-1,347
 550 1070 550 1070 549 1069 c 0,348,349
 549 1068 549 1068 548.5 1067.5 c 128,-1,350
 548 1067 548 1067 547.5 1066 c 0,351,-1
 547 1065 l 0,352,-1
 546 1064 l 0,353,354
 544 1062 544 1062 541 1060 c 0,355,356
 538 1059 538 1059 535 1059 c 2,357,-1
 462 1059 l 2,358,359
 428 1059 428 1059 399 1071 c 0,360,361
 392 1074 392 1074 385 1078 c 128,-1,362
 378 1082 378 1082 371 1086 c 0,363,364
 367 1089 367 1089 362.5 1092.5 c 128,-1,365
 358 1096 358 1096 354 1099.5 c 128,-1,366
 350 1103 350 1103 346 1107 c 0,367,368
 322 1131 322 1131 310 1160.5 c 128,-1,369
 298 1190 298 1190 298 1224 c 0,370,371
 298 1269 298 1269 320 1306 c 0,372,373
 324 1312 324 1312 328 1318 c 0,374,375
 330 1321 330 1321 332 1324 c 128,-1,376
 334 1327 334 1327 337 1329 c 0,377,378
 346 1340 346 1340 357 1349 c 0,379,380
 359 1351 359 1351 360.5 1352.5 c 128,-1,381
 362 1354 362 1354 364 1355.5 c 128,-1,382
 366 1357 366 1357 368 1358.5 c 128,-1,383
 370 1360 370 1360 372 1361 c 128,-1,384
 374 1362 374 1362 376 1363.5 c 128,-1,385
 378 1365 378 1365 380 1366 c 128,-1,386
 382 1367 382 1367 384.5 1368.5 c 128,-1,387
 387 1370 387 1370 390 1371 c 0,388,389
 395 1373 395 1373 399 1375 c 0,390,391
 402 1376 402 1376 405.5 1377.5 c 128,-1,392
 409 1379 409 1379 413 1380 c 0,393,394
 414 1380 414 1380 414.5 1380.5 c 128,-1,395
 415 1381 415 1381 416 1381.5 c 128,-1,396
 417 1382 417 1382 418 1382 c 128,-1,397
 419 1382 419 1382 420 1382 c 0,398,399
 423 1383 423 1383 426.5 1384 c 128,-1,400
 430 1385 430 1385 433.5 1385.5 c 128,-1,401
 437 1386 437 1386 441 1386 c 0,402,403
 452 1387 452 1387 462 1388 c 2,404,-1
 535 1388 l 2,326,327
16 601 m 1,405,406
 17 558 17 558 25 517.5 c 128,-1,407
 33 477 33 477 49 440 c 0,408,409
 82 362 82 362 146 296 c 0,410,411
 276 165 276 165 462 165 c 2,412,-1
 535 165 l 2,413,414
 541 165 541 165 545 161 c 0,415,416
 547 159 547 159 548.5 156 c 128,-1,417
 550 153 550 153 550 150 c 2,418,-1
 550 12 l 1,419,-1
 833 12 l 1,420,-1
 833 150 l 2,421,422
 833 153 833 153 834 156 c 0,423,424
 835 158 835 158 837 160 c 128,-1,425
 839 162 839 162 842 164 c 0,426,427
 845 165 845 165 849 165 c 2,428,-1
 921 165 l 2,429,430
 1014 165 1014 165 1093 198 c 0,431,432
 1132 214 1132 214 1168 238.5 c 128,-1,433
 1204 263 1204 263 1237 296 c 0,434,435
 1245 304 1245 304 1253 312.5 c 128,-1,436
 1261 321 1261 321 1268 330 c 0,437,438
 1272 334 1272 334 1275 338.5 c 128,-1,439
 1278 343 1278 343 1282 347 c 0,440,441
 1289 356 1289 356 1294 365 c 0,442,443
 1319 401 1319 401 1335 441 c 0,444,445
 1337 446 1337 446 1339 451 c 128,-1,446
 1341 456 1341 456 1343 461 c 128,-1,447
 1345 466 1345 466 1346.5 471 c 128,-1,448
 1348 476 1348 476 1350 481 c 0,449,450
 1356 502 1356 502 1360 523 c 0,451,452
 1368 566 1368 566 1368 612 c 0,453,454
 1368 673 1368 673 1353 729 c 0,455,456
 1346 757 1346 757 1334.5 784 c 128,-1,457
 1323 811 1323 811 1308 837 c 0,458,459
 1301 848 1301 848 1294 859 c 0,460,461
 1290 864 1290 864 1286.5 869.5 c 128,-1,462
 1283 875 1283 875 1279 880 c 0,463,464
 1278 882 1278 882 1276.5 883.5 c 128,-1,465
 1275 885 1275 885 1274 887 c 128,-1,466
 1273 889 1273 889 1271.5 890.5 c 128,-1,467
 1270 892 1270 892 1269 894 c 128,-1,468
 1268 896 1268 896 1266.5 897.5 c 128,-1,469
 1265 899 1265 899 1263 900 c 0,470,471
 1255 910 1255 910 1246 920 c 0,472,473
 1242 925 1242 925 1237.5 929 c 128,-1,474
 1233 933 1233 933 1228.5 937.5 c 128,-1,475
 1224 942 1224 942 1219 946.5 c 128,-1,476
 1214 951 1214 951 1209 955 c 0,477,478
 1199 963 1199 963 1189 970.5 c 128,-1,479
 1179 978 1179 978 1168 986 c 0,480,481
 1163 990 1163 990 1157 993 c 128,-1,482
 1151 996 1151 996 1145 999 c 0,483,484
 1094 1029 1094 1029 1038 1044 c 128,-1,485
 982 1059 982 1059 921 1059 c 2,486,-1
 849 1059 l 2,487,488
 847 1059 847 1059 845.5 1059.5 c 128,-1,489
 844 1060 844 1060 843 1060 c 128,-1,490
 842 1060 842 1060 841 1060.5 c 128,-1,491
 840 1061 840 1061 839.5 1061.5 c 128,-1,492
 839 1062 839 1062 839 1062.5 c 128,-1,493
 839 1063 839 1063 838 1063 c 0,494,495
 836 1065 836 1065 834 1068 c 0,496,497
 833 1069 833 1069 833 1070.5 c 128,-1,498
 833 1072 833 1072 833 1073 c 128,-1,499
 833 1074 833 1074 833 1075 c 2,500,-1
 833 1372 l 2,501,502
 833 1375 833 1375 834 1378 c 0,503,504
 835 1380 835 1380 837 1383 c 0,505,506
 838 1384 838 1384 839.5 1385 c 128,-1,507
 841 1386 841 1386 842 1387 c 0,508,509
 845 1388 845 1388 849 1388 c 2,510,-1
 921 1388 l 2,511,512
 955 1388 955 1388 984 1376 c 128,-1,513
 1013 1364 1013 1364 1037 1340 c 128,-1,514
 1061 1316 1061 1316 1073 1288 c 0,515,516
 1083 1264 1083 1264 1085 1235 c 1,517,-1
 1368 1235 l 1,518,519
 1366 1322 1366 1322 1335 1396 c 0,520,521
 1302 1474 1302 1474 1237 1540 c 0,522,523
 1204 1573 1204 1573 1168 1597 c 0,524,525
 1150 1609 1150 1609 1131 1619.5 c 128,-1,526
 1112 1630 1112 1630 1093 1638 c 0,527,528
 1091 1639 1091 1639 1088 1640 c 128,-1,529
 1085 1641 1085 1641 1083 1642 c 0,530,531
 1078 1644 1078 1644 1073 1645 c 0,532,533
 1070 1646 1070 1646 1067.5 1647 c 128,-1,534
 1065 1648 1065 1648 1063 1649 c 0,535,536
 1058 1651 1058 1651 1052 1652 c 0,537,538
 1051 1652 1051 1652 1049.5 1652.5 c 128,-1,539
 1048 1653 1048 1653 1047 1653.5 c 128,-1,540
 1046 1654 1046 1654 1044.5 1654.5 c 128,-1,541
 1043 1655 1043 1655 1042 1655 c 0,542,543
 1037 1656 1037 1656 1032 1658 c 0,544,545
 1030 1658 1030 1658 1028 1658.5 c 128,-1,546
 1026 1659 1026 1659 1024.5 1659.5 c 128,-1,547
 1023 1660 1023 1660 1021 1660 c 0,548,549
 1016 1661 1016 1661 1010 1662 c 0,550,551
 967 1670 967 1670 921 1670 c 2,552,-1
 849 1670 l 2,553,554
 847 1670 847 1670 845 1671 c 0,555,556
 844 1671 844 1671 843 1671.5 c 128,-1,557
 842 1672 842 1672 841 1672 c 0,558,-1
 840.5 1672.5 l 0,559,560
 840 1673 840 1673 839.5 1673.5 c 128,-1,561
 839 1674 839 1674 838.5 1674 c 128,-1,562
 838 1674 838 1674 838 1675 c 0,563,564
 836 1677 836 1677 834 1680 c 0,565,566
 833 1683 833 1683 833 1686 c 2,567,-1
 833 1823 l 1,568,-1
 550 1823 l 1,569,-1
 550 1686 l 2,570,571
 550 1683 550 1683 549 1680 c 0,572,573
 548 1678 548 1678 546 1675 c 0,574,575
 545 1674 545 1674 544 1673 c 128,-1,576
 543 1672 543 1672 541 1672 c 0,577,578
 538 1671 538 1671 535 1670 c 2,579,-1
 462 1670 l 2,580,581
 369 1670 369 1670 290.5 1637.5 c 128,-1,582
 212 1605 212 1605 147 1540 c 0,583,584
 16 1409 16 1409 16 1223.5 c 128,-1,585
 16 1038 16 1038 146 908 c 0,586,587
 161 893 161 893 176.5 880 c 128,-1,588
 192 867 192 867 207 856 c 0,589,590
 211 853 211 853 215 850 c 128,-1,591
 219 847 219 847 223.5 844.5 c 128,-1,592
 228 842 228 842 232 839.5 c 128,-1,593
 236 837 236 837 240 834.5 c 128,-1,594
 244 832 244 832 248 830 c 128,-1,595
 252 828 252 828 256.5 825.5 c 128,-1,596
 261 823 261 823 265 821 c 128,-1,597
 269 819 269 819 274 817 c 0,598,599
 275 817 275 817 275.5 816.5 c 128,-1,600
 276 816 276 816 276.5 815.5 c 128,-1,601
 277 815 277 815 278 815 c 128,-1,602
 279 815 279 815 279 814 c 0,603,604
 282 813 282 813 285 812 c 0,605,606
 286 811 286 811 287.5 810.5 c 128,-1,607
 289 810 289 810 291 809 c 0,608,609
 292 809 292 809 293 808.5 c 128,-1,610
 294 808 294 808 295 807.5 c 128,-1,611
 296 807 296 807 297 807 c 0,612,613
 298 806 298 806 299.5 805.5 c 128,-1,614
 301 805 301 805 303 805 c 0,615,616
 306 804 306 804 309 802 c 0,617,618
 327 796 327 796 345 791 c 0,619,620
 354 789 354 789 363.5 787 c 128,-1,621
 373 785 373 785 383 783 c 0,622,623
 389 782 389 782 396 781 c 0,624,625
 399 781 399 781 402 780.5 c 128,-1,626
 405 780 405 780 409 779 c 0,627,628
 416 778 416 778 422 778 c 0,629,630
 442 776 442 776 462 777 c 2,631,-1
 535 777 l 2,632,633
 541 777 541 777 545 772 c 0,634,635
 546 771 546 771 547.5 769 c 128,-1,636
 549 767 549 767 550 765 c 0,637,638
 550 763 550 763 550 761 c 2,639,-1
 550 464 l 2,640,641
 550 462 550 462 550 460.5 c 128,-1,642
 550 459 550 459 549 458 c 0,643,644
 548 456 548 456 546 453 c 0,645,646
 544 451 544 451 541 449 c 0,647,648
 540 449 540 449 539.5 448.5 c 128,-1,649
 539 448 539 448 538 448 c 128,-1,650
 537 448 537 448 536.5 448 c 128,-1,651
 536 448 536 448 535 448 c 2,652,-1
 462 448 l 2,653,654
 456 448 456 448 451 448.5 c 128,-1,655
 446 449 446 449 440.5 449.5 c 128,-1,656
 435 450 435 450 430 451 c 0,657,658
 414 454 414 454 399 460 c 0,659,660
 370 472 370 472 346 496 c 0,661,662
 342 500 342 500 338.5 504 c 128,-1,663
 335 508 335 508 332 512 c 0,664,665
 331 514 331 514 329.5 515.5 c 128,-1,666
 328 517 328 517 327 519 c 128,-1,667
 326 521 326 521 324.5 522.5 c 128,-1,668
 323 524 323 524 322 526 c 128,-1,669
 321 528 321 528 320 530 c 0,670,671
 319 531 319 531 318 532.5 c 128,-1,672
 317 534 317 534 316.5 535.5 c 128,-1,673
 316 537 316 537 315 539 c 0,674,675
 313 544 313 544 311 548.5 c 128,-1,676
 309 553 309 553 307 558 c 128,-1,677
 305 563 305 563 304 568 c 0,678,679
 301 578 301 578 300 588 c 0,680,681
 299 594 299 594 298 601 c 1,682,-1
 16 601 l 1,405,406
EndSplineSet
EndChar

StartChar: uni0084
Encoding: 132 132 78
Width: 1489
VWidth: -3
Flags: W
LayerCount: 2
Fore
SplineSet
1486 353 m 0,0,1
 1486 332 1486 332 1483.5 312 c 128,-1,2
 1481 292 1481 292 1476 273 c 0,3,4
 1466 235 1466 235 1447 201 c 0,5,6
 1427 167 1427 167 1397 137 c 0,7,8
 1352 92 1352 92 1298 69.5 c 128,-1,9
 1244 47 1244 47 1180 47 c 0,10,11
 1169 47 1169 47 1159 47.5 c 128,-1,12
 1149 48 1149 48 1139 49 c 128,-1,13
 1129 50 1129 50 1119 52 c 128,-1,14
 1109 54 1109 54 1099 57 c 0,15,16
 1080 62 1080 62 1062 69.5 c 128,-1,17
 1044 77 1044 77 1027 87 c 0,18,19
 993 107 993 107 963 137 c 2,20,-1
 857 243 l 2,21,22
 846 254 846 254 836 265.5 c 128,-1,23
 826 277 826 277 818 290 c 0,24,25
 801 315 801 315 790 342 c 0,26,27
 786 351 786 351 783 360 c 128,-1,28
 780 369 780 369 777.5 378.5 c 128,-1,29
 775 388 775 388 773 398 c 128,-1,30
 771 408 771 408 769.5 418 c 128,-1,31
 768 428 768 428 768 439 c 0,32,33
 768 445 768 445 767 450 c 1,34,-1
 456 -104 l 2,35,36
 455.5 -104.5 l 0,37,38
 455 -105 455 -105 454 -105 c 1,39,-1
 348 1 l 2,40,-1
 347.5 1 l 0,41,-1
 347 1 l 2,42,-1
 347 0 l 1,43,-1
 453 -106 l 1,44,-1
 114 -106 l 2,45,46
 113 -106 113 -106 112 -105 c 2,47,-1
 6 1 l 2,48,49
 5 2 l 2,50,-1
 5 5 l 1,51,-1
 566 1002 l 1,52,53
 499 963 499 963 416 964 c 0,54,55
 384 964 384 964 355 969 c 0,56,57
 326 975 326 975 298 986 c 0,58,59
 284 992 284 992 271.5 999 c 128,-1,60
 259 1006 259 1006 246 1014 c 0,61,62
 221 1031 221 1031 199 1053 c 2,63,-1
 93 1160 l 2,64,65
 48 1205 48 1205 25.5 1259 c 128,-1,66
 3 1313 3 1313 3 1376 c 0,67,68
 3 1503 3 1503 93 1593 c 128,-1,69
 183 1683 183 1683 310 1683 c 128,-1,70
 437 1683 437 1683 526 1593 c 2,71,-1
 526 1593 l 1,72,-1
 633 1487 l 2,73,74
 643 1477 643 1477 651.5 1466.5 c 128,-1,75
 660 1456 660 1456 668 1445 c 128,-1,76
 676 1434 676 1434 682 1423 c 0,77,78
 692 1406 692 1406 699.5 1388 c 128,-1,79
 707 1370 707 1370 712 1351 c 0,80,81
 721 1317 721 1317 722 1279 c 1,82,-1
 1034 1834 l 2,83,84
 1035 1836 1035 1836 1037 1836 c 2,85,-1
 1376 1836 l 2,86,87
 1377 1836 1377 1836 1378 1835 c 0,88,-1
 1378 1835 l 2,89,-1
 1484 1729 l 2,90,91
 1485 1728 1485 1728 1485 1726 c 0,92,-1
 1484.5 1725.5 l 0,93,-1
 1484 1725 l 2,94,-1
 923 728 l 1,95,96
 939 737 939 737 956 744 c 0,97,98
 974 751 974 751 993 756 c 0,99,100
 1031 766 1031 766 1074 766 c 0,101,102
 1138 766 1138 766 1192 744 c 128,-1,103
 1246 722 1246 722 1291 676 c 2,104,-1
 1291 676 l 1,105,-1
 1397 570 l 2,106,107
 1419 548 1419 548 1436 523 c 0,108,109
 1444 511 1444 511 1451 498 c 128,-1,110
 1458 485 1458 485 1464 471 c 0,111,112
 1468 462 1468 462 1471 452.5 c 128,-1,113
 1474 443 1474 443 1476.5 433.5 c 128,-1,114
 1479 424 1479 424 1481 414.5 c 128,-1,115
 1483 405 1483 405 1484 395 c 128,-1,116
 1485 385 1485 385 1485.5 374.5 c 128,-1,117
 1486 364 1486 364 1486 353 c 0,0,1
994 379 m 1,118,-1
 993 379 l 1,119,-1
 993 379 l 1,120,-1
 994 379 l 1,118,-1
1066 346 m 1,121,122
 1070 346 1070 346 1074 346 c 0,123,124
 1081 346 1081 346 1087 346 c 0,125,126
 1090 346 1090 346 1093 347 c 128,-1,127
 1096 348 1096 348 1100 348 c 0,128,129
 1106 349 1106 349 1112 351.5 c 128,-1,130
 1118 354 1118 354 1123.5 356.5 c 128,-1,131
 1129 359 1129 359 1134 363 c 0,132,133
 1137 365 1137 365 1139.5 366.5 c 128,-1,134
 1142 368 1142 368 1144 370 c 0,135,136
 1149 374 1149 374 1154 379 c 0,137,138
 1162 387 1162 387 1168.5 396.5 c 128,-1,139
 1175 406 1175 406 1179 416 c 128,-1,140
 1183 426 1183 426 1185.5 437 c 128,-1,141
 1188 448 1188 448 1187 459 c 0,142,143
 1187 463 1187 463 1187 467 c 1,144,145
 1183 467 1183 467 1180 467 c 0,146,147
 1172 467 1172 467 1164.5 466 c 128,-1,148
 1157 465 1157 465 1150 463 c 0,149,150
 1136 459 1136 459 1123.5 452 c 128,-1,151
 1111 445 1111 445 1099 434 c 0,152,153
 1066 401 1066 401 1066 353 c 0,154,155
 1066 350 1066 350 1066 346 c 1,121,122
229 1296 m 1,156,-1
 229 1296 l 1,157,-1
 229 1296 l 1,158,-1
 229 1296 l 1,156,-1
302 1263 m 1,159,160
 306 1263 306 1263 310 1263 c 128,-1,161
 314 1263 314 1263 317.5 1263 c 128,-1,162
 321 1263 321 1263 325 1263.5 c 128,-1,163
 329 1264 329 1264 332.5 1264.5 c 128,-1,164
 336 1265 336 1265 340 1266 c 0,165,166
 354 1270 354 1270 366 1277 c 0,167,168
 379 1284 379 1284 390 1296 c 0,169,170
 407 1313 407 1313 415 1333 c 0,171,172
 419 1343 419 1343 421 1354 c 128,-1,173
 423 1365 423 1365 423 1376 c 0,174,175
 423 1380 423 1380 423 1384 c 1,176,177
 419 1384 419 1384 416 1384 c 0,178,179
 369 1384 369 1384 335.5 1350.5 c 128,-1,180
 302 1317 302 1317 302 1270 c 0,181,182
 302 1267 302 1267 302 1263 c 1,159,160
604 1376 m 0,183,184
 604 1417 604 1417 594 1454 c 0,185,186
 589 1472 589 1472 582 1489.5 c 128,-1,187
 575 1507 575 1507 566 1523 c 0,188,189
 564 1526 564 1526 562.5 1528.5 c 128,-1,190
 561 1531 561 1531 559 1533.5 c 128,-1,191
 557 1536 557 1536 555.5 1539 c 128,-1,192
 554 1542 554 1542 552 1544 c 0,193,194
 550 1547 550 1547 547 1550.5 c 128,-1,195
 544 1554 544 1554 541.5 1557.5 c 128,-1,196
 539 1561 539 1561 536 1565 c 0,197,198
 527 1575 527 1575 518 1584 c 0,199,200
 432 1670 432 1670 310 1670 c 0,201,202
 295 1670 295 1670 280 1669 c 128,-1,203
 265 1668 265 1668 251 1665 c 128,-1,204
 237 1662 237 1662 223.5 1658 c 128,-1,205
 210 1654 210 1654 197 1649 c 128,-1,206
 184 1644 184 1644 171.5 1637 c 128,-1,207
 159 1630 159 1630 147 1622 c 128,-1,208
 135 1614 135 1614 124 1604.5 c 128,-1,209
 113 1595 113 1595 102 1584 c 0,210,211
 16 1498 16 1498 16 1376 c 0,212,213
 16 1315 16 1315 37 1263 c 0,214,215
 44 1246 44 1246 53.5 1230 c 128,-1,216
 63 1214 63 1214 75 1198.5 c 128,-1,217
 87 1183 87 1183 102 1168 c 0,218,219
 113 1157 113 1157 124 1148 c 128,-1,220
 135 1139 135 1139 147 1131 c 0,221,222
 153 1127 153 1127 159 1123 c 128,-1,223
 165 1119 165 1119 171 1116 c 0,224,225
 173 1115 173 1115 175.5 1113.5 c 128,-1,226
 178 1112 178 1112 180 1111 c 128,-1,227
 182 1110 182 1110 184 1109 c 128,-1,228
 186 1108 186 1108 188 1107 c 128,-1,229
 190 1106 190 1106 192.5 1105.5 c 128,-1,230
 195 1105 195 1105 197 1104 c 0,231,232
 223 1093 223 1093 251 1088 c 128,-1,233
 279 1083 279 1083 310 1082 c 0,234,235
 432 1082 432 1082 518 1168 c 128,-1,236
 604 1254 604 1254 604 1376 c 0,183,184
436 1376 m 128,-1,238
 436 1363 436 1363 434 1351 c 128,-1,239
 432 1339 432 1339 427 1328 c 0,240,241
 418 1305 418 1305 399 1287 c 0,242,243
 393 1281 393 1281 386.5 1276 c 128,-1,244
 380 1271 380 1271 373 1267 c 0,245,246
 359 1259 359 1259 343 1254 c 0,247,248
 339 1253 339 1253 335 1252.5 c 128,-1,249
 331 1252 331 1252 326.5 1251.5 c 128,-1,250
 322 1251 322 1251 318 1250.5 c 128,-1,251
 314 1250 314 1250 310 1250 c 0,252,253
 284 1250 284 1250 261 1259 c 0,254,255
 255 1261 255 1261 250 1264.5 c 128,-1,256
 245 1268 245 1268 240 1271.5 c 128,-1,257
 235 1275 235 1275 230 1279 c 128,-1,258
 225 1283 225 1283 220 1287 c 0,259,260
 214 1293 214 1293 209 1299.5 c 128,-1,261
 204 1306 204 1306 200 1313 c 0,262,263
 192 1327 192 1327 188 1343 c 128,-1,264
 184 1359 184 1359 184 1376 c 0,265,266
 184 1402 184 1402 193 1424.5 c 128,-1,267
 202 1447 202 1447 220 1466 c 0,268,269
 257 1503 257 1503 310 1503 c 0,270,271
 336 1503 336 1503 358 1493 c 0,272,273
 363 1491 363 1491 367 1489 c 128,-1,274
 371 1487 371 1487 375.5 1484.5 c 128,-1,275
 380 1482 380 1482 384 1479 c 128,-1,276
 388 1476 388 1476 391.5 1472.5 c 128,-1,277
 395 1469 395 1469 399 1466 c 0,278,279
 404 1461 404 1461 408 1456 c 128,-1,280
 412 1451 412 1451 415 1446 c 0,281,282
 422 1436 422 1436 427 1425 c 0,283,284
 429 1419 429 1419 430.5 1413 c 128,-1,285
 432 1407 432 1407 434 1401 c 0,286,237
 436 1389 436 1389 436 1376 c 128,-1,238
1368 459 m 0,287,288
 1368 469 1368 469 1367 480 c 0,289,290
 1367 485 1367 485 1366.5 489.5 c 128,-1,291
 1366 494 1366 494 1365 499 c 0,292,293
 1365 502 1365 502 1364.5 505.5 c 128,-1,294
 1364 509 1364 509 1363.5 512 c 128,-1,295
 1363 515 1363 515 1363 518 c 0,296,297
 1362 523 1362 523 1361 527.5 c 128,-1,298
 1360 532 1360 532 1358.5 536.5 c 128,-1,299
 1357 541 1357 541 1355.5 545.5 c 128,-1,300
 1354 550 1354 550 1352.5 554.5 c 128,-1,301
 1351 559 1351 559 1349.5 563.5 c 128,-1,302
 1348 568 1348 568 1346 572 c 0,303,304
 1341 585 1341 585 1334.5 597.5 c 128,-1,305
 1328 610 1328 610 1320 622 c 0,306,307
 1304 646 1304 646 1282 667 c 0,308,309
 1239 710 1239 710 1187 732 c 0,310,311
 1161 743 1161 743 1133 748.5 c 128,-1,312
 1105 754 1105 754 1074 754 c 0,313,314
 1033 754 1033 754 996 744 c 0,315,316
 978 739 978 739 961 732 c 0,317,318
 952 728 952 728 944 724 c 128,-1,319
 936 720 936 720 927.5 715.5 c 128,-1,320
 919 711 919 711 911 705.5 c 128,-1,321
 903 700 903 700 895.5 694 c 128,-1,322
 888 688 888 688 880.5 681.5 c 128,-1,323
 873 675 873 675 866 667 c 0,324,325
 855 656 855 656 845.5 645 c 128,-1,326
 836 634 836 634 828 622 c 0,327,328
 826 619 826 619 823.5 615.5 c 128,-1,329
 821 612 821 612 819 608 c 0,330,331
 819 607 819 607 818.5 606.5 c 128,-1,332
 818 606 818 606 817.5 605.5 c 128,-1,333
 817 605 817 605 816.5 604 c 128,-1,334
 816 603 816 603 816 602.5 c 128,-1,335
 816 602 816 602 815 601 c 0,336,337
 813 597 813 597 811 594 c 0,338,339
 810 592 810 592 809.5 590.5 c 128,-1,340
 809 589 809 589 808 587 c 0,341,342
 806 583 806 583 804.5 579.5 c 128,-1,343
 803 576 803 576 801 572 c 0,344,345
 790 546 790 546 785 518 c 128,-1,346
 780 490 780 490 780 459 c 0,347,348
 780 449 780 449 780.5 439 c 128,-1,349
 781 429 781 429 782 419.5 c 128,-1,350
 783 410 783 410 785 401 c 0,351,352
 786 396 786 396 787 391.5 c 128,-1,353
 788 387 788 387 789 382 c 0,354,355
 791 373 791 373 795 364 c 0,356,357
 796 360 796 360 797.5 355.5 c 128,-1,358
 799 351 799 351 801 346 c 0,359,360
 805 337 805 337 809 329 c 128,-1,361
 813 321 813 321 818 313 c 128,-1,362
 823 305 823 305 828 297 c 0,363,364
 831 293 831 293 833.5 289 c 128,-1,365
 836 285 836 285 839 281 c 128,-1,366
 842 277 842 277 846 274 c 0,367,368
 847 273 847 273 848 271 c 128,-1,369
 849 269 849 269 850.5 268 c 128,-1,370
 852 267 852 267 853 265.5 c 128,-1,371
 854 264 854 264 855.5 262.5 c 128,-1,372
 857 261 857 261 858 259.5 c 128,-1,373
 859 258 859 258 860.5 257 c 128,-1,374
 862 256 862 256 863.5 254.5 c 128,-1,375
 865 253 865 253 866 251 c 0,376,377
 895 222 895 222 927 203 c 0,378,379
 943 193 943 193 961 187 c 0,380,381
 967 185 967 185 972.5 182.5 c 128,-1,382
 978 180 978 180 984 178 c 128,-1,383
 990 176 990 176 996 175 c 0,384,385
 1005 173 1005 173 1014.5 171 c 128,-1,386
 1024 169 1024 169 1034 168 c 0,387,388
 1039 167 1039 167 1044 166.5 c 128,-1,389
 1049 166 1049 166 1054 166 c 0,390,391
 1064 165 1064 165 1074 165 c 0,392,393
 1135 165 1135 165 1187 187 c 0,394,395
 1197 191 1197 191 1207 196 c 128,-1,396
 1217 201 1217 201 1226.5 207 c 128,-1,397
 1236 213 1236 213 1245.5 220 c 128,-1,398
 1255 227 1255 227 1264 235 c 128,-1,399
 1273 243 1273 243 1282 251 c 0,400,401
 1311 280 1311 280 1330 313 c 128,-1,402
 1349 346 1349 346 1358 382 c 0,403,404
 1360 388 1360 388 1361.5 394.5 c 128,-1,405
 1363 401 1363 401 1364 407 c 128,-1,406
 1365 413 1365 413 1365 420 c 0,407,408
 1366 425 1366 425 1366.5 429.5 c 128,-1,409
 1367 434 1367 434 1367.5 439 c 128,-1,410
 1368 444 1368 444 1368 449 c 128,-1,411
 1368 454 1368 454 1368 459 c 0,287,288
1200 459 m 0,412,413
 1200 446 1200 446 1198 434 c 128,-1,414
 1196 422 1196 422 1191 411 c 128,-1,415
 1186 400 1186 400 1179 389 c 0,416,417
 1176 384 1176 384 1172 379.5 c 128,-1,418
 1168 375 1168 375 1163 370 c 0,419,420
 1160 367 1160 367 1157.5 365 c 128,-1,421
 1155 363 1155 363 1152 360.5 c 128,-1,422
 1149 358 1149 358 1147 356 c 0,423,424
 1146 355 1146 355 1144 354 c 128,-1,425
 1142 353 1142 353 1141 352 c 0,426,427
 1135 348 1135 348 1128.5 345 c 128,-1,428
 1122 342 1122 342 1115.5 340 c 128,-1,429
 1109 338 1109 338 1102 336 c 0,430,431
 1100 336 1100 336 1098.5 335.5 c 128,-1,432
 1097 335 1097 335 1095 335 c 0,433,434
 1094 335 1094 335 1093 334.5 c 128,-1,435
 1092 334 1092 334 1090.5 334 c 128,-1,436
 1089 334 1089 334 1088 334 c 0,437,438
 1081 333 1081 333 1074 333 c 0,439,440
 1072 333 1072 333 1069.5 333 c 128,-1,441
 1067 333 1067 333 1065 333.5 c 128,-1,442
 1063 334 1063 334 1061 334 c 128,-1,443
 1059 334 1059 334 1057 334 c 128,-1,444
 1055 334 1055 334 1053 334.5 c 128,-1,445
 1051 335 1051 335 1049 335 c 0,446,447
 1037 337 1037 337 1025 342 c 0,448,449
 1017 345 1017 345 1010.5 349.5 c 128,-1,450
 1004 354 1004 354 997 359 c 128,-1,451
 990 364 990 364 985 370 c 0,452,453
 976 379 976 379 969 390 c 0,454,455
 962 400 962 400 957 411 c 0,456,457
 955 417 955 417 953 422.5 c 128,-1,458
 951 428 951 428 950 434 c 0,459,460
 950 436 950 436 949.5 438.5 c 128,-1,461
 949 441 949 441 948.5 443 c 128,-1,462
 948 445 948 445 948 447 c 0,463,464
 947 453 947 453 948 459 c 0,465,466
 948 476 948 476 952 492 c 128,-1,467
 956 508 956 508 964 522 c 128,-1,468
 972 536 972 536 985 549 c 0,469,470
 989 553 989 553 993 556.5 c 128,-1,471
 997 560 997 560 1001.5 563 c 128,-1,472
 1006 566 1006 566 1011 569 c 0,473,474
 1025 577 1025 577 1041 581 c 0,475,476
 1049 583 1049 583 1057 585 c 0,477,478
 1065 586 1065 586 1074 586 c 0,479,480
 1084 586 1084 586 1094 584.5 c 128,-1,481
 1104 583 1104 583 1113 580 c 128,-1,482
 1122 577 1122 577 1131 572.5 c 128,-1,483
 1140 568 1140 568 1148 562 c 128,-1,484
 1156 556 1156 556 1163 549 c 0,485,486
 1200 511 1200 511 1200 459 c 0,412,413
24 13 m 1,487,-1
 341 13 l 1,488,-1
 1359 1823 l 1,489,490
 1315 1823 1315 1823 1258 1823 c 128,-1,491
 1201 1823 1201 1823 1143.5 1823 c 128,-1,492
 1086 1823 1086 1823 1042 1823 c 1,493,-1
 24 13 l 1,487,-1
EndSplineSet
EndChar

